<svg width="23" height="25" viewBox="0 0 23 25" fill="none" xmlns="http://www.w3.org/2000/svg">
<path fill-rule="evenodd" clip-rule="evenodd" d="M1.65731 3.44922C0.742003 3.44922 0 4.23272 0 5.19922V19.1992C0 20.1657 0.742003 20.9492 1.65731 20.9492H21.0715C21.9868 20.9492 22.7288 20.1657 22.7288 19.1992V5.19922C22.7288 4.23272 21.9868 3.44922 21.0715 3.44922H1.65731ZM1.42055 5.19922C1.42055 5.06115 1.52655 4.94922 1.65731 4.94922H21.0715C21.2023 4.94922 21.3083 5.06115 21.3083 5.19922V6.05078L11.4969 13.0508C11.4168 13.108 11.3119 13.108 11.2318 13.0508L1.42055 6.05082V5.19922ZM1.42055 7.86113V19.1992C1.42055 19.3373 1.52655 19.4492 1.65731 19.4492H21.0715C21.2023 19.4492 21.3083 19.3373 21.3083 19.1992V7.86109L12.2922 14.2937C11.7316 14.6937 10.9971 14.6937 10.4365 14.2937L1.42055 7.86113Z" fill="#3C3C3C"/>
</svg>
