<svg width="1012" height="538" viewBox="0 0 1012 538" fill="none" xmlns="http://www.w3.org/2000/svg">
<rect x="107.449" y="77.8457" width="189.681" height="459.402" fill="#EEEEEE"/>
<rect x="306.999" y="77.8457" width="191.874" height="459.402" fill="#EEEEEE"/>
<rect x="508.741" y="77.8457" width="191.874" height="459.402" fill="#EEEEEE"/>
<rect x="710.483" y="77.8457" width="191.874" height="459.402" fill="#EEEEEE"/>
<path d="M295.711 145.861L119.325 300.043C114.776 304.019 114.765 311.089 119.3 315.08L295.782 470.357C299.4 473.54 304.773 473.69 308.563 470.714L497.642 322.256C501.262 319.414 506.356 319.41 509.981 322.247L699.035 470.202C702.815 473.161 708.164 473.016 711.779 469.857L888.246 315.638C892.81 311.649 892.804 304.549 888.233 300.568L711.841 146.919C708.198 143.746 702.806 143.631 699.031 146.647L510.07 297.611C506.41 300.534 501.211 300.526 497.561 297.59L308.559 145.598C304.779 142.558 299.363 142.669 295.711 145.861Z" fill="white" stroke="#616161" stroke-width="6"/>
<path d="M134.86 308.644C134.86 316.213 128.724 322.349 121.155 322.349C113.585 322.349 107.449 316.213 107.449 308.644C107.449 301.075 113.585 294.938 121.155 294.938C128.724 294.938 134.86 301.075 134.86 308.644Z" fill="#A4B5CE"/>
<path d="M130 308.5C130 313.194 125.971 317 121 317C116.029 317 112 313.194 112 308.5C112 303.806 116.029 300 121 300C125.971 300 130 303.806 130 308.5Z" fill="#8B9FBD"/>
<path d="M902.358 308.644C902.358 316.213 896.222 322.349 888.653 322.349C881.083 322.349 874.947 316.213 874.947 308.644C874.947 301.075 881.083 294.938 888.653 294.938C896.222 294.938 902.358 301.075 902.358 308.644Z" fill="#A4B5CE"/>
<path d="M117.046 19C121.478 19 124.042 16.2514 124.042 11.706C124.042 7.18182 121.478 4.45455 117.195 4.45455H112.337V19H117.046ZM114.532 17.0824V6.37216H117.06C120.242 6.37216 121.883 8.27557 121.883 11.706C121.883 15.1506 120.242 17.0824 116.925 17.0824H114.532ZM126.6 19H128.724V8.09091H126.6V19ZM127.673 6.40767C128.404 6.40767 129.015 5.83949 129.015 5.14347C129.015 4.44744 128.404 3.87216 127.673 3.87216C126.934 3.87216 126.331 4.44744 126.331 5.14347C126.331 5.83949 126.934 6.40767 127.673 6.40767ZM139.756 10.7543C139.315 9.05682 137.987 7.94886 135.629 7.94886C133.165 7.94886 131.418 9.24858 131.418 11.1804C131.418 12.7287 132.355 13.7585 134.4 14.2131L136.247 14.6179C137.298 14.8523 137.788 15.321 137.788 16.0028C137.788 16.848 136.886 17.5085 135.494 17.5085C134.223 17.5085 133.406 16.9616 133.15 15.8892L131.098 16.2017C131.453 18.1335 133.058 19.2202 135.508 19.2202C138.143 19.2202 139.969 17.821 139.969 15.8466C139.969 14.3054 138.989 13.3537 136.986 12.892L135.253 12.4943C134.052 12.2102 133.534 11.8054 133.541 11.0668C133.534 10.2287 134.443 9.6321 135.65 9.6321C136.972 9.6321 137.582 10.3636 137.831 11.0952L139.756 10.7543ZM146.899 19.2202C149.477 19.2202 151.146 17.6719 151.38 15.5483H149.313C149.044 16.7273 148.127 17.4233 146.913 17.4233C145.116 17.4233 143.958 15.9247 143.958 13.5455C143.958 11.2088 145.137 9.73864 146.913 9.73864C148.262 9.73864 149.086 10.5909 149.313 11.6136H151.38C151.153 9.41193 149.356 7.94886 146.877 7.94886C143.802 7.94886 141.813 10.2642 141.813 13.5952C141.813 16.8835 143.731 19.2202 146.899 19.2202ZM158.246 19.2202C161.322 19.2202 163.332 16.9688 163.332 13.5952C163.332 10.2003 161.322 7.94886 158.246 7.94886C155.171 7.94886 153.161 10.2003 153.161 13.5952C153.161 16.9688 155.171 19.2202 158.246 19.2202ZM158.253 17.4375C156.244 17.4375 155.306 15.6832 155.306 13.5881C155.306 11.5 156.244 9.72443 158.253 9.72443C160.249 9.72443 161.187 11.5 161.187 13.5881C161.187 15.6832 160.249 17.4375 158.253 17.4375ZM174.644 8.09091H172.364L169.608 16.4858H169.495L166.732 8.09091H164.452L168.415 19H170.688L174.644 8.09091ZM180.951 19.2202C183.33 19.2202 185.013 18.0483 185.496 16.2727L183.486 15.9105C183.103 16.9403 182.179 17.4659 180.972 17.4659C179.154 17.4659 177.932 16.2869 177.875 14.1847H185.631V13.4318C185.631 9.49006 183.273 7.94886 180.801 7.94886C177.762 7.94886 175.759 10.2642 175.759 13.6165C175.759 17.0043 177.733 19.2202 180.951 19.2202ZM177.882 12.5938C177.968 11.0455 179.09 9.70312 180.816 9.70312C182.463 9.70312 183.543 10.9247 183.55 12.5938H177.882ZM187.987 19H190.111V12.3381C190.111 10.9105 191.212 9.88068 192.717 9.88068C193.158 9.88068 193.655 9.95881 193.825 10.0085V7.97727C193.612 7.94886 193.193 7.92756 192.923 7.92756C191.645 7.92756 190.551 8.65199 190.153 9.82386H190.04V8.09091H187.987V19Z" fill="black"/>
<path d="M1.59801 313.938H3.79261V308.825H6.77557C10.1491 308.825 11.8182 306.786 11.8182 304.102C11.8182 301.424 10.1634 299.393 6.78267 299.393H1.59801V313.938ZM3.79261 306.964V301.275H6.5483C8.72159 301.275 9.60938 302.454 9.60938 304.102C9.60938 305.75 8.72159 306.964 6.5767 306.964H3.79261ZM14.2205 313.938H16.3441V307.277C16.3441 305.849 17.445 304.819 18.9506 304.819C19.391 304.819 19.8881 304.897 20.0586 304.947V302.916C19.8455 302.887 19.4265 302.866 19.1566 302.866C17.8782 302.866 16.7844 303.59 16.3867 304.762H16.2731V303.029H14.2205V313.938ZM26.1009 314.159C29.1761 314.159 31.1861 311.907 31.1861 308.534C31.1861 305.139 29.1761 302.887 26.1009 302.887C23.0256 302.887 21.0156 305.139 21.0156 308.534C21.0156 311.907 23.0256 314.159 26.1009 314.159ZM26.108 312.376C24.098 312.376 23.1605 310.622 23.1605 308.527C23.1605 306.438 24.098 304.663 26.108 304.663C28.1037 304.663 29.0412 306.438 29.0412 308.527C29.0412 310.622 28.1037 312.376 26.108 312.376ZM33.7269 313.938H35.8008V312.241H35.9783C36.3619 312.937 37.1431 314.152 39.1317 314.152C41.7738 314.152 43.6914 312.035 43.6914 308.505C43.6914 304.968 41.7454 302.887 39.1104 302.887C37.0863 302.887 36.3548 304.123 35.9783 304.798H35.8505V299.393H33.7269V313.938ZM35.8079 308.484C35.8079 306.204 36.8022 304.691 38.6559 304.691C40.5806 304.691 41.5465 306.318 41.5465 308.484C41.5465 310.671 40.5522 312.34 38.6559 312.34C36.8306 312.34 35.8079 310.778 35.8079 308.484ZM48.1996 299.393H46.076V313.938H48.1996V299.393ZM55.7582 314.159C58.1374 314.159 59.8207 312.987 60.3036 311.211L58.2937 310.849C57.9102 311.879 56.9869 312.404 55.7795 312.404C53.9613 312.404 52.7397 311.225 52.6829 309.123H60.4386V308.37C60.4386 304.429 58.0806 302.887 55.609 302.887C52.5692 302.887 50.5664 305.203 50.5664 308.555C50.5664 311.943 52.5408 314.159 55.7582 314.159ZM52.69 307.532C52.7752 305.984 53.8974 304.642 55.6232 304.642C57.271 304.642 58.3505 305.863 58.3576 307.532H52.69ZM62.7947 313.938H64.9183V307.213C64.9183 305.742 65.9482 304.72 67.1555 304.72C68.3345 304.72 69.1513 305.501 69.1513 306.687V313.938H71.2678V306.985C71.2678 305.671 72.0703 304.72 73.4553 304.72C74.5774 304.72 75.5007 305.345 75.5007 306.822V313.938H77.6243V306.623C77.6243 304.13 76.2322 302.887 74.2578 302.887C72.6882 302.887 71.5092 303.64 70.9837 304.805H70.87C70.3942 303.612 69.3928 302.887 67.9368 302.887C66.495 302.887 65.4226 303.605 64.968 304.805H64.8331V303.029H62.7947V313.938Z" fill="black"/>
<path d="M934.914 303.214H937.031C936.967 300.884 934.907 299.194 931.952 299.194C929.033 299.194 926.796 300.863 926.796 303.37C926.796 305.394 928.245 306.581 930.582 307.213L932.3 307.681C933.856 308.093 935.056 308.605 935.056 309.897C935.056 311.318 933.7 312.255 931.832 312.255C930.141 312.255 928.735 311.502 928.607 309.919H926.406C926.548 312.554 928.586 314.18 931.846 314.18C935.262 314.18 937.229 312.383 937.229 309.919C937.229 307.298 934.893 306.282 933.046 305.828L931.626 305.458C930.489 305.167 928.977 304.634 928.984 303.242C928.984 302.007 930.113 301.09 931.903 301.09C933.572 301.09 934.758 301.872 934.914 303.214ZM944.277 314.159C947.352 314.159 949.362 311.907 949.362 308.534C949.362 305.139 947.352 302.887 944.277 302.887C941.201 302.887 939.191 305.139 939.191 308.534C939.191 311.907 941.201 314.159 944.277 314.159ZM944.284 312.376C942.274 312.376 941.336 310.622 941.336 308.527C941.336 306.438 942.274 304.663 944.284 304.663C946.279 304.663 947.217 306.438 947.217 308.527C947.217 310.622 946.279 312.376 944.284 312.376ZM953.856 299.393H951.732V313.938H953.856V299.393ZM963.623 309.414C963.63 311.268 962.252 312.149 961.059 312.149C959.745 312.149 958.836 311.197 958.836 309.713V303.029H956.713V309.968C956.713 312.674 958.197 314.081 960.292 314.081C961.933 314.081 963.048 313.214 963.552 312.049H963.666V313.938H965.754V303.029H963.623V309.414ZM973.7 303.029H971.462V300.416H969.339V303.029H967.741V304.734H969.339V311.176C969.332 313.157 970.844 314.116 972.521 314.081C973.195 314.073 973.65 313.946 973.898 313.853L973.515 312.099C973.373 312.127 973.11 312.191 972.769 312.191C972.08 312.191 971.462 311.964 971.462 310.735V304.734H973.7V303.029ZM976.049 313.938H978.172V303.029H976.049V313.938ZM977.121 301.346C977.853 301.346 978.463 300.778 978.463 300.082C978.463 299.386 977.853 298.811 977.121 298.811C976.382 298.811 975.779 299.386 975.779 300.082C975.779 300.778 976.382 301.346 977.121 301.346ZM985.624 314.159C988.7 314.159 990.71 311.907 990.71 308.534C990.71 305.139 988.7 302.887 985.624 302.887C982.549 302.887 980.539 305.139 980.539 308.534C980.539 311.907 982.549 314.159 985.624 314.159ZM985.631 312.376C983.621 312.376 982.684 310.622 982.684 308.527C982.684 306.438 983.621 304.663 985.631 304.663C987.627 304.663 988.565 306.438 988.565 308.527C988.565 310.622 987.627 312.376 985.631 312.376ZM995.203 307.461C995.203 305.721 996.269 304.727 997.746 304.727C999.188 304.727 1000.06 305.671 1000.06 307.255V313.938H1002.19V307C1002.19 304.301 1000.7 302.887 998.471 302.887C996.83 302.887 995.757 303.647 995.253 304.805H995.118V303.029H993.08V313.938H995.203V307.461Z" fill="black"/>
<path d="M313.306 19C317.738 19 320.302 16.2514 320.302 11.706C320.302 7.18182 317.738 4.45455 313.455 4.45455H308.597V19H313.306ZM310.792 17.0824V6.37216H313.32C316.502 6.37216 318.142 8.27557 318.142 11.706C318.142 15.1506 316.502 17.0824 313.185 17.0824H310.792ZM327.562 19.2202C329.941 19.2202 331.624 18.0483 332.107 16.2727L330.097 15.9105C329.714 16.9403 328.791 17.4659 327.583 17.4659C325.765 17.4659 324.543 16.2869 324.487 14.1847H332.242V13.4318C332.242 9.49006 329.884 7.94886 327.413 7.94886C324.373 7.94886 322.37 10.2642 322.37 13.6165C322.37 17.0043 324.345 19.2202 327.562 19.2202ZM324.494 12.5938C324.579 11.0455 325.701 9.70312 327.427 9.70312C329.075 9.70312 330.154 10.9247 330.161 12.5938H324.494ZM339.79 8.09091H337.439V7.1108C337.439 6.14489 337.837 5.61932 338.874 5.61932C339.314 5.61932 339.627 5.71875 339.826 5.78267L340.323 4.06392C340.025 3.95028 339.407 3.77273 338.547 3.77273C336.821 3.77273 335.309 4.78125 335.309 6.8267V8.09091H333.625V9.79545H335.309V19H337.439V9.79545H339.79V8.09091ZM341.981 19H344.105V8.09091H341.981V19ZM343.054 6.40767C343.785 6.40767 344.396 5.83949 344.396 5.14347C344.396 4.44744 343.785 3.87216 343.054 3.87216C342.315 3.87216 341.711 4.44744 341.711 5.14347C341.711 5.83949 342.315 6.40767 343.054 6.40767ZM349.085 12.5227C349.085 10.7827 350.151 9.78835 351.628 9.78835C353.07 9.78835 353.943 10.733 353.943 12.3168V19H356.067V12.0611C356.067 9.36222 354.582 7.94886 352.352 7.94886C350.712 7.94886 349.639 8.70881 349.135 9.86648H349V8.09091H346.962V19H349.085V12.5227ZM363.617 19.2202C365.996 19.2202 367.679 18.0483 368.162 16.2727L366.152 15.9105C365.769 16.9403 364.845 17.4659 363.638 17.4659C361.82 17.4659 360.598 16.2869 360.541 14.1847H368.297V13.4318C368.297 9.49006 365.939 7.94886 363.467 7.94886C360.428 7.94886 358.425 10.2642 358.425 13.6165C358.425 17.0043 360.399 19.2202 363.617 19.2202ZM360.548 12.5938C360.634 11.0455 361.756 9.70312 363.482 9.70312C365.129 9.70312 366.209 10.9247 366.216 12.5938H360.548Z" fill="black"/>
<path d="M311.563 41.4496H309.997V39.62H308.51V41.4496H307.392V42.6428H308.51V47.152C308.505 48.5391 309.564 49.2102 310.738 49.1854C311.21 49.1804 311.528 49.0909 311.702 49.0263L311.434 47.7983C311.334 47.8182 311.15 47.8629 310.912 47.8629C310.429 47.8629 309.997 47.7038 309.997 46.8438V42.6428H311.563V41.4496ZM314.858 44.5518C314.858 43.3338 315.628 42.6378 316.687 42.6378C317.712 42.6378 318.323 43.2891 318.323 44.4077V49.0859H319.81V44.2287C319.81 42.3246 318.766 41.3501 317.195 41.3501C316.006 41.3501 315.29 41.8672 314.932 42.6925H314.838V38.9041H313.371V49.0859H314.858V44.5518ZM325.084 49.2401C326.75 49.2401 327.928 48.4197 328.266 47.1768L326.859 46.9233C326.591 47.6442 325.945 48.0121 325.099 48.0121C323.827 48.0121 322.972 47.1868 322.932 45.7152H328.361V45.1882C328.361 42.429 326.71 41.3501 324.98 41.3501C322.852 41.3501 321.45 42.9709 321.45 45.3175C321.45 47.6889 322.832 49.2401 325.084 49.2401ZM322.937 44.6016C322.996 43.5178 323.782 42.5781 324.99 42.5781C326.143 42.5781 326.899 43.4332 326.904 44.6016H322.937ZM335.937 49.255C337.2 49.255 337.911 48.6136 338.195 48.0419H338.254V49.0859H339.706V44.0149C339.706 41.7926 337.956 41.3501 336.743 41.3501C335.361 41.3501 334.088 41.907 333.591 43.299L334.988 43.6172C335.207 43.0753 335.763 42.5533 336.763 42.5533C337.722 42.5533 338.214 43.0554 338.214 43.9205V43.9553C338.214 44.4972 337.658 44.4872 336.285 44.6463C334.839 44.8153 333.357 45.1932 333.357 46.9283C333.357 48.4297 334.486 49.255 335.937 49.255ZM336.261 48.0618C335.42 48.0618 334.814 47.6839 334.814 46.9482C334.814 46.1527 335.52 45.8693 336.38 45.755C336.862 45.6903 338.006 45.5611 338.219 45.3473V46.3317C338.219 47.2365 337.498 48.0618 336.261 48.0618ZM341.686 49.0859H343.172V44.4226C343.172 43.4233 343.943 42.7024 344.997 42.7024C345.305 42.7024 345.653 42.7571 345.772 42.7919V41.37C345.623 41.3501 345.33 41.3352 345.141 41.3352C344.246 41.3352 343.481 41.8423 343.202 42.6626H343.123V41.4496H341.686V49.0859ZM350.077 49.2401C351.742 49.2401 352.92 48.4197 353.258 47.1768L351.851 46.9233C351.583 47.6442 350.937 48.0121 350.092 48.0121C348.819 48.0121 347.964 47.1868 347.924 45.7152H353.353V45.1882C353.353 42.429 351.702 41.3501 349.972 41.3501C347.844 41.3501 346.442 42.9709 346.442 45.3175C346.442 47.6889 347.824 49.2401 350.077 49.2401ZM347.929 44.6016C347.989 43.5178 348.774 42.5781 349.982 42.5781C351.136 42.5781 351.891 43.4332 351.896 44.6016H347.929ZM357.225 49.255C358.487 49.255 359.198 48.6136 359.482 48.0419H359.541V49.0859H360.993V44.0149C360.993 41.7926 359.243 41.3501 358.03 41.3501C356.648 41.3501 355.375 41.907 354.878 43.299L356.275 43.6172C356.494 43.0753 357.051 42.5533 358.05 42.5533C359.009 42.5533 359.502 43.0554 359.502 43.9205V43.9553C359.502 44.4972 358.945 44.4872 357.573 44.6463C356.126 44.8153 354.644 45.1932 354.644 46.9283C354.644 48.4297 355.773 49.255 357.225 49.255ZM357.548 48.0618C356.707 48.0618 356.101 47.6839 356.101 46.9482C356.101 46.1527 356.807 45.8693 357.667 45.755C358.149 45.6903 359.293 45.5611 359.506 45.3473V46.3317C359.506 47.2365 358.786 48.0618 357.548 48.0618ZM370.243 41.4496H368.677V39.62H367.19V41.4496H366.071V42.6428H367.19V47.152C367.185 48.5391 368.244 49.2102 369.417 49.1854C369.89 49.1804 370.208 49.0909 370.382 49.0263L370.113 47.7983C370.014 47.8182 369.83 47.8629 369.591 47.8629C369.109 47.8629 368.677 47.7038 368.677 46.8438V42.6428H370.243V41.4496ZM375.022 49.2401C377.174 49.2401 378.581 47.6641 378.581 45.3026C378.581 42.9261 377.174 41.3501 375.022 41.3501C372.869 41.3501 371.462 42.9261 371.462 45.3026C371.462 47.6641 372.869 49.2401 375.022 49.2401ZM375.027 47.9922C373.62 47.9922 372.963 46.7642 372.963 45.2976C372.963 43.8359 373.62 42.593 375.027 42.593C376.424 42.593 377.08 43.8359 377.08 45.2976C377.08 46.7642 376.424 47.9922 375.027 47.9922ZM387.58 41.4496H385.934V40.7635C385.934 40.0874 386.213 39.7195 386.938 39.7195C387.247 39.7195 387.465 39.7891 387.605 39.8338L387.953 38.6307C387.744 38.5511 387.311 38.4268 386.71 38.4268C385.502 38.4268 384.443 39.1328 384.443 40.5646V41.4496H383.264V42.6428H384.443V49.0859H385.934V42.6428H387.58V41.4496ZM392.029 49.2401C394.182 49.2401 395.589 47.6641 395.589 45.3026C395.589 42.9261 394.182 41.3501 392.029 41.3501C389.877 41.3501 388.47 42.9261 388.47 45.3026C388.47 47.6641 389.877 49.2401 392.029 49.2401ZM392.034 47.9922C390.627 47.9922 389.971 46.7642 389.971 45.2976C389.971 43.8359 390.627 42.593 392.034 42.593C393.431 42.593 394.088 43.8359 394.088 45.2976C394.088 46.7642 393.431 47.9922 392.034 47.9922ZM400.465 49.2401C402.27 49.2401 403.438 48.1562 403.602 46.6697H402.155C401.966 47.495 401.325 47.9822 400.475 47.9822C399.217 47.9822 398.407 46.9332 398.407 45.2678C398.407 43.6321 399.232 42.603 400.475 42.603C401.419 42.603 401.996 43.1996 402.155 43.9155H403.602C403.443 42.3743 402.185 41.3501 400.45 41.3501C398.297 41.3501 396.905 42.9709 396.905 45.3026C396.905 47.6044 398.248 49.2401 400.465 49.2401ZM410.029 45.919C410.034 47.2166 409.07 47.8331 408.234 47.8331C407.315 47.8331 406.678 47.1669 406.678 46.1278V41.4496H405.192V46.3068C405.192 48.201 406.231 49.1854 407.697 49.1854C408.846 49.1854 409.626 48.5788 409.979 47.7635H410.059V49.0859H411.521V41.4496H410.029V45.919ZM419.24 43.3139C418.932 42.1257 418.002 41.3501 416.352 41.3501C414.627 41.3501 413.403 42.2599 413.403 43.6122C413.403 44.696 414.06 45.4169 415.492 45.7351L416.784 46.0185C417.52 46.1825 417.863 46.5107 417.863 46.9879C417.863 47.5795 417.232 48.0419 416.257 48.0419C415.367 48.0419 414.796 47.6591 414.617 46.9084L413.18 47.1271C413.428 48.4794 414.552 49.2401 416.267 49.2401C418.112 49.2401 419.389 48.2607 419.389 46.8786C419.389 45.7997 418.703 45.1335 417.301 44.8104L416.088 44.532C415.248 44.3331 414.885 44.0497 414.89 43.5327C414.885 42.946 415.521 42.5284 416.367 42.5284C417.291 42.5284 417.719 43.0405 417.893 43.5526L419.24 43.3139ZM429.566 45.919C429.571 47.2166 428.607 47.8331 427.771 47.8331C426.852 47.8331 426.215 47.1669 426.215 46.1278V41.4496H424.729V46.3068C424.729 48.201 425.768 49.1854 427.234 49.1854C428.383 49.1854 429.163 48.5788 429.516 47.7635H429.596V49.0859H431.058V41.4496H429.566V45.919ZM433.055 51.9496H434.541V47.8977H434.631C434.899 48.3849 435.446 49.2351 436.838 49.2351C438.688 49.2351 440.03 47.7536 440.03 45.2827C440.03 42.8068 438.668 41.3501 436.823 41.3501C435.407 41.3501 434.894 42.2152 434.631 42.6875H434.507V41.4496H433.055V51.9496ZM434.512 45.2678C434.512 43.6719 435.208 42.6129 436.505 42.6129C437.853 42.6129 438.529 43.7514 438.529 45.2678C438.529 46.799 437.833 47.9673 436.505 47.9673C435.228 47.9673 434.512 46.8736 434.512 45.2678ZM444.912 49.2401C447.065 49.2401 448.472 47.6641 448.472 45.3026C448.472 42.9261 447.065 41.3501 444.912 41.3501C442.759 41.3501 441.353 42.9261 441.353 45.3026C441.353 47.6641 442.759 49.2401 444.912 49.2401ZM444.917 47.9922C443.51 47.9922 442.854 46.7642 442.854 45.2976C442.854 43.8359 443.51 42.593 444.917 42.593C446.314 42.593 446.97 43.8359 446.97 45.2976C446.97 46.7642 446.314 47.9922 444.917 47.9922ZM451.618 44.5518C451.618 43.3338 452.363 42.6378 453.397 42.6378C454.407 42.6378 455.018 43.299 455.018 44.4077V49.0859H456.505V44.2287C456.505 42.3395 455.466 41.3501 453.905 41.3501C452.756 41.3501 452.005 41.8821 451.652 42.6925H451.558V41.4496H450.131V49.0859H451.618V44.5518Z" fill="black"/>
<path d="M515.048 19C519.48 19 522.044 16.2514 522.044 11.706C522.044 7.18182 519.48 4.45455 515.197 4.45455H510.339V19H515.048ZM512.534 17.0824V6.37216H515.062C518.244 6.37216 519.885 8.27557 519.885 11.706C519.885 15.1506 518.244 17.0824 514.927 17.0824H512.534ZM529.304 19.2202C531.683 19.2202 533.367 18.0483 533.85 16.2727L531.84 15.9105C531.456 16.9403 530.533 17.4659 529.325 17.4659C527.507 17.4659 526.286 16.2869 526.229 14.1847H533.984V13.4318C533.984 9.49006 531.627 7.94886 529.155 7.94886C526.115 7.94886 524.112 10.2642 524.112 13.6165C524.112 17.0043 526.087 19.2202 529.304 19.2202ZM526.236 12.5938C526.321 11.0455 527.443 9.70312 529.169 9.70312C530.817 9.70312 531.896 10.9247 531.903 12.5938H526.236ZM545.341 8.09091H543.061L540.305 16.4858H540.192L537.429 8.09091H535.149L539.112 19H541.385L545.341 8.09091ZM551.648 19.2202C554.027 19.2202 555.71 18.0483 556.193 16.2727L554.183 15.9105C553.8 16.9403 552.877 17.4659 551.669 17.4659C549.851 17.4659 548.629 16.2869 548.573 14.1847H556.328V13.4318C556.328 9.49006 553.97 7.94886 551.499 7.94886C548.459 7.94886 546.456 10.2642 546.456 13.6165C546.456 17.0043 548.43 19.2202 551.648 19.2202ZM548.58 12.5938C548.665 11.0455 549.787 9.70312 551.513 9.70312C553.161 9.70312 554.24 10.9247 554.247 12.5938H548.58ZM560.808 4.45455H558.684V19H560.808V4.45455ZM568.26 19.2202C571.335 19.2202 573.345 16.9688 573.345 13.5952C573.345 10.2003 571.335 7.94886 568.26 7.94886C565.185 7.94886 563.175 10.2003 563.175 13.5952C563.175 16.9688 565.185 19.2202 568.26 19.2202ZM568.267 17.4375C566.257 17.4375 565.32 15.6832 565.32 13.5881C565.32 11.5 566.257 9.72443 568.267 9.72443C570.263 9.72443 571.2 11.5 571.2 13.5881C571.2 15.6832 570.263 17.4375 568.267 17.4375ZM575.716 23.0909H577.839V17.3026H577.967C578.351 17.9986 579.132 19.2131 581.12 19.2131C583.763 19.2131 585.68 17.0966 585.68 13.5668C585.68 10.0298 583.734 7.94886 581.099 7.94886C579.075 7.94886 578.343 9.18466 577.967 9.85938H577.79V8.09091H575.716V23.0909ZM577.797 13.5455C577.797 11.2656 578.791 9.75284 580.645 9.75284C582.569 9.75284 583.535 11.3793 583.535 13.5455C583.535 15.733 582.541 17.402 580.645 17.402C578.819 17.402 577.797 15.8395 577.797 13.5455Z" fill="black"/>
<path d="M509.741 51.9496H511.227V47.8977H511.316C511.585 48.3849 512.132 49.2351 513.524 49.2351C515.373 49.2351 516.716 47.7536 516.716 45.2827C516.716 42.8068 515.353 41.3501 513.509 41.3501C512.092 41.3501 511.58 42.2152 511.316 42.6875H511.192V41.4496H509.741V51.9496ZM511.197 45.2678C511.197 43.6719 511.893 42.6129 513.191 42.6129C514.538 42.6129 515.214 43.7514 515.214 45.2678C515.214 46.799 514.518 47.9673 513.191 47.9673C511.913 47.9673 511.197 46.8736 511.197 45.2678ZM521.598 49.2401C523.75 49.2401 525.157 47.6641 525.157 45.3026C525.157 42.9261 523.75 41.3501 521.598 41.3501C519.445 41.3501 518.038 42.9261 518.038 45.3026C518.038 47.6641 519.445 49.2401 521.598 49.2401ZM521.603 47.9922C520.196 47.9922 519.54 46.7642 519.54 45.2976C519.54 43.8359 520.196 42.593 521.603 42.593C523 42.593 523.656 43.8359 523.656 45.2976C523.656 46.7642 523 47.9922 521.603 47.9922ZM530.381 41.4496H528.815V39.62H527.329V41.4496H526.21V42.6428H527.329V47.152C527.324 48.5391 528.383 49.2102 529.556 49.1854C530.028 49.1804 530.347 49.0909 530.521 49.0263L530.252 47.7983C530.153 47.8182 529.969 47.8629 529.73 47.8629C529.248 47.8629 528.815 47.7038 528.815 46.8438V42.6428H530.381V41.4496ZM535.235 49.2401C536.9 49.2401 538.079 48.4197 538.417 47.1768L537.01 46.9233C536.741 47.6442 536.095 48.0121 535.25 48.0121C533.977 48.0121 533.122 47.1868 533.082 45.7152H538.511V45.1882C538.511 42.429 536.861 41.3501 535.13 41.3501C533.003 41.3501 531.601 42.9709 531.601 45.3175C531.601 47.6889 532.983 49.2401 535.235 49.2401ZM533.087 44.6016C533.147 43.5178 533.932 42.5781 535.14 42.5781C536.294 42.5781 537.049 43.4332 537.054 44.6016H533.087ZM541.647 44.5518C541.647 43.3338 542.393 42.6378 543.427 42.6378C544.436 42.6378 545.047 43.299 545.047 44.4077V49.0859H546.534V44.2287C546.534 42.3395 545.495 41.3501 543.934 41.3501C542.785 41.3501 542.035 41.8821 541.682 42.6925H541.587V41.4496H540.16V49.0859H541.647V44.5518ZM552.092 41.4496H550.526V39.62H549.04V41.4496H547.921V42.6428H549.04V47.152C549.035 48.5391 550.094 49.2102 551.267 49.1854C551.739 49.1804 552.057 49.0909 552.231 49.0263L551.963 47.7983C551.864 47.8182 551.68 47.8629 551.441 47.8629C550.959 47.8629 550.526 47.7038 550.526 46.8438V42.6428H552.092V41.4496ZM553.737 49.0859H555.223V41.4496H553.737V49.0859ZM554.487 40.2713C554.999 40.2713 555.427 39.8736 555.427 39.3864C555.427 38.8991 554.999 38.4964 554.487 38.4964C553.97 38.4964 553.548 38.8991 553.548 39.3864C553.548 39.8736 553.97 40.2713 554.487 40.2713ZM559.445 49.255C560.708 49.255 561.419 48.6136 561.702 48.0419H561.762V49.0859H563.214V44.0149C563.214 41.7926 561.464 41.3501 560.251 41.3501C558.869 41.3501 557.596 41.907 557.099 43.299L558.496 43.6172C558.714 43.0753 559.271 42.5533 560.271 42.5533C561.23 42.5533 561.722 43.0554 561.722 43.9205V43.9553C561.722 44.4972 561.165 44.4872 559.793 44.6463C558.347 44.8153 556.865 45.1932 556.865 46.9283C556.865 48.4297 557.994 49.255 559.445 49.255ZM559.768 48.0618C558.928 48.0618 558.322 47.6839 558.322 46.9482C558.322 46.1527 559.028 45.8693 559.888 45.755C560.37 45.6903 561.513 45.5611 561.727 45.3473V46.3317C561.727 47.2365 561.006 48.0618 559.768 48.0618ZM566.68 38.9041H565.194V49.0859H566.68V38.9041ZM578.107 43.3139C577.799 42.1257 576.869 41.3501 575.219 41.3501C573.494 41.3501 572.271 42.2599 572.271 43.6122C572.271 44.696 572.927 45.4169 574.359 45.7351L575.651 46.0185C576.387 46.1825 576.73 46.5107 576.73 46.9879C576.73 47.5795 576.099 48.0419 575.124 48.0419C574.234 48.0419 573.663 47.6591 573.484 46.9084L572.047 47.1271C572.296 48.4794 573.419 49.2401 575.134 49.2401C576.979 49.2401 578.256 48.2607 578.256 46.8786C578.256 45.7997 577.57 45.1335 576.168 44.8104L574.955 44.532C574.115 44.3331 573.752 44.0497 573.757 43.5327C573.752 42.946 574.389 42.5284 575.234 42.5284C576.158 42.5284 576.586 43.0405 576.76 43.5526L578.107 43.3139ZM583.108 49.2401C585.26 49.2401 586.667 47.6641 586.667 45.3026C586.667 42.9261 585.26 41.3501 583.108 41.3501C580.955 41.3501 579.548 42.9261 579.548 45.3026C579.548 47.6641 580.955 49.2401 583.108 49.2401ZM583.112 47.9922C581.706 47.9922 581.049 46.7642 581.049 45.2976C581.049 43.8359 581.706 42.593 583.112 42.593C584.509 42.593 585.166 43.8359 585.166 45.2976C585.166 46.7642 584.509 47.9922 583.112 47.9922ZM589.813 38.9041H588.326V49.0859H589.813V38.9041ZM596.65 45.919C596.655 47.2166 595.691 47.8331 594.855 47.8331C593.936 47.8331 593.299 47.1669 593.299 46.1278V41.4496H591.813V46.3068C591.813 48.201 592.852 49.1854 594.318 49.1854C595.467 49.1854 596.247 48.5788 596.6 47.7635H596.68V49.0859H598.142V41.4496H596.65V45.919ZM603.704 41.4496H602.138V39.62H600.651V41.4496H599.532V42.6428H600.651V47.152C600.646 48.5391 601.705 49.2102 602.878 49.1854C603.351 49.1804 603.669 49.0909 603.843 49.0263L603.574 47.7983C603.475 47.8182 603.291 47.8629 603.052 47.8629C602.57 47.8629 602.138 47.7038 602.138 46.8438V42.6428H603.704V41.4496ZM605.348 49.0859H606.834V41.4496H605.348V49.0859ZM606.099 40.2713C606.611 40.2713 607.038 39.8736 607.038 39.3864C607.038 38.8991 606.611 38.4964 606.099 38.4964C605.582 38.4964 605.159 38.8991 605.159 39.3864C605.159 39.8736 605.582 40.2713 606.099 40.2713ZM612.051 49.2401C614.204 49.2401 615.611 47.6641 615.611 45.3026C615.611 42.9261 614.204 41.3501 612.051 41.3501C609.898 41.3501 608.491 42.9261 608.491 45.3026C608.491 47.6641 609.898 49.2401 612.051 49.2401ZM612.056 47.9922C610.649 47.9922 609.993 46.7642 609.993 45.2976C609.993 43.8359 610.649 42.593 612.056 42.593C613.453 42.593 614.109 43.8359 614.109 45.2976C614.109 46.7642 613.453 47.9922 612.056 47.9922ZM618.756 44.5518C618.756 43.3338 619.502 42.6378 620.536 42.6378C621.545 42.6378 622.157 43.299 622.157 44.4077V49.0859H623.643V44.2287C623.643 42.3395 622.604 41.3501 621.043 41.3501C619.895 41.3501 619.144 41.8821 618.791 42.6925H618.697V41.4496H617.27V49.0859H618.756V44.5518ZM631.359 43.3139C631.051 42.1257 630.121 41.3501 628.471 41.3501C626.746 41.3501 625.523 42.2599 625.523 43.6122C625.523 44.696 626.179 45.4169 627.611 45.7351L628.903 46.0185C629.639 46.1825 629.982 46.5107 629.982 46.9879C629.982 47.5795 629.351 48.0419 628.376 48.0419C627.486 48.0419 626.915 47.6591 626.736 46.9084L625.299 47.1271C625.547 48.4794 626.671 49.2401 628.386 49.2401C630.231 49.2401 631.508 48.2607 631.508 46.8786C631.508 45.7997 630.822 45.1335 629.42 44.8104L628.207 44.532C627.367 44.3331 627.004 44.0497 627.009 43.5327C627.004 42.946 627.641 42.5284 628.486 42.5284C629.41 42.5284 629.838 43.0405 630.012 43.5526L631.359 43.3139Z" fill="black"/>
<path d="M716.79 19C721.222 19 723.786 16.2514 723.786 11.706C723.786 7.18182 721.222 4.45455 716.939 4.45455H712.081V19H716.79ZM714.276 17.0824V6.37216H716.804C719.986 6.37216 721.627 8.27557 721.627 11.706C721.627 15.1506 719.986 17.0824 716.669 17.0824H714.276ZM731.046 19.2202C733.426 19.2202 735.109 18.0483 735.592 16.2727L733.582 15.9105C733.198 16.9403 732.275 17.4659 731.068 17.4659C729.249 17.4659 728.028 16.2869 727.971 14.1847H735.727V13.4318C735.727 9.49006 733.369 7.94886 730.897 7.94886C727.857 7.94886 725.854 10.2642 725.854 13.6165C725.854 17.0043 727.829 19.2202 731.046 19.2202ZM727.978 12.5938C728.063 11.0455 729.185 9.70312 730.911 9.70312C732.559 9.70312 733.639 10.9247 733.646 12.5938H727.978ZM740.206 4.45455H738.083V19H740.206V4.45455ZM743.063 19H745.187V8.09091H743.063V19ZM744.136 6.40767C744.867 6.40767 745.478 5.83949 745.478 5.14347C745.478 4.44744 744.867 3.87216 744.136 3.87216C743.397 3.87216 742.793 4.44744 742.793 5.14347C742.793 5.83949 743.397 6.40767 744.136 6.40767ZM757.376 8.09091H755.096L752.341 16.4858H752.227L749.464 8.09091H747.184L751.147 19H753.42L757.376 8.09091ZM763.683 19.2202C766.062 19.2202 767.745 18.0483 768.228 16.2727L766.218 15.9105C765.835 16.9403 764.912 17.4659 763.704 17.4659C761.886 17.4659 760.665 16.2869 760.608 14.1847H768.363V13.4318C768.363 9.49006 766.005 7.94886 763.534 7.94886C760.494 7.94886 758.491 10.2642 758.491 13.6165C758.491 17.0043 760.466 19.2202 763.683 19.2202ZM760.615 12.5938C760.7 11.0455 761.822 9.70312 763.548 9.70312C765.196 9.70312 766.275 10.9247 766.282 12.5938H760.615ZM770.72 19H772.843V12.3381C772.843 10.9105 773.944 9.88068 775.45 9.88068C775.89 9.88068 776.387 9.95881 776.558 10.0085V7.97727C776.345 7.94886 775.926 7.92756 775.656 7.92756C774.377 7.92756 773.283 8.65199 772.886 9.82386H772.772V8.09091H770.72V19Z" fill="black"/>
<path d="M717.205 43.3139C716.897 42.1257 715.967 41.3501 714.316 41.3501C712.591 41.3501 711.368 42.2599 711.368 43.6122C711.368 44.696 712.025 45.4169 713.456 45.7351L714.749 46.0185C715.485 46.1825 715.828 46.5107 715.828 46.9879C715.828 47.5795 715.196 48.0419 714.222 48.0419C713.332 48.0419 712.76 47.6591 712.581 46.9084L711.145 47.1271C711.393 48.4794 712.517 49.2401 714.232 49.2401C716.076 49.2401 717.354 48.2607 717.354 46.8786C717.354 45.7997 716.668 45.1335 715.266 44.8104L714.053 44.532C713.213 44.3331 712.85 44.0497 712.855 43.5327C712.85 42.946 713.486 42.5284 714.331 42.5284C715.256 42.5284 715.684 43.0405 715.858 43.5526L717.205 43.3139ZM722.205 49.2401C724.358 49.2401 725.765 47.6641 725.765 45.3026C725.765 42.9261 724.358 41.3501 722.205 41.3501C720.052 41.3501 718.646 42.9261 718.646 45.3026C718.646 47.6641 720.052 49.2401 722.205 49.2401ZM722.21 47.9922C720.803 47.9922 720.147 46.7642 720.147 45.2976C720.147 43.8359 720.803 42.593 722.21 42.593C723.607 42.593 724.263 43.8359 724.263 45.2976C724.263 46.7642 723.607 47.9922 722.21 47.9922ZM728.911 38.9041H727.424V49.0859H728.911V38.9041ZM735.748 45.919C735.753 47.2166 734.788 47.8331 733.953 47.8331C733.033 47.8331 732.397 47.1669 732.397 46.1278V41.4496H730.91V46.3068C730.91 48.201 731.949 49.1854 733.416 49.1854C734.565 49.1854 735.345 48.5788 735.698 47.7635H735.778V49.0859H737.239V41.4496H735.748V45.919ZM742.801 41.4496H741.235V39.62H739.749V41.4496H738.63V42.6428H739.749V47.152C739.744 48.5391 740.803 49.2102 741.976 49.1854C742.448 49.1804 742.766 49.0909 742.94 49.0263L742.672 47.7983C742.573 47.8182 742.389 47.8629 742.15 47.8629C741.668 47.8629 741.235 47.7038 741.235 46.8438V42.6428H742.801V41.4496ZM744.446 49.0859H745.932V41.4496H744.446V49.0859ZM745.196 40.2713C745.708 40.2713 746.136 39.8736 746.136 39.3864C746.136 38.8991 745.708 38.4964 745.196 38.4964C744.679 38.4964 744.257 38.8991 744.257 39.3864C744.257 39.8736 744.679 40.2713 745.196 40.2713ZM751.149 49.2401C753.301 49.2401 754.708 47.6641 754.708 45.3026C754.708 42.9261 753.301 41.3501 751.149 41.3501C748.996 41.3501 747.589 42.9261 747.589 45.3026C747.589 47.6641 748.996 49.2401 751.149 49.2401ZM751.153 47.9922C749.747 47.9922 749.09 46.7642 749.09 45.2976C749.09 43.8359 749.747 42.593 751.153 42.593C752.551 42.593 753.207 43.8359 753.207 45.2976C753.207 46.7642 752.551 47.9922 751.153 47.9922ZM757.854 44.5518C757.854 43.3338 758.6 42.6378 759.634 42.6378C760.643 42.6378 761.255 43.299 761.255 44.4077V49.0859H762.741V44.2287C762.741 42.3395 761.702 41.3501 760.141 41.3501C758.992 41.3501 758.242 41.8821 757.889 42.6925H757.794V41.4496H756.367V49.0859H757.854V44.5518ZM770.457 43.3139C770.149 42.1257 769.219 41.3501 767.568 41.3501C765.843 41.3501 764.62 42.2599 764.62 43.6122C764.62 44.696 765.277 45.4169 766.708 45.7351L768.001 46.0185C768.737 46.1825 769.08 46.5107 769.08 46.9879C769.08 47.5795 768.448 48.0419 767.474 48.0419C766.584 48.0419 766.012 47.6591 765.833 46.9084L764.397 47.1271C764.645 48.4794 765.769 49.2401 767.484 49.2401C769.328 49.2401 770.606 48.2607 770.606 46.8786C770.606 45.7997 769.92 45.1335 768.518 44.8104L767.305 44.532C766.465 44.3331 766.102 44.0497 766.107 43.5327C766.102 42.946 766.738 42.5284 767.583 42.5284C768.508 42.5284 768.936 43.0405 769.11 43.5526L770.457 43.3139ZM779.51 41.4496H777.944V39.62H776.458V41.4496H775.339V42.6428H776.458V47.152C776.453 48.5391 777.512 49.2102 778.685 49.1854C779.157 49.1804 779.475 49.0909 779.649 49.0263L779.381 47.7983C779.282 47.8182 779.098 47.8629 778.859 47.8629C778.377 47.8629 777.944 47.7038 777.944 46.8438V42.6428H779.51V41.4496ZM782.805 44.5518C782.805 43.3338 783.576 42.6378 784.635 42.6378C785.659 42.6378 786.27 43.2891 786.27 44.4077V49.0859H787.757V44.2287C787.757 42.3246 786.713 41.3501 785.142 41.3501C783.954 41.3501 783.238 41.8672 782.88 42.6925H782.785V38.9041H781.319V49.0859H782.805V44.5518ZM791.963 49.255C793.226 49.255 793.937 48.6136 794.22 48.0419H794.28V49.0859H795.731V44.0149C795.731 41.7926 793.981 41.3501 792.768 41.3501C791.386 41.3501 790.113 41.907 789.616 43.299L791.013 43.6172C791.232 43.0753 791.789 42.5533 792.788 42.5533C793.748 42.5533 794.24 43.0554 794.24 43.9205V43.9553C794.24 44.4972 793.683 44.4872 792.311 44.6463C790.864 44.8153 789.383 45.1932 789.383 46.9283C789.383 48.4297 790.511 49.255 791.963 49.255ZM792.286 48.0618C791.446 48.0618 790.839 47.6839 790.839 46.9482C790.839 46.1527 791.545 45.8693 792.405 45.755C792.888 45.6903 794.031 45.5611 794.245 45.3473V46.3317C794.245 47.2365 793.524 48.0618 792.286 48.0618ZM801.276 41.4496H799.71V39.62H798.223V41.4496H797.105V42.6428H798.223V47.152C798.218 48.5391 799.277 49.2102 800.451 49.1854C800.923 49.1804 801.241 49.0909 801.415 49.0263L801.147 47.7983C801.047 47.8182 800.863 47.8629 800.625 47.8629C800.142 47.8629 799.71 47.7038 799.71 46.8438V42.6428H801.276V41.4496ZM808.281 49.0859H809.792L811.343 43.5724H811.458L813.009 49.0859H814.525L816.767 41.4496H815.231L813.745 47.0327H813.67L812.179 41.4496H810.642L809.141 47.0575H809.066L807.57 41.4496H806.034L808.281 49.0859ZM821.162 49.2401C823.315 49.2401 824.722 47.6641 824.722 45.3026C824.722 42.9261 823.315 41.3501 821.162 41.3501C819.009 41.3501 817.603 42.9261 817.603 45.3026C817.603 47.6641 819.009 49.2401 821.162 49.2401ZM821.167 47.9922C819.76 47.9922 819.104 46.7642 819.104 45.2976C819.104 43.8359 819.76 42.593 821.167 42.593C822.564 42.593 823.22 43.8359 823.22 45.2976C823.22 46.7642 822.564 47.9922 821.167 47.9922ZM826.381 49.0859H827.868V44.4226C827.868 43.4233 828.638 42.7024 829.692 42.7024C830 42.7024 830.348 42.7571 830.468 42.7919V41.37C830.319 41.3501 830.025 41.3352 829.836 41.3352C828.941 41.3352 828.176 41.8423 827.897 42.6626H827.818V41.4496H826.381V49.0859ZM831.754 49.0859H833.241V46.3764L833.981 45.6357L836.577 49.0859H838.401L835.1 44.7259L838.192 41.4496H836.413L833.37 44.6811H833.241V38.9041H831.754V49.0859Z" fill="black"/>
<path d="M111.739 49.0859H113.225V41.4496H111.739V49.0859ZM112.489 40.2713C113.001 40.2713 113.429 39.8736 113.429 39.3864C113.429 38.8991 113.001 38.4964 112.489 38.4964C111.972 38.4964 111.55 38.8991 111.55 39.3864C111.55 39.8736 111.972 40.2713 112.489 40.2713ZM116.711 44.5518C116.711 43.3338 117.457 42.6378 118.491 42.6378C119.5 42.6378 120.112 43.299 120.112 44.4077V49.0859H121.598V44.2287C121.598 42.3395 120.559 41.3501 118.998 41.3501C117.85 41.3501 117.099 41.8821 116.746 42.6925H116.652V41.4496H115.225V49.0859H116.711V44.5518ZM129.314 43.3139C129.006 42.1257 128.076 41.3501 126.426 41.3501C124.701 41.3501 123.478 42.2599 123.478 43.6122C123.478 44.696 124.134 45.4169 125.566 45.7351L126.858 46.0185C127.594 46.1825 127.937 46.5107 127.937 46.9879C127.937 47.5795 127.306 48.0419 126.331 48.0419C125.441 48.0419 124.87 47.6591 124.691 46.9084L123.254 47.1271C123.503 48.4794 124.626 49.2401 126.341 49.2401C128.186 49.2401 129.464 48.2607 129.464 46.8786C129.464 45.7997 128.777 45.1335 127.375 44.8104L126.162 44.532C125.322 44.3331 124.959 44.0497 124.964 43.5327C124.959 42.946 125.596 42.5284 126.441 42.5284C127.366 42.5284 127.793 43.0405 127.967 43.5526L129.314 43.3139ZM131.098 49.0859H132.584V41.4496H131.098V49.0859ZM131.849 40.2713C132.361 40.2713 132.788 39.8736 132.788 39.3864C132.788 38.8991 132.361 38.4964 131.849 38.4964C131.332 38.4964 130.909 38.8991 130.909 39.3864C130.909 39.8736 131.332 40.2713 131.849 40.2713ZM137.786 52.1087C139.73 52.1087 141.231 51.2188 141.231 49.255V41.4496H139.775V42.6875H139.665C139.402 42.2152 138.875 41.3501 137.453 41.3501C135.608 41.3501 134.251 42.8068 134.251 45.2379C134.251 47.674 135.638 48.9716 137.443 48.9716C138.845 48.9716 139.387 48.1811 139.655 47.6939H139.75V49.1953C139.75 50.3935 138.929 50.9105 137.801 50.9105C136.563 50.9105 136.081 50.2891 135.817 49.8516L134.54 50.3786C134.942 51.3132 135.961 52.1087 137.786 52.1087ZM137.771 47.7386C136.444 47.7386 135.753 46.7195 135.753 45.218C135.753 43.7514 136.429 42.6129 137.771 42.6129C139.069 42.6129 139.765 43.6719 139.765 45.218C139.765 46.794 139.054 47.7386 137.771 47.7386ZM144.711 44.5518C144.711 43.3338 145.482 42.6378 146.541 42.6378C147.565 42.6378 148.177 43.2891 148.177 44.4077V49.0859H149.663V44.2287C149.663 42.3246 148.619 41.3501 147.048 41.3501C145.86 41.3501 145.144 41.8672 144.786 42.6925H144.691V38.9041H143.225V49.0859H144.711V44.5518ZM155.211 41.4496H153.645V39.62H152.159V41.4496H151.04V42.6428H152.159V47.152C152.154 48.5391 153.213 49.2102 154.386 49.1854C154.858 49.1804 155.177 49.0909 155.351 49.0263L155.082 47.7983C154.983 47.8182 154.799 47.8629 154.56 47.8629C154.078 47.8629 153.645 47.7038 153.645 46.8438V42.6428H155.211V41.4496ZM160.561 49.0859H162.047V41.4496H160.561V49.0859ZM161.312 40.2713C161.824 40.2713 162.251 39.8736 162.251 39.3864C162.251 38.8991 161.824 38.4964 161.312 38.4964C160.794 38.4964 160.372 38.8991 160.372 39.3864C160.372 39.8736 160.794 40.2713 161.312 40.2713ZM165.534 44.5518C165.534 43.3338 166.279 42.6378 167.313 42.6378C168.323 42.6378 168.934 43.299 168.934 44.4077V49.0859H170.421V44.2287C170.421 42.3395 169.382 41.3501 167.821 41.3501C166.672 41.3501 165.921 41.8821 165.568 42.6925H165.474V41.4496H164.047V49.0859H165.534V44.5518ZM175.979 41.4496H174.413V39.62H172.926V41.4496H171.808V42.6428H172.926V47.152C172.921 48.5391 173.98 49.2102 175.154 49.1854C175.626 49.1804 175.944 49.0909 176.118 49.0263L175.85 47.7983C175.75 47.8182 175.566 47.8629 175.328 47.8629C174.845 47.8629 174.413 47.7038 174.413 46.8438V42.6428H175.979V41.4496ZM180.758 49.2401C182.911 49.2401 184.318 47.6641 184.318 45.3026C184.318 42.9261 182.911 41.3501 180.758 41.3501C178.605 41.3501 177.198 42.9261 177.198 45.3026C177.198 47.6641 178.605 49.2401 180.758 49.2401ZM180.763 47.9922C179.356 47.9922 178.7 46.7642 178.7 45.2976C178.7 43.8359 179.356 42.593 180.763 42.593C182.16 42.593 182.816 43.8359 182.816 45.2976C182.816 46.7642 182.16 47.9922 180.763 47.9922ZM193.247 41.4496H191.68V39.62H190.194V41.4496H189.075V42.6428H190.194V47.152C190.189 48.5391 191.248 49.2102 192.421 49.1854C192.894 49.1804 193.212 49.0909 193.386 49.0263L193.117 47.7983C193.018 47.8182 192.834 47.8629 192.595 47.8629C192.113 47.8629 191.68 47.7038 191.68 46.8438V42.6428H193.247V41.4496ZM196.541 44.5518C196.541 43.3338 197.312 42.6378 198.371 42.6378C199.395 42.6378 200.007 43.2891 200.007 44.4077V49.0859H201.493V44.2287C201.493 42.3246 200.449 41.3501 198.878 41.3501C197.69 41.3501 196.974 41.8672 196.616 42.6925H196.522V38.9041H195.055V49.0859H196.541V44.5518ZM206.768 49.2401C208.434 49.2401 209.612 48.4197 209.95 47.1768L208.543 46.9233C208.274 47.6442 207.628 48.0121 206.783 48.0121C205.51 48.0121 204.655 47.1868 204.615 45.7152H210.044V45.1882C210.044 42.429 208.394 41.3501 206.664 41.3501C204.536 41.3501 203.134 42.9709 203.134 45.3175C203.134 47.6889 204.516 49.2401 206.768 49.2401ZM204.62 44.6016C204.68 43.5178 205.465 42.5781 206.674 42.5781C207.827 42.5781 208.583 43.4332 208.588 44.6016H204.62ZM215.399 51.9496H216.885V47.8977H216.975C217.243 48.3849 217.79 49.2351 219.182 49.2351C221.032 49.2351 222.374 47.7536 222.374 45.2827C222.374 42.8068 221.012 41.3501 219.167 41.3501C217.75 41.3501 217.238 42.2152 216.975 42.6875H216.85V41.4496H215.399V51.9496ZM216.855 45.2678C216.855 43.6719 217.551 42.6129 218.849 42.6129C220.196 42.6129 220.872 43.7514 220.872 45.2678C220.872 46.799 220.176 47.9673 218.849 47.9673C217.571 47.9673 216.855 46.8736 216.855 45.2678ZM224.039 49.0859H225.526V44.4226C225.526 43.4233 226.296 42.7024 227.35 42.7024C227.659 42.7024 228.007 42.7571 228.126 42.7919V41.37C227.977 41.3501 227.684 41.3352 227.495 41.3352C226.6 41.3352 225.834 41.8423 225.556 42.6626H225.476V41.4496H224.039V49.0859ZM232.356 49.2401C234.508 49.2401 235.915 47.6641 235.915 45.3026C235.915 42.9261 234.508 41.3501 232.356 41.3501C230.203 41.3501 228.796 42.9261 228.796 45.3026C228.796 47.6641 230.203 49.2401 232.356 49.2401ZM232.361 47.9922C230.954 47.9922 230.297 46.7642 230.297 45.2976C230.297 43.8359 230.954 42.593 232.361 42.593C233.758 42.593 234.414 43.8359 234.414 45.2976C234.414 46.7642 233.758 47.9922 232.361 47.9922ZM237.694 49.0859H239.146V47.8977H239.27C239.538 48.3849 240.085 49.2351 241.477 49.2351C243.327 49.2351 244.669 47.7536 244.669 45.2827C244.669 42.8068 243.307 41.3501 241.462 41.3501C240.045 41.3501 239.533 42.2152 239.27 42.6875H239.18V38.9041H237.694V49.0859ZM239.15 45.2678C239.15 43.6719 239.847 42.6129 241.144 42.6129C242.491 42.6129 243.168 43.7514 243.168 45.2678C243.168 46.799 242.472 47.9673 241.144 47.9673C239.866 47.9673 239.15 46.8736 239.15 45.2678ZM247.825 38.9041H246.338V49.0859H247.825V38.9041ZM253.116 49.2401C254.781 49.2401 255.959 48.4197 256.297 47.1768L254.891 46.9233C254.622 47.6442 253.976 48.0121 253.131 48.0121C251.858 48.0121 251.003 47.1868 250.963 45.7152H256.392V45.1882C256.392 42.429 254.741 41.3501 253.011 41.3501C250.883 41.3501 249.481 42.9709 249.481 45.3175C249.481 47.6889 250.864 49.2401 253.116 49.2401ZM250.968 44.6016C251.028 43.5178 251.813 42.5781 253.021 42.5781C254.175 42.5781 254.93 43.4332 254.935 44.6016H250.968ZM258.041 49.0859H259.528V44.3778C259.528 43.3487 260.249 42.6328 261.094 42.6328C261.919 42.6328 262.491 43.1797 262.491 44.0099V49.0859H263.972V44.2188C263.972 43.299 264.534 42.6328 265.504 42.6328C266.289 42.6328 266.935 43.0703 266.935 44.1044V49.0859H268.422V43.9652C268.422 42.2202 267.448 41.3501 266.065 41.3501C264.967 41.3501 264.141 41.8771 263.774 42.6925H263.694C263.361 41.8572 262.66 41.3501 261.641 41.3501C260.631 41.3501 259.881 41.8523 259.563 42.6925H259.468V41.4496H258.041V49.0859Z" fill="black"/>
<rect x="475.849" y="167" width="55.9177" height="297.131" rx="27.9588" fill="#A4B5CE"/>
<path d="M510.198 412.736V409.661H505.482V407.075C505.482 403.73 503.487 401.784 500.582 401.784C497.691 401.784 495.653 403.695 495.653 406.997V412.736H510.198ZM503.018 409.661H498.167V407.587C498.167 405.811 499.133 404.952 500.582 404.952C502.024 404.952 503.018 405.811 503.018 407.572V409.661ZM510.198 399.843V396.818H504.026C502.684 396.818 501.761 395.838 501.761 394.502C501.761 394.083 501.832 393.508 501.924 393.224H499.239C499.176 393.494 499.133 393.87 499.133 394.176C499.133 395.397 499.843 396.399 501.193 396.797V396.91H499.289V399.843H510.198ZM510.411 387.239C510.411 383.929 508.146 381.869 504.786 381.869C501.406 381.869 499.147 383.929 499.147 387.239C499.147 390.548 501.406 392.608 504.786 392.608C508.146 392.608 510.411 390.548 510.411 387.239ZM508.068 387.224C508.068 388.751 506.668 389.533 504.765 389.533C502.862 389.533 501.455 388.751 501.455 387.224C501.455 385.726 502.862 384.945 504.765 384.945C506.668 384.945 508.068 385.726 508.068 387.224ZM510.198 379.845V376.862H508.451V376.727C509.36 376.308 510.376 375.392 510.376 373.631C510.376 371.145 508.408 369.206 504.758 369.206C501.008 369.206 499.147 371.23 499.147 373.624C499.147 375.449 500.234 376.322 501.122 376.727V376.82H495.653V379.845H510.198ZM504.744 376.884C502.798 376.884 501.555 376.06 501.555 374.589C501.555 373.091 502.854 372.295 504.744 372.295C506.647 372.295 507.968 373.105 507.968 374.589C507.968 376.045 506.69 376.884 504.744 376.884ZM495.653 364.162V367.187H510.198V364.162H495.653ZM510.411 356.766C510.411 354.067 509.097 352.249 507.073 351.823L506.889 354.621C507.72 354.927 508.153 355.708 508.153 356.717C508.153 358.229 507.151 359.188 505.525 359.188H505.518V351.759H504.687C500.979 351.759 499.147 354.004 499.147 356.887C499.147 360.097 501.427 362.178 504.793 362.178C508.252 362.178 510.411 360.126 510.411 356.766ZM503.643 359.188C502.4 359.124 501.406 358.18 501.406 356.837C501.406 355.523 502.343 354.614 503.643 354.607V359.188ZM510.198 349.785V346.759H503.65C502.443 346.759 501.64 345.992 501.64 344.984C501.64 343.989 502.322 343.322 503.394 343.322H510.198V340.388H503.536C502.407 340.388 501.64 339.742 501.64 338.641C501.64 337.675 502.244 336.951 503.458 336.951H510.198V333.933H502.862C500.497 333.933 499.147 335.339 499.147 337.37C499.147 338.968 499.964 340.211 501.214 340.658V340.772C499.95 341.12 499.147 342.235 499.147 343.734C499.147 345.204 499.928 346.319 501.214 346.773V346.901H499.289V349.785H510.198ZM510.376 322.894C510.376 321.132 509.36 320.216 508.451 319.797V319.669H510.198V316.686H495.653L495.653 319.705H501.122V319.797C500.234 320.202 499.147 321.076 499.147 322.901C499.147 325.294 501.008 327.319 504.758 327.319C508.408 327.319 510.376 325.38 510.376 322.894ZM507.968 321.935C507.968 323.419 506.647 324.229 504.744 324.229C502.854 324.229 501.555 323.434 501.555 321.935C501.555 320.465 502.798 319.641 504.744 319.641C506.69 319.641 507.968 320.479 507.968 321.935ZM510.411 309.227C510.411 306.528 509.097 304.71 507.073 304.284L506.889 307.082C507.72 307.388 508.153 308.169 508.153 309.178C508.153 310.69 507.151 311.649 505.525 311.649H505.518V304.22H504.687C500.979 304.22 499.147 306.464 499.147 309.348C499.147 312.558 501.427 314.639 504.793 314.639C508.252 314.639 510.411 312.587 510.411 309.227ZM503.643 311.649C502.4 311.585 501.406 310.641 501.406 309.298C501.406 307.984 502.343 307.075 503.643 307.068V311.649ZM499.289 296.379V298.545H498.558C497.819 298.545 497.386 298.247 497.386 297.359C497.386 296.997 497.464 296.628 497.542 296.386L495.269 295.854C495.156 296.23 494.971 297.061 494.971 297.991C494.971 300.044 496.129 301.571 498.501 301.571H499.289V303.112H501.562V301.571H510.198V298.545H501.562V296.379H499.289ZM510.198 294.531V291.505H499.289V294.531H510.198ZM497.883 293.011C497.883 292.109 497.194 291.37 496.349 291.37C495.511 291.37 494.822 292.109 494.822 293.011C494.822 293.906 495.511 294.645 496.349 294.645C497.194 294.645 497.883 293.906 497.883 293.011ZM503.891 286.056C502.485 286.049 501.661 285.211 501.661 283.989C501.661 282.775 502.457 282.043 503.792 282.05H510.198V279.025H503.252C500.71 279.025 499.147 280.516 499.147 282.789C499.147 284.408 499.943 285.58 501.214 286.07V286.198H499.289V289.082H510.198V286.056H503.891ZM510.198 276.64V273.615H499.289V276.64H510.198ZM497.883 275.12C497.883 274.218 497.194 273.48 496.349 273.48C495.511 273.48 494.822 274.218 494.822 275.12C494.822 276.015 495.511 276.754 496.349 276.754C497.194 276.754 497.883 276.015 497.883 275.12ZM499.289 265.388V267.441H496.676V270.467H499.289V271.958H501.562V270.467H507.244C509.381 270.481 510.44 269.025 510.347 266.83C510.319 266.049 510.163 265.495 510.063 265.19L507.812 265.665C507.84 265.815 507.911 266.134 507.911 266.418C507.911 267.022 507.684 267.441 506.846 267.441H501.562V265.388H499.289ZM510.198 263.418V260.392H499.289V263.418H510.198ZM497.883 261.898C497.883 260.996 497.194 260.257 496.349 260.257C495.511 260.257 494.822 260.996 494.822 261.898C494.822 262.793 495.511 263.531 496.349 263.531C497.194 263.531 497.883 262.793 497.883 261.898ZM510.411 253.039C510.411 249.73 508.146 247.67 504.786 247.67C501.406 247.67 499.147 249.73 499.147 253.039C499.147 256.349 501.406 258.409 504.786 258.409C508.146 258.409 510.411 256.349 510.411 253.039ZM508.068 253.025C508.068 254.552 506.668 255.333 504.765 255.333C502.862 255.333 501.455 254.552 501.455 253.025C501.455 251.527 502.862 250.745 504.765 250.745C506.668 250.745 508.068 251.527 508.068 253.025ZM503.891 242.677C502.485 242.67 501.661 241.832 501.661 240.61C501.661 239.396 502.457 238.664 503.792 238.672H510.198V235.646H503.252C500.71 235.646 499.147 237.137 499.147 239.41C499.147 241.029 499.943 242.201 501.214 242.691V242.819H499.289V245.703H510.198V242.677H503.891Z" fill="white"/>
</svg>
