<svg width="32" height="32" viewBox="0 0 32 32" fill="none" xmlns="http://www.w3.org/2000/svg">
<g clip-path="url(#clip0_302_2192)">
<path d="M6.02886e-06 0H8.90445C13.1133 0.377778 16.9222 3.30444 18.3733 7.27111C19.8578 6.35556 21.6045 5.98 23.3333 5.97111C26.2222 5.96222 29.1111 5.97111 32 5.96889V8.73556C31.7645 11.1244 30.5845 13.4222 28.7133 14.9378C27.1489 16.2378 25.1333 16.9867 23.0978 16.9978C21.7356 17.0089 20.3733 16.9933 19.0111 17.0022C19.0045 17.3689 19 17.7356 18.9956 18.1044C20.2245 19.4044 21.7556 20.5244 22.4067 22.2578C23.5867 24.9289 22.8756 28.2933 20.6689 30.22C19.5756 31.2089 18.1622 31.7956 16.7111 32H15.3445C13.1378 31.74 11.04 30.4511 9.95112 28.4933C8.58001 26.1978 8.75112 23.14 10.2845 20.9689C11.0245 19.8556 12.2089 19.1156 12.9756 18.0467C13.02 15.7 12.98 13.3511 12.9933 11.0022C10.6022 10.9022 8.10223 11.3289 5.82445 10.3978C2.44889 9.14667 -0.00443842 5.74667 6.02886e-06 2.12444V0ZM2.04445 1.96889C1.87778 5.27778 4.52223 8.36 7.76001 8.88667C9.59778 9.13111 11.4622 8.9 13.3089 9.02444C14.2889 9.17111 15.06 10.12 14.9978 11.1133C15.0022 13.7378 15.0022 16.3644 14.9978 18.9911C13.9489 19.9533 12.9445 20.9644 11.9956 22.0244C11.3845 22.9356 10.98 24.0156 11.0178 25.1244C11.0311 26.9622 12.1822 28.7178 13.84 29.4956C14.8089 30.0089 15.9511 30.0467 17.0156 29.8933C18.8356 29.5222 20.3933 28.0578 20.8333 26.2444C21.2333 24.8 20.8489 23.2356 20.0045 22.02C19.0533 20.9689 18.0645 19.9467 17.0045 19C16.9978 17.6644 17 16.3289 17.0022 14.9933C19.1822 14.98 21.3645 15.02 23.5445 14.9733C27.0622 14.7711 30.1378 11.5222 29.9578 7.96667C27.5333 7.99778 25.1045 7.91111 22.6822 8.01333C20.38 8.08 18.1978 9.43556 17.0267 11.4044C17.0933 8.82889 16.0867 6.24 14.1933 4.47556C12.6511 3.00667 10.58 2.09556 8.44445 2.01778C6.31334 1.90889 4.17778 1.99778 2.04445 1.96889V1.96889Z" fill="black"/>
<path d="M2.04446 1.96897C4.17779 1.99786 6.31335 1.90897 8.44446 2.01786C10.58 2.09563 12.6511 3.00675 14.1933 4.47563C16.0867 6.24008 17.0933 8.82897 17.0267 11.4045C18.1978 9.43564 20.38 8.08008 22.6822 8.01341C25.1045 7.91119 27.5333 7.99786 29.9578 7.96675C30.1378 11.5223 27.0622 14.7712 23.5445 14.9734C21.3645 15.0201 19.1822 14.9801 17.0022 14.9934C17 16.329 16.9978 17.6645 17.0045 19.0001C17.0067 20.9823 16.9711 22.9645 17.0289 24.9467C16.9533 25.4734 16.6222 26.0601 16 25.9734C15.3778 26.0579 15.0533 25.469 14.9733 24.9445C15.0267 22.9601 14.9911 20.9756 14.9978 18.9912C15.0022 16.3645 15.0022 13.7379 14.9978 11.1134C15.06 10.1201 14.2889 9.17119 13.3089 9.02452C11.4622 8.90008 9.59779 9.13119 7.76001 8.88675C4.52223 8.36008 1.87779 5.27786 2.04446 1.96897V1.96897ZM5.62668 4.08452C4.71779 4.33119 4.83335 5.88008 5.7889 5.9423C7.61779 5.98008 9.45779 6.00008 11.2867 5.93119C12.2667 5.73786 12.16 4.04008 11.1289 4.04675C9.30001 3.96452 7.44446 3.87341 5.62668 4.08452V4.08452ZM20.5156 10.1267C19.9622 10.4179 19.8356 11.2712 20.2978 11.6956C20.6667 12.089 21.2689 12.0067 21.7578 12.0134C23.2422 11.9156 24.74 12.0934 26.2178 11.9601C27.0867 11.8534 27.2867 10.5601 26.5356 10.1423C25.6489 9.82675 24.6911 10.0667 23.7756 9.99341C22.6911 10.0023 21.5756 9.85341 20.5156 10.1267V10.1267Z" fill="#BAD80A"/>
<path d="M5.62669 4.08436C7.44446 3.87325 9.30002 3.96436 11.1289 4.04658C12.16 4.03992 12.2667 5.73769 11.2867 5.93103C9.4578 5.99992 7.6178 5.97992 5.78891 5.94214C4.83335 5.87992 4.7178 4.33103 5.62669 4.08436Z" fill="#73AA24"/>
<path d="M20.5155 10.1269C21.5755 9.85352 22.6911 10.0024 23.7755 9.99352C24.6911 10.0669 25.6489 9.82685 26.5355 10.1424C27.2866 10.5602 27.0866 11.8535 26.2178 11.9602C24.74 12.0935 23.2422 11.9157 21.7578 12.0135C21.2689 12.0069 20.6666 12.0891 20.2978 11.6957C19.8355 11.2713 19.9622 10.418 20.5155 10.1269V10.1269Z" fill="#73AA24"/>
<path d="M11.9955 22.0245C12.9444 20.9645 13.9489 19.9534 14.9978 18.9912C14.9911 20.9757 15.0267 22.9601 14.9733 24.9445C13.9555 23.9957 13.02 22.9645 11.9955 22.0245Z" fill="#CA5010"/>
<path d="M17.0045 19C18.0645 19.9467 19.0534 20.9689 20.0045 22.02C18.9845 22.9667 18.0445 23.9956 17.0289 24.9467C16.9711 22.9644 17.0067 20.9822 17.0045 19Z" fill="#CA5010"/>
<path d="M11.0178 25.1245C10.98 24.0156 11.3844 22.9356 11.9955 22.0245C13.02 22.9645 13.9555 23.9956 14.9733 24.9445C15.0533 25.4689 15.3778 26.0578 16 25.9734C16.6222 26.06 16.9533 25.4734 17.0289 24.9467C18.0444 23.9956 18.9844 22.9667 20.0044 22.02C20.8489 23.2356 21.2333 24.8 20.8333 26.2445C20.3933 28.0578 18.8355 29.5222 17.0155 29.8934C15.9511 30.0467 14.8089 30.0089 13.84 29.4956C12.1822 28.7178 11.0311 26.9622 11.0178 25.1245V25.1245Z" fill="#F7894A"/>
</g>
<defs>
<clipPath id="clip0_302_2192">
<rect width="32" height="32" fill="white"/>
</clipPath>
</defs>
</svg>
