<svg width="161" height="161" viewBox="0 0 161 161" fill="none" xmlns="http://www.w3.org/2000/svg">
<path fill-rule="evenodd" clip-rule="evenodd" d="M112.864 50.2877H81.1915C79.5083 50.2877 78.144 48.9232 78.144 47.24V39.621C78.144 37.9379 79.5083 36.5733 81.1915 36.5733C93.6818 36.5733 104.941 41.8463 112.864 50.2877ZM112.864 109.716C104.941 118.158 93.6818 123.431 81.1915 123.431C79.5083 123.431 78.144 122.066 78.144 120.383V112.764C78.144 111.081 79.5083 109.716 81.1915 109.716H112.864ZM123.101 91.4306C121.744 96.4159 119.522 101.044 116.606 105.145H81.1915C79.5083 105.145 78.144 103.78 78.144 102.097V94.4781C78.144 92.795 79.5083 91.4306 81.1915 91.4306H123.101ZM124.082 73.1449C124.436 75.3783 124.62 77.6687 124.62 80.002C124.62 82.3352 124.436 84.6256 124.082 86.8591H81.1915C79.5083 86.8591 78.144 85.4947 78.144 83.8116V76.1926C78.144 74.5092 79.5083 73.1449 81.1915 73.1449H124.082ZM116.606 54.8591C119.522 58.9595 121.744 63.588 123.101 68.5733H80.9375C79.2544 68.5733 77.89 67.2089 77.89 65.5258V57.9068C77.89 56.2236 79.2544 54.8591 80.9375 54.8591H116.606Z" fill="black"/>
<path fill-rule="evenodd" clip-rule="evenodd" d="M80.9375 160.002C36.7546 160.002 0.9375 124.185 0.9375 80.002C0.9375 35.8191 36.7546 0.00195312 80.9375 0.00195312C125.12 0.00195312 160.938 35.8191 160.938 80.002C160.938 124.185 125.12 160.002 80.9375 160.002ZM80.9375 141.716C115.021 141.716 142.652 114.086 142.652 80.002C142.652 45.9181 115.021 18.2877 80.9375 18.2877C46.8536 18.2877 19.2232 45.9181 19.2232 80.002C19.2232 114.086 46.8536 141.716 80.9375 141.716Z" fill="black"/>
</svg>
