<svg width="233" height="131" viewBox="0 0 233 131" fill="none" xmlns="http://www.w3.org/2000/svg">
<path d="M208.109 108.549L204.653 112.959C204.653 112.959 208.038 119.215 219.524 118.908C231.011 118.6 231.971 109.991 231.658 107.108C231.344 104.225 227.709 99.9004 219.524 97.0621C215.093 95.2517 210.602 92.7546 212.345 89.4726C214.089 86.1906 217.841 85.6232 221.883 87.5239C221.468 90.6371 222.581 92.6519 226.088 92.6519C228.764 92.6519 230.023 91.0263 230.023 89.2006C230.023 86.6275 226.435 82.1106 219.524 81.3702C212.614 80.6298 206.192 85.7497 205.836 90.3114C205.481 94.873 207.325 98.8637 214.807 101.677C219.524 103.685 225.511 104.903 225.37 108.549C225.23 112.195 222.499 113.882 218.909 113.882C215.319 113.882 211.051 112.431 208.109 108.549Z" fill="black" stroke="black"/>
<path d="M185.617 108.835C185.617 114.691 189.427 118.007 192.179 118.007C194.93 118.007 201.351 118.007 201.351 118.007V112.574H196.271C193.444 112.438 192.432 111.744 192.179 108.835V88.0217H200.857V82.5185H192.179V72.7117H185.617V82.5185H181.243V88.0217H185.617C185.617 88.0217 185.617 102.979 185.617 108.835Z" fill="black" stroke="black"/>
<circle cx="19.3767" cy="19.2815" r="18.9566" fill="black"/>
<circle cx="60.0008" cy="19.2815" r="18.9566" fill="black"/>
<circle cx="19.3767" cy="60.0334" r="18.9566" fill="black"/>
<circle cx="60.0008" cy="60.0335" r="18.9566" fill="black"/>
<circle cx="19.3767" cy="100.785" r="18.9566" fill="black"/>
<path d="M48.1328 129.679H40.7532C40.7532 129.679 40.7533 113.41 40.7533 101.097C40.7532 88.7844 50.1293 81.6454 59.2609 81.6523C69.9034 81.6605 78.8227 90.465 78.3544 101.097C77.9057 111.283 69.4455 119.372 59.2609 118.902C54.5853 118.687 48.1328 114.451 48.1328 114.451V129.679Z" fill="black" stroke="black"/>
<circle cx="60.1016" cy="100.142" r="11.8057" fill="white"/>
<circle cx="100.555" cy="100.142" r="18.6414" fill="black"/>
<circle cx="100.555" cy="100.142" r="11.8057" fill="white"/>
<path d="M121.456 82.0632V87.7955H126.086V116.144C126.104 117.509 126.705 117.913 128.671 117.966H132.989V85.5132C133.026 83.1209 132.73 82.1196 130.56 82.0632H121.456Z" fill="black" stroke="black"/>
<circle cx="128.608" cy="70.4343" r="5.30532" fill="black"/>
<path d="M139.05 82.3699V88.2234H143.603V117.735H150.188V100.337C150.188 100.337 150.188 86.9633 162.058 87.2479C167.476 87.5311 168.569 91.9129 168.569 94.4268C168.569 96.9406 168.562 115.378 168.562 115.378C168.657 117.16 169.286 117.566 170.757 117.735H178.399V111.638H175.554V92.3698C175.554 85.4923 168.025 80.6343 162.058 81.313C156.09 81.9917 154.196 84.4306 150.188 89.199V84.7275C150.045 83.1616 149.225 82.4635 147.78 82.3699H139.05Z" fill="black" stroke="black"/>
</svg>
