<svg width="1188" height="276" viewBox="0 0 1188 276" fill="none" xmlns="http://www.w3.org/2000/svg">
<rect width="1188" height="276" fill="#F6F6F6"/>
<rect width="1188" height="83" fill="#A4B5CE"/>
<path d="M53.152 51H57.1044V43.6278H61.2805C66.3196 43.6278 69.0256 40.6023 69.0256 36.4048C69.0256 32.2393 66.3516 29.1818 61.3338 29.1818H53.152V51ZM57.1044 40.3786V32.4844H60.7266C63.6882 32.4844 64.9986 34.0824 64.9986 36.4048C64.9986 38.7273 63.6882 40.3786 60.7479 40.3786H57.1044ZM78.9086 51H82.861V43.0099H86.888L91.1707 51H95.5812L90.8618 42.3494C93.4292 41.3161 94.7822 39.1214 94.7822 36.1598C94.7822 31.9943 92.0976 29.1818 87.0904 29.1818H78.9086V51ZM82.861 39.7287V32.4844H86.4832C89.4342 32.4844 90.7552 33.8374 90.7552 36.1598C90.7552 38.4822 89.4342 39.7287 86.5045 39.7287H82.861ZM124.366 40.0909C124.366 33.0384 120.062 28.8835 114.341 28.8835C108.61 28.8835 104.316 33.0384 104.316 40.0909C104.316 47.1328 108.61 51.2983 114.341 51.2983C120.062 51.2983 124.366 47.1435 124.366 40.0909ZM120.392 40.0909C120.392 45.0554 117.899 47.7507 114.341 47.7507C110.794 47.7507 108.29 45.0554 108.29 40.0909C108.29 35.1264 110.794 32.4311 114.341 32.4311C117.899 32.4311 120.392 35.1264 120.392 40.0909ZM134.553 51H143.384C148.381 51 150.831 48.4538 150.831 45.0554C150.831 41.7528 148.487 39.8139 146.165 39.6967V39.4837C148.296 38.983 149.979 37.4915 149.979 34.8388C149.979 31.5895 147.635 29.1818 142.905 29.1818H134.553V51ZM138.505 47.6974V41.3054H142.862C145.302 41.3054 146.815 42.7969 146.815 44.7464C146.815 46.483 145.622 47.6974 142.756 47.6974H138.505ZM138.505 38.4609V32.4418H142.5C144.823 32.4418 146.026 33.6669 146.026 35.3501C146.026 37.2678 144.471 38.4609 142.415 38.4609H138.505ZM160.72 51H174.281V47.6868H164.672V29.1818H160.72V51ZM184.162 51H198.437V47.6868H188.114V41.7315H197.617V38.4183H188.114V32.495H198.352V29.1818H184.162V51ZM208.834 29.1818V51H212.627V35.9787H212.829L218.859 50.9361H221.693L227.723 36.0107H227.925V51H231.718V29.1818H226.881L220.404 44.9915H220.148L213.671 29.1818H208.834ZM268.221 35.1797H272.024C271.949 31.4936 268.807 28.8835 264.162 28.8835C259.581 28.8835 256.14 31.4616 256.15 35.3182C256.15 38.4503 258.377 40.2507 261.967 41.1776L264.449 41.8168C266.804 42.4134 268.359 43.1484 268.37 44.8423C268.359 46.7067 266.591 47.9531 264.012 47.9531C261.541 47.9531 259.623 46.8452 259.463 44.5547H255.575C255.735 48.8906 258.963 51.3303 264.044 51.3303C269.275 51.3303 272.311 48.7202 272.322 44.8743C272.311 41.0923 269.19 39.3665 265.909 38.5888L263.863 38.0774C262.074 37.6513 260.135 36.8949 260.156 35.0732C260.167 33.4325 261.637 32.2287 264.108 32.2287C266.463 32.2287 268.018 33.326 268.221 35.1797ZM281.337 32.495H288.081V51H292.001V32.495H298.745V29.1818H281.337V32.495ZM308.716 51L310.516 45.62H318.719L320.53 51H324.749L317.057 29.1818H312.178L304.497 51H308.716ZM311.581 42.4453L314.532 33.6562H314.703L317.654 42.4453H311.581ZM330.477 32.495H337.221V51H341.141V32.495H347.885V29.1818H330.477V32.495ZM357.691 51H371.966V47.6868H361.643V41.7315H371.146V38.4183H361.643V32.495H371.881V29.1818H357.691V51ZM382.363 29.1818V51H386.156V35.9787H386.358L392.388 50.9361H395.222L401.252 36.0107H401.454V51H405.247V29.1818H400.41L393.933 44.9915H393.677L387.2 29.1818H382.363ZM416.001 51H430.276V47.6868H419.953V41.7315H429.456V38.4183H419.953V32.495H430.191V29.1818H416.001V51ZM458.603 29.1818H454.672V44.054H454.48L444.21 29.1818H440.673V51H444.626V36.1385H444.807L455.088 51H458.603V29.1818ZM468.401 32.495H475.145V51H479.065V32.495H485.809V29.1818H468.401V32.495Z" fill="white"/>
<path d="M53.8182 150H56.6364V139.591H69.0455V150H71.8636V126.727H69.0455V137.091H56.6364V126.727H53.8182V150ZM84.233 150.364C88.9602 150.364 92.142 146.773 92.142 141.364C92.142 135.909 88.9602 132.318 84.233 132.318C79.5057 132.318 76.3239 135.909 76.3239 141.364C76.3239 146.773 79.5057 150.364 84.233 150.364ZM84.233 147.955C80.642 147.955 79.0057 144.864 79.0057 141.364C79.0057 137.864 80.642 134.727 84.233 134.727C87.8239 134.727 89.4602 137.864 89.4602 141.364C89.4602 144.864 87.8239 147.955 84.233 147.955ZM99.5966 150H102.233L106.051 136.591H106.324L110.142 150H112.778L118.097 132.545H115.278L111.506 145.864H111.324L107.642 132.545H104.778L101.051 145.909H100.869L97.0966 132.545H94.2784L99.5966 150ZM130.642 150H133.324V139.091C133.324 136.534 135.188 134.727 137.278 134.727C139.312 134.727 140.733 136.057 140.733 138.045V150H143.46V138.636C143.46 136.386 144.869 134.727 147.324 134.727C149.233 134.727 150.869 135.739 150.869 138.318V150H153.551V138.318C153.551 134.216 151.347 132.318 148.233 132.318C145.733 132.318 143.903 133.466 143.006 135.273H142.824C141.96 133.409 140.438 132.318 138.142 132.318C135.869 132.318 134.188 133.409 133.46 135.273H133.233V132.545H130.642V150ZM158.455 150H161.136V132.545H158.455V150ZM159.818 129.636C160.864 129.636 161.727 128.818 161.727 127.818C161.727 126.818 160.864 126 159.818 126C158.773 126 157.909 126.818 157.909 127.818C157.909 128.818 158.773 129.636 159.818 129.636ZM173.094 156.909C177.276 156.909 180.639 155 180.639 150.5V132.545H178.048V135.318H177.776C177.185 134.409 176.094 132.318 172.685 132.318C168.276 132.318 165.23 135.818 165.23 141.182C165.23 146.636 168.412 149.727 172.639 149.727C176.048 149.727 177.139 147.727 177.73 146.773H177.957V150.318C177.957 153.227 175.912 154.545 173.094 154.545C169.923 154.545 168.81 152.875 168.094 151.909L165.957 153.409C167.048 155.239 169.196 156.909 173.094 156.909ZM173.003 147.318C169.639 147.318 167.912 144.773 167.912 141.136C167.912 137.591 169.594 134.727 173.003 134.727C176.276 134.727 178.003 137.364 178.003 141.136C178.003 145 176.23 147.318 173.003 147.318ZM188.23 139.5C188.23 136.455 190.173 134.727 192.821 134.727C195.344 134.727 196.866 136.318 196.866 139.091V150H199.548V138.909C199.548 134.42 197.162 132.318 193.594 132.318C190.844 132.318 189.276 133.466 188.457 135.273H188.23V126.727H185.548V150H188.23V139.5ZM212.045 132.545H208.318V128.364H205.636V132.545H203V134.818H205.636V145.727C205.636 148.773 208.091 150.227 210.364 150.227C211.364 150.227 212 150.045 212.364 149.909L211.818 147.5C211.591 147.545 211.227 147.636 210.636 147.636C209.455 147.636 208.318 147.273 208.318 145V134.818H212.045V132.545ZM229.034 150H231.67L235.489 136.591H235.761L239.58 150H242.216L247.534 132.545H244.716L240.943 145.864H240.761L237.08 132.545H234.216L230.489 145.909H230.307L226.534 132.545H223.716L229.034 150ZM257.804 150.364C261.349 150.364 263.94 148.591 264.759 145.955L262.168 145.227C261.486 147.045 259.906 147.955 257.804 147.955C254.656 147.955 252.486 145.92 252.361 142.182H265.031V141.045C265.031 134.545 261.168 132.318 257.531 132.318C252.804 132.318 249.668 136.045 249.668 141.409C249.668 146.773 252.759 150.364 257.804 150.364ZM252.361 139.864C252.543 137.148 254.463 134.727 257.531 134.727C260.44 134.727 262.304 136.909 262.304 139.864H252.361ZM285.202 150.364C289.065 150.364 291.611 148 292.065 144.909H289.384C288.884 146.818 287.293 147.955 285.202 147.955C282.02 147.955 279.974 145.318 279.974 141.273C279.974 137.318 282.065 134.727 285.202 134.727C287.565 134.727 288.974 136.182 289.384 137.773H292.065C291.611 134.5 288.838 132.318 285.156 132.318C280.429 132.318 277.293 136.045 277.293 141.364C277.293 146.591 280.293 150.364 285.202 150.364ZM295.986 150H298.668V138.955C298.668 136.591 300.531 134.864 303.077 134.864C303.793 134.864 304.531 135 304.713 135.045V132.318C304.406 132.295 303.702 132.273 303.304 132.273C301.213 132.273 299.395 133.455 298.759 135.182H298.577V132.545H295.986V150ZM314.679 150.364C318.224 150.364 320.815 148.591 321.634 145.955L319.043 145.227C318.361 147.045 316.781 147.955 314.679 147.955C311.531 147.955 309.361 145.92 309.236 142.182H321.906V141.045C321.906 134.545 318.043 132.318 314.406 132.318C309.679 132.318 306.543 136.045 306.543 141.409C306.543 146.773 309.634 150.364 314.679 150.364ZM309.236 139.864C309.418 137.148 311.338 134.727 314.406 134.727C317.315 134.727 319.179 136.909 319.179 139.864H309.236ZM331.122 150.409C334.168 150.409 335.759 148.773 336.304 147.636H336.44V150H339.122V138.5C339.122 132.955 334.895 132.318 332.668 132.318C330.031 132.318 327.031 133.227 325.668 136.409L328.213 137.318C328.804 136.045 330.202 134.682 332.759 134.682C335.224 134.682 336.44 135.989 336.44 138.227V138.318C336.44 139.614 335.122 139.5 331.94 139.909C328.702 140.33 325.168 141.045 325.168 145.045C325.168 148.455 327.804 150.409 331.122 150.409ZM331.531 148C329.395 148 327.849 147.045 327.849 145.182C327.849 143.136 329.713 142.5 331.804 142.227C332.94 142.091 335.986 141.773 336.44 141.227V143.682C336.44 145.864 334.713 148 331.531 148ZM351.608 132.545H347.881V128.364H345.199V132.545H342.562V134.818H345.199V145.727C345.199 148.773 347.653 150.227 349.926 150.227C350.926 150.227 351.562 150.045 351.926 149.909L351.381 147.5C351.153 147.545 350.79 147.636 350.199 147.636C349.017 147.636 347.881 147.273 347.881 145V134.818H351.608V132.545ZM362.773 150.364C366.318 150.364 368.909 148.591 369.727 145.955L367.136 145.227C366.455 147.045 364.875 147.955 362.773 147.955C359.625 147.955 357.455 145.92 357.33 142.182H370V141.045C370 134.545 366.136 132.318 362.5 132.318C357.773 132.318 354.636 136.045 354.636 141.409C354.636 146.773 357.727 150.364 362.773 150.364ZM357.33 139.864C357.511 137.148 359.432 134.727 362.5 134.727C365.409 134.727 367.273 136.909 367.273 139.864H357.33ZM388.216 150.409C391.261 150.409 392.852 148.773 393.398 147.636H393.534V150H396.216V138.5C396.216 132.955 391.989 132.318 389.761 132.318C387.125 132.318 384.125 133.227 382.761 136.409L385.307 137.318C385.898 136.045 387.295 134.682 389.852 134.682C392.318 134.682 393.534 135.989 393.534 138.227V138.318C393.534 139.614 392.216 139.5 389.034 139.909C385.795 140.33 382.261 141.045 382.261 145.045C382.261 148.455 384.898 150.409 388.216 150.409ZM388.625 148C386.489 148 384.943 147.045 384.943 145.182C384.943 143.136 386.807 142.5 388.898 142.227C390.034 142.091 393.08 141.773 393.534 141.227V143.682C393.534 145.864 391.807 148 388.625 148ZM410.111 150H412.793V139.091C412.793 136.534 414.656 134.727 416.747 134.727C418.781 134.727 420.202 136.057 420.202 138.045V150H422.929V138.636C422.929 136.386 424.338 134.727 426.793 134.727C428.702 134.727 430.338 135.739 430.338 138.318V150H433.02V138.318C433.02 134.216 430.815 132.318 427.702 132.318C425.202 132.318 423.372 133.466 422.474 135.273H422.293C421.429 133.409 419.906 132.318 417.611 132.318C415.338 132.318 413.656 133.409 412.929 135.273H412.702V132.545H410.111V150ZM445.014 150.364C449.741 150.364 452.923 146.773 452.923 141.364C452.923 135.909 449.741 132.318 445.014 132.318C440.287 132.318 437.105 135.909 437.105 141.364C437.105 146.773 440.287 150.364 445.014 150.364ZM445.014 147.955C441.423 147.955 439.787 144.864 439.787 141.364C439.787 137.864 441.423 134.727 445.014 134.727C448.605 134.727 450.241 137.864 450.241 141.364C450.241 144.864 448.605 147.955 445.014 147.955ZM457.381 150H459.972V147.318H460.29C460.881 148.273 462.017 150.364 465.381 150.364C469.744 150.364 472.79 146.864 472.79 141.318C472.79 135.818 469.744 132.318 465.335 132.318C461.926 132.318 460.881 134.409 460.29 135.318H460.062V126.727H457.381V150ZM460.017 141.273C460.017 137.364 461.744 134.727 465.017 134.727C468.426 134.727 470.108 137.591 470.108 141.273C470.108 145 468.381 147.955 465.017 147.955C461.79 147.955 460.017 145.227 460.017 141.273ZM476.892 150H479.574V132.545H476.892V150ZM478.256 129.636C479.301 129.636 480.165 128.818 480.165 127.818C480.165 126.818 479.301 126 478.256 126C477.21 126 476.347 126.818 476.347 127.818C476.347 128.818 477.21 129.636 478.256 129.636ZM487.168 126.727H484.486V150H487.168V126.727ZM499.398 150.364C502.943 150.364 505.534 148.591 506.352 145.955L503.761 145.227C503.08 147.045 501.5 147.955 499.398 147.955C496.25 147.955 494.08 145.92 493.955 142.182H506.625V141.045C506.625 134.545 502.761 132.318 499.125 132.318C494.398 132.318 491.261 136.045 491.261 141.409C491.261 146.773 494.352 150.364 499.398 150.364ZM493.955 139.864C494.136 137.148 496.057 134.727 499.125 134.727C502.034 134.727 503.898 136.909 503.898 139.864H493.955ZM520.705 138.773H510.523V141.273H520.705V138.773ZM533.196 132.545H529.287V130.773C529.287 129.045 530.014 128.136 531.787 128.136C532.56 128.136 533.014 128.318 533.287 128.409L534.06 126.091C533.651 125.909 532.832 125.636 531.514 125.636C529.014 125.636 526.605 127.136 526.605 130.136V132.545H523.787V134.818H526.605V150H529.287V134.818H533.196V132.545ZM536.955 150H539.636V132.545H536.955V150ZM538.318 129.636C539.364 129.636 540.227 128.818 540.227 127.818C540.227 126.818 539.364 126 538.318 126C537.273 126 536.409 126.818 536.409 127.818C536.409 128.818 537.273 129.636 538.318 129.636ZM544.548 150H547.23V138.955C547.23 136.591 549.094 134.864 551.639 134.864C552.355 134.864 553.094 135 553.276 135.045V132.318C552.969 132.295 552.264 132.273 551.866 132.273C549.776 132.273 547.957 133.455 547.321 135.182H547.139V132.545H544.548V150ZM568.818 136.455C567.977 133.977 566.091 132.318 562.636 132.318C558.955 132.318 556.227 134.409 556.227 137.364C556.227 139.773 557.659 141.386 560.864 142.136L563.773 142.818C565.534 143.227 566.364 144.068 566.364 145.273C566.364 146.773 564.773 148 562.273 148C560.08 148 558.705 147.057 558.227 145.182L555.682 145.818C556.307 148.784 558.75 150.364 562.318 150.364C566.375 150.364 569.136 148.148 569.136 145.136C569.136 142.705 567.614 141.17 564.5 140.409L561.909 139.773C559.841 139.261 558.909 138.568 558.909 137.227C558.909 135.727 560.5 134.636 562.636 134.636C564.977 134.636 565.943 135.932 566.409 137.136L568.818 136.455ZM580.764 132.545H577.037V128.364H574.355V132.545H571.719V134.818H574.355V145.727C574.355 148.773 576.81 150.227 579.082 150.227C580.082 150.227 580.719 150.045 581.082 149.909L580.537 147.5C580.31 147.545 579.946 147.636 579.355 147.636C578.173 147.636 577.037 147.273 577.037 145V134.818H580.764V132.545ZM601.116 150.364C604.662 150.364 607.253 148.591 608.071 145.955L605.48 145.227C604.798 147.045 603.219 147.955 601.116 147.955C597.969 147.955 595.798 145.92 595.673 142.182H608.344V141.045C608.344 134.545 604.48 132.318 600.844 132.318C596.116 132.318 592.98 136.045 592.98 141.409C592.98 146.773 596.071 150.364 601.116 150.364ZM595.673 139.864C595.855 137.148 597.776 134.727 600.844 134.727C603.753 134.727 605.616 136.909 605.616 139.864H595.673ZM613.955 132.545H610.864L616.409 141.273L610.864 150H613.955L618.136 143.227L622.318 150H625.409L619.773 141.273L625.409 132.545H622.318L618.136 139.682L613.955 132.545ZM629.236 156.545H631.918V147.318H632.145C632.736 148.273 633.872 150.364 637.236 150.364C641.599 150.364 644.645 146.864 644.645 141.318C644.645 135.818 641.599 132.318 637.19 132.318C633.781 132.318 632.736 134.409 632.145 135.318H631.827V132.545H629.236V156.545ZM631.872 141.273C631.872 137.364 633.599 134.727 636.872 134.727C640.281 134.727 641.963 137.591 641.963 141.273C641.963 145 640.236 147.955 636.872 147.955C633.645 147.955 631.872 145.227 631.872 141.273ZM656.054 150.364C659.599 150.364 662.19 148.591 663.009 145.955L660.418 145.227C659.736 147.045 658.156 147.955 656.054 147.955C652.906 147.955 650.736 145.92 650.611 142.182H663.281V141.045C663.281 134.545 659.418 132.318 655.781 132.318C651.054 132.318 647.918 136.045 647.918 141.409C647.918 146.773 651.009 150.364 656.054 150.364ZM650.611 139.864C650.793 137.148 652.713 134.727 655.781 134.727C658.69 134.727 660.554 136.909 660.554 139.864H650.611ZM667.361 150H670.043V138.955C670.043 136.591 671.906 134.864 674.452 134.864C675.168 134.864 675.906 135 676.088 135.045V132.318C675.781 132.295 675.077 132.273 674.679 132.273C672.588 132.273 670.77 133.455 670.134 135.182H669.952V132.545H667.361V150ZM679.267 150H681.949V132.545H679.267V150ZM680.631 129.636C681.676 129.636 682.54 128.818 682.54 127.818C682.54 126.818 681.676 126 680.631 126C679.585 126 678.722 126.818 678.722 127.818C678.722 128.818 679.585 129.636 680.631 129.636ZM694.179 150.364C697.724 150.364 700.315 148.591 701.134 145.955L698.543 145.227C697.861 147.045 696.281 147.955 694.179 147.955C691.031 147.955 688.861 145.92 688.736 142.182H701.406V141.045C701.406 134.545 697.543 132.318 693.906 132.318C689.179 132.318 686.043 136.045 686.043 141.409C686.043 146.773 689.134 150.364 694.179 150.364ZM688.736 139.864C688.918 137.148 690.838 134.727 693.906 134.727C696.815 134.727 698.679 136.909 698.679 139.864H688.736ZM708.168 139.5C708.168 136.455 710.054 134.727 712.622 134.727C715.111 134.727 716.622 136.352 716.622 139.091V150H719.304V138.909C719.304 134.455 716.929 132.318 713.395 132.318C710.759 132.318 709.122 133.5 708.304 135.273H708.077V132.545H705.486V150H708.168V139.5ZM731.295 150.364C735.159 150.364 737.705 148 738.159 144.909H735.477C734.977 146.818 733.386 147.955 731.295 147.955C728.114 147.955 726.068 145.318 726.068 141.273C726.068 137.318 728.159 134.727 731.295 134.727C733.659 134.727 735.068 136.182 735.477 137.773H738.159C737.705 134.5 734.932 132.318 731.25 132.318C726.523 132.318 723.386 136.045 723.386 141.364C723.386 146.591 726.386 150.364 731.295 150.364ZM749.398 150.364C752.943 150.364 755.534 148.591 756.352 145.955L753.761 145.227C753.08 147.045 751.5 147.955 749.398 147.955C746.25 147.955 744.08 145.92 743.955 142.182H756.625V141.045C756.625 134.545 752.761 132.318 749.125 132.318C744.398 132.318 741.261 136.045 741.261 141.409C741.261 146.773 744.352 150.364 749.398 150.364ZM743.955 139.864C744.136 137.148 746.057 134.727 749.125 134.727C752.034 134.727 753.898 136.909 753.898 139.864H743.955ZM777.295 132.545H773.568V128.364H770.886V132.545H768.25V134.818H770.886V145.727C770.886 148.773 773.341 150.227 775.614 150.227C776.614 150.227 777.25 150.045 777.614 149.909L777.068 147.5C776.841 147.545 776.477 147.636 775.886 147.636C774.705 147.636 773.568 147.273 773.568 145V134.818H777.295V132.545ZM784.386 139.5C784.386 136.455 786.33 134.727 788.977 134.727C791.5 134.727 793.023 136.318 793.023 139.091V150H795.705V138.909C795.705 134.42 793.318 132.318 789.75 132.318C787 132.318 785.432 133.466 784.614 135.273H784.386V126.727H781.705V150H784.386V139.5ZM805.747 150.409C808.793 150.409 810.384 148.773 810.929 147.636H811.065V150H813.747V138.5C813.747 132.955 809.52 132.318 807.293 132.318C804.656 132.318 801.656 133.227 800.293 136.409L802.838 137.318C803.429 136.045 804.827 134.682 807.384 134.682C809.849 134.682 811.065 135.989 811.065 138.227V138.318C811.065 139.614 809.747 139.5 806.565 139.909C803.327 140.33 799.793 141.045 799.793 145.045C799.793 148.455 802.429 150.409 805.747 150.409ZM806.156 148C804.02 148 802.474 147.045 802.474 145.182C802.474 143.136 804.338 142.5 806.429 142.227C807.565 142.091 810.611 141.773 811.065 141.227V143.682C811.065 145.864 809.338 148 806.156 148ZM826.233 132.545H822.506V128.364H819.824V132.545H817.188V134.818H819.824V145.727C819.824 148.773 822.278 150.227 824.551 150.227C825.551 150.227 826.188 150.045 826.551 149.909L826.006 147.5C825.778 147.545 825.415 147.636 824.824 147.636C823.642 147.636 822.506 147.273 822.506 145V134.818H826.233V132.545ZM846.585 150.364C850.131 150.364 852.722 148.591 853.54 145.955L850.949 145.227C850.267 147.045 848.688 147.955 846.585 147.955C843.438 147.955 841.267 145.92 841.142 142.182H853.812V141.045C853.812 134.545 849.949 132.318 846.312 132.318C841.585 132.318 838.449 136.045 838.449 141.409C838.449 146.773 841.54 150.364 846.585 150.364ZM841.142 139.864C841.324 137.148 843.244 134.727 846.312 134.727C849.222 134.727 851.085 136.909 851.085 139.864H841.142ZM860.574 139.5C860.574 136.455 862.46 134.727 865.028 134.727C867.517 134.727 869.028 136.352 869.028 139.091V150H871.71V138.909C871.71 134.455 869.335 132.318 865.801 132.318C863.165 132.318 861.528 133.5 860.71 135.273H860.483V132.545H857.892V150H860.574V139.5ZM881.747 150.409C884.793 150.409 886.384 148.773 886.929 147.636H887.065V150H889.747V138.5C889.747 132.955 885.52 132.318 883.293 132.318C880.656 132.318 877.656 133.227 876.293 136.409L878.838 137.318C879.429 136.045 880.827 134.682 883.384 134.682C885.849 134.682 887.065 135.989 887.065 138.227V138.318C887.065 139.614 885.747 139.5 882.565 139.909C879.327 140.33 875.793 141.045 875.793 145.045C875.793 148.455 878.429 150.409 881.747 150.409ZM882.156 148C880.02 148 878.474 147.045 878.474 145.182C878.474 143.136 880.338 142.5 882.429 142.227C883.565 142.091 886.611 141.773 887.065 141.227V143.682C887.065 145.864 885.338 148 882.156 148ZM895.006 150H897.597V147.318H897.915C898.506 148.273 899.642 150.364 903.006 150.364C907.369 150.364 910.415 146.864 910.415 141.318C910.415 135.818 907.369 132.318 902.96 132.318C899.551 132.318 898.506 134.409 897.915 135.318H897.688V126.727H895.006V150ZM897.642 141.273C897.642 137.364 899.369 134.727 902.642 134.727C906.051 134.727 907.733 137.591 907.733 141.273C907.733 145 906.006 147.955 902.642 147.955C899.415 147.955 897.642 145.227 897.642 141.273ZM917.199 126.727H914.517V150H917.199V126.727ZM929.429 150.364C932.974 150.364 935.565 148.591 936.384 145.955L933.793 145.227C933.111 147.045 931.531 147.955 929.429 147.955C926.281 147.955 924.111 145.92 923.986 142.182H936.656V141.045C936.656 134.545 932.793 132.318 929.156 132.318C924.429 132.318 921.293 136.045 921.293 141.409C921.293 146.773 924.384 150.364 929.429 150.364ZM923.986 139.864C924.168 137.148 926.088 134.727 929.156 134.727C932.065 134.727 933.929 136.909 933.929 139.864H923.986ZM953.099 136.455C952.259 133.977 950.372 132.318 946.918 132.318C943.236 132.318 940.509 134.409 940.509 137.364C940.509 139.773 941.94 141.386 945.145 142.136L948.054 142.818C949.815 143.227 950.645 144.068 950.645 145.273C950.645 146.773 949.054 148 946.554 148C944.361 148 942.986 147.057 942.509 145.182L939.963 145.818C940.588 148.784 943.031 150.364 946.599 150.364C950.656 150.364 953.418 148.148 953.418 145.136C953.418 142.705 951.895 141.17 948.781 140.409L946.19 139.773C944.122 139.261 943.19 138.568 943.19 137.227C943.19 135.727 944.781 134.636 946.918 134.636C949.259 134.636 950.224 135.932 950.69 137.136L953.099 136.455ZM971.591 150.409C974.636 150.409 976.227 148.773 976.773 147.636H976.909V150H979.591V138.5C979.591 132.955 975.364 132.318 973.136 132.318C970.5 132.318 967.5 133.227 966.136 136.409L968.682 137.318C969.273 136.045 970.67 134.682 973.227 134.682C975.693 134.682 976.909 135.989 976.909 138.227V138.318C976.909 139.614 975.591 139.5 972.409 139.909C969.17 140.33 965.636 141.045 965.636 145.045C965.636 148.455 968.273 150.409 971.591 150.409ZM972 148C969.864 148 968.318 147.045 968.318 145.182C968.318 143.136 970.182 142.5 972.273 142.227C973.409 142.091 976.455 141.773 976.909 141.227V143.682C976.909 145.864 975.182 148 972 148ZM991.077 150.364C994.44 150.364 995.577 148.273 996.168 147.318H996.486V150H999.077V126.727H996.395V135.318H996.168C995.577 134.409 994.531 132.318 991.122 132.318C986.713 132.318 983.668 135.818 983.668 141.318C983.668 146.864 986.713 150.364 991.077 150.364ZM991.44 147.955C988.077 147.955 986.349 145 986.349 141.273C986.349 137.591 988.031 134.727 991.44 134.727C994.713 134.727 996.44 137.364 996.44 141.273C996.44 145.227 994.668 147.955 991.44 147.955ZM1015.36 142.864C1015.36 146.136 1012.86 147.636 1010.86 147.636C1008.63 147.636 1007.04 146 1007.04 143.455V132.545H1004.36V143.636C1004.36 148.091 1006.72 150.227 1010 150.227C1012.63 150.227 1014.36 148.818 1015.18 147.045H1015.36V150H1018.04V132.545H1015.36V142.864ZM1025.64 126.727H1022.95V150H1025.64V126.727ZM1038.14 132.545H1034.41V128.364H1031.73V132.545H1029.09V134.818H1031.73V145.727C1031.73 148.773 1034.18 150.227 1036.46 150.227C1037.46 150.227 1038.09 150.045 1038.46 149.909L1037.91 147.5C1037.68 147.545 1037.32 147.636 1036.73 147.636C1035.55 147.636 1034.41 147.273 1034.41 145V134.818H1038.14V132.545ZM1054.22 136.455C1053.38 133.977 1051.5 132.318 1048.04 132.318C1044.36 132.318 1041.63 134.409 1041.63 137.364C1041.63 139.773 1043.07 141.386 1046.27 142.136L1049.18 142.818C1050.94 143.227 1051.77 144.068 1051.77 145.273C1051.77 146.773 1050.18 148 1047.68 148C1045.49 148 1044.11 147.057 1043.63 145.182L1041.09 145.818C1041.71 148.784 1044.16 150.364 1047.72 150.364C1051.78 150.364 1054.54 148.148 1054.54 145.136C1054.54 142.705 1053.02 141.17 1049.91 140.409L1047.32 139.773C1045.25 139.261 1044.32 138.568 1044.32 137.227C1044.32 135.727 1045.91 134.636 1048.04 134.636C1050.38 134.636 1051.35 135.932 1051.82 137.136L1054.22 136.455ZM1075.17 132.545H1071.44V128.364H1068.76V132.545H1066.12V134.818H1068.76V145.727C1068.76 148.773 1071.22 150.227 1073.49 150.227C1074.49 150.227 1075.12 150.045 1075.49 149.909L1074.94 147.5C1074.72 147.545 1074.35 147.636 1073.76 147.636C1072.58 147.636 1071.44 147.273 1071.44 145V134.818H1075.17V132.545ZM1086.11 150.364C1090.84 150.364 1094.02 146.773 1094.02 141.364C1094.02 135.909 1090.84 132.318 1086.11 132.318C1081.38 132.318 1078.2 135.909 1078.2 141.364C1078.2 146.773 1081.38 150.364 1086.11 150.364ZM1086.11 147.955C1082.52 147.955 1080.88 144.864 1080.88 141.364C1080.88 137.864 1082.52 134.727 1086.11 134.727C1089.7 134.727 1091.34 137.864 1091.34 141.364C1091.34 144.864 1089.7 147.955 1086.11 147.955ZM58.5909 189.409C61.6364 189.409 63.2273 187.773 63.7727 186.636H63.9091V189H66.5909V177.5C66.5909 171.955 62.3636 171.318 60.1364 171.318C57.5 171.318 54.5 172.227 53.1364 175.409L55.6818 176.318C56.2727 175.045 57.6705 173.682 60.2273 173.682C62.6932 173.682 63.9091 174.989 63.9091 177.227V177.318C63.9091 178.614 62.5909 178.5 59.4091 178.909C56.1705 179.33 52.6364 180.045 52.6364 184.045C52.6364 187.455 55.2727 189.409 58.5909 189.409ZM59 187C56.8636 187 55.3182 186.045 55.3182 184.182C55.3182 182.136 57.1818 181.5 59.2727 181.227C60.4091 181.091 63.4545 180.773 63.9091 180.227V182.682C63.9091 184.864 62.1818 187 59 187ZM78.5767 189.364C82.4403 189.364 84.9858 187 85.4403 183.909H82.7585C82.2585 185.818 80.6676 186.955 78.5767 186.955C75.3949 186.955 73.3494 184.318 73.3494 180.273C73.3494 176.318 75.4403 173.727 78.5767 173.727C80.9403 173.727 82.3494 175.182 82.7585 176.773H85.4403C84.9858 173.5 82.2131 171.318 78.5312 171.318C73.804 171.318 70.6676 175.045 70.6676 180.364C70.6676 185.591 73.6676 189.364 78.5767 189.364ZM96.4517 189.364C100.315 189.364 102.861 187 103.315 183.909H100.634C100.134 185.818 98.5426 186.955 96.4517 186.955C93.2699 186.955 91.2244 184.318 91.2244 180.273C91.2244 176.318 93.3153 173.727 96.4517 173.727C98.8153 173.727 100.224 175.182 100.634 176.773H103.315C102.861 173.5 100.088 171.318 96.4062 171.318C91.679 171.318 88.5426 175.045 88.5426 180.364C88.5426 185.591 91.5426 189.364 96.4517 189.364ZM114.554 189.364C118.099 189.364 120.69 187.591 121.509 184.955L118.918 184.227C118.236 186.045 116.656 186.955 114.554 186.955C111.406 186.955 109.236 184.92 109.111 181.182H121.781V180.045C121.781 173.545 117.918 171.318 114.281 171.318C109.554 171.318 106.418 175.045 106.418 180.409C106.418 185.773 109.509 189.364 114.554 189.364ZM109.111 178.864C109.293 176.148 111.213 173.727 114.281 173.727C117.19 173.727 119.054 175.909 119.054 178.864H109.111ZM138.224 175.455C137.384 172.977 135.497 171.318 132.043 171.318C128.361 171.318 125.634 173.409 125.634 176.364C125.634 178.773 127.065 180.386 130.27 181.136L133.179 181.818C134.94 182.227 135.77 183.068 135.77 184.273C135.77 185.773 134.179 187 131.679 187C129.486 187 128.111 186.057 127.634 184.182L125.088 184.818C125.713 187.784 128.156 189.364 131.724 189.364C135.781 189.364 138.543 187.148 138.543 184.136C138.543 181.705 137.02 180.17 133.906 179.409L131.315 178.773C129.247 178.261 128.315 177.568 128.315 176.227C128.315 174.727 129.906 173.636 132.043 173.636C134.384 173.636 135.349 174.932 135.815 176.136L138.224 175.455ZM154.943 175.455C154.102 172.977 152.216 171.318 148.761 171.318C145.08 171.318 142.352 173.409 142.352 176.364C142.352 178.773 143.784 180.386 146.989 181.136L149.898 181.818C151.659 182.227 152.489 183.068 152.489 184.273C152.489 185.773 150.898 187 148.398 187C146.205 187 144.83 186.057 144.352 184.182L141.807 184.818C142.432 187.784 144.875 189.364 148.443 189.364C152.5 189.364 155.261 187.148 155.261 184.136C155.261 181.705 153.739 180.17 150.625 179.409L148.034 178.773C145.966 178.261 145.034 177.568 145.034 176.227C145.034 174.727 146.625 173.636 148.761 173.636C151.102 173.636 152.068 174.932 152.534 176.136L154.943 175.455ZM168.662 189H171.253V186.318H171.571C172.162 187.273 173.298 189.364 176.662 189.364C181.026 189.364 184.071 185.864 184.071 180.318C184.071 174.818 181.026 171.318 176.616 171.318C173.207 171.318 172.162 173.409 171.571 174.318H171.344V165.727H168.662V189ZM171.298 180.273C171.298 176.364 173.026 173.727 176.298 173.727C179.707 173.727 181.389 176.591 181.389 180.273C181.389 184 179.662 186.955 176.298 186.955C173.071 186.955 171.298 184.227 171.298 180.273ZM188.173 189H190.855V171.545H188.173V189ZM189.537 168.636C190.582 168.636 191.446 167.818 191.446 166.818C191.446 165.818 190.582 165 189.537 165C188.491 165 187.628 165.818 187.628 166.818C187.628 167.818 188.491 168.636 189.537 168.636ZM200.903 189.409C203.949 189.409 205.54 187.773 206.085 186.636H206.222V189H208.903V177.5C208.903 171.955 204.676 171.318 202.449 171.318C199.812 171.318 196.812 172.227 195.449 175.409L197.994 176.318C198.585 175.045 199.983 173.682 202.54 173.682C205.006 173.682 206.222 174.989 206.222 177.227V177.318C206.222 178.614 204.903 178.5 201.722 178.909C198.483 179.33 194.949 180.045 194.949 184.045C194.949 187.455 197.585 189.409 200.903 189.409ZM201.312 187C199.176 187 197.631 186.045 197.631 184.182C197.631 182.136 199.494 181.5 201.585 181.227C202.722 181.091 205.767 180.773 206.222 180.227V182.682C206.222 184.864 204.494 187 201.312 187ZM226.162 175.455C225.321 172.977 223.435 171.318 219.98 171.318C216.298 171.318 213.571 173.409 213.571 176.364C213.571 178.773 215.003 180.386 218.207 181.136L221.116 181.818C222.878 182.227 223.707 183.068 223.707 184.273C223.707 185.773 222.116 187 219.616 187C217.423 187 216.048 186.057 215.571 184.182L213.026 184.818C213.651 187.784 216.094 189.364 219.662 189.364C223.719 189.364 226.48 187.148 226.48 184.136C226.48 181.705 224.957 180.17 221.844 179.409L219.253 178.773C217.185 178.261 216.253 177.568 216.253 176.227C216.253 174.727 217.844 173.636 219.98 173.636C222.321 173.636 223.287 174.932 223.753 176.136L226.162 175.455ZM240.517 177.773H230.335V180.273H240.517V177.773ZM253.009 171.545H249.099V169.773C249.099 168.045 249.827 167.136 251.599 167.136C252.372 167.136 252.827 167.318 253.099 167.409L253.872 165.091C253.463 164.909 252.645 164.636 251.327 164.636C248.827 164.636 246.418 166.136 246.418 169.136V171.545H243.599V173.818H246.418V189H249.099V173.818H253.009V171.545ZM256.767 189H259.449V177.955C259.449 175.591 261.312 173.864 263.858 173.864C264.574 173.864 265.312 174 265.494 174.045V171.318C265.188 171.295 264.483 171.273 264.085 171.273C261.994 171.273 260.176 172.455 259.54 174.182H259.358V171.545H256.767V189ZM275.46 189.364C279.006 189.364 281.597 187.591 282.415 184.955L279.824 184.227C279.142 186.045 277.562 186.955 275.46 186.955C272.312 186.955 270.142 184.92 270.017 181.182H282.688V180.045C282.688 173.545 278.824 171.318 275.188 171.318C270.46 171.318 267.324 175.045 267.324 180.409C267.324 185.773 270.415 189.364 275.46 189.364ZM270.017 178.864C270.199 176.148 272.119 173.727 275.188 173.727C278.097 173.727 279.96 175.909 279.96 178.864H270.017ZM294.085 189.364C297.631 189.364 300.222 187.591 301.04 184.955L298.449 184.227C297.767 186.045 296.188 186.955 294.085 186.955C290.938 186.955 288.767 184.92 288.642 181.182H301.312V180.045C301.312 173.545 297.449 171.318 293.812 171.318C289.085 171.318 285.949 175.045 285.949 180.409C285.949 185.773 289.04 189.364 294.085 189.364ZM288.642 178.864C288.824 176.148 290.744 173.727 293.812 173.727C296.722 173.727 298.585 175.909 298.585 178.864H288.642ZM319.528 189.409C322.574 189.409 324.165 187.773 324.71 186.636H324.847V189H327.528V177.5C327.528 171.955 323.301 171.318 321.074 171.318C318.438 171.318 315.438 172.227 314.074 175.409L316.619 176.318C317.21 175.045 318.608 173.682 321.165 173.682C323.631 173.682 324.847 174.989 324.847 177.227V177.318C324.847 178.614 323.528 178.5 320.347 178.909C317.108 179.33 313.574 180.045 313.574 184.045C313.574 187.455 316.21 189.409 319.528 189.409ZM319.938 187C317.801 187 316.256 186.045 316.256 184.182C316.256 182.136 318.119 181.5 320.21 181.227C321.347 181.091 324.392 180.773 324.847 180.227V182.682C324.847 184.864 323.119 187 319.938 187ZM335.105 178.5C335.105 175.455 336.991 173.727 339.56 173.727C342.048 173.727 343.56 175.352 343.56 178.091V189H346.241V177.909C346.241 173.455 343.866 171.318 340.332 171.318C337.696 171.318 336.06 172.5 335.241 174.273H335.014V171.545H332.423V189H335.105V178.5ZM357.733 189.364C361.097 189.364 362.233 187.273 362.824 186.318H363.142V189H365.733V165.727H363.051V174.318H362.824C362.233 173.409 361.188 171.318 357.778 171.318C353.369 171.318 350.324 174.818 350.324 180.318C350.324 185.864 353.369 189.364 357.733 189.364ZM358.097 186.955C354.733 186.955 353.006 184 353.006 180.273C353.006 176.591 354.688 173.727 358.097 173.727C361.369 173.727 363.097 176.364 363.097 180.273C363.097 184.227 361.324 186.955 358.097 186.955ZM386.608 189.364C389.972 189.364 391.108 187.273 391.699 186.318H392.017V189H394.608V165.727H391.926V174.318H391.699C391.108 173.409 390.062 171.318 386.653 171.318C382.244 171.318 379.199 174.818 379.199 180.318C379.199 185.864 382.244 189.364 386.608 189.364ZM386.972 186.955C383.608 186.955 381.881 184 381.881 180.273C381.881 176.591 383.562 173.727 386.972 173.727C390.244 173.727 391.972 176.364 391.972 180.273C391.972 184.227 390.199 186.955 386.972 186.955ZM399.892 189H402.574V171.545H399.892V189ZM401.256 168.636C402.301 168.636 403.165 167.818 403.165 166.818C403.165 165.818 402.301 165 401.256 165C400.21 165 399.347 165.818 399.347 166.818C399.347 167.818 400.21 168.636 401.256 168.636ZM419.849 175.455C419.009 172.977 417.122 171.318 413.668 171.318C409.986 171.318 407.259 173.409 407.259 176.364C407.259 178.773 408.69 180.386 411.895 181.136L414.804 181.818C416.565 182.227 417.395 183.068 417.395 184.273C417.395 185.773 415.804 187 413.304 187C411.111 187 409.736 186.057 409.259 184.182L406.713 184.818C407.338 187.784 409.781 189.364 413.349 189.364C417.406 189.364 420.168 187.148 420.168 184.136C420.168 181.705 418.645 180.17 415.531 179.409L412.94 178.773C410.872 178.261 409.94 177.568 409.94 176.227C409.94 174.727 411.531 173.636 413.668 173.636C416.009 173.636 416.974 174.932 417.44 176.136L419.849 175.455ZM424.205 189H426.886V171.545H424.205V189ZM425.568 168.636C426.614 168.636 427.477 167.818 427.477 166.818C427.477 165.818 426.614 165 425.568 165C424.523 165 423.659 165.818 423.659 166.818C423.659 167.818 424.523 168.636 425.568 168.636ZM434.48 178.5C434.48 175.455 436.366 173.727 438.935 173.727C441.423 173.727 442.935 175.352 442.935 178.091V189H445.616V177.909C445.616 173.455 443.241 171.318 439.707 171.318C437.071 171.318 435.435 172.5 434.616 174.273H434.389V171.545H431.798V189H434.48V178.5ZM458.29 171.545H454.381V169.773C454.381 168.045 455.108 167.136 456.881 167.136C457.653 167.136 458.108 167.318 458.381 167.409L459.153 165.091C458.744 164.909 457.926 164.636 456.608 164.636C454.108 164.636 451.699 166.136 451.699 169.136V171.545H448.881V173.818H451.699V189H454.381V173.818H458.29V171.545ZM468.42 189.364C473.148 189.364 476.33 185.773 476.33 180.364C476.33 174.909 473.148 171.318 468.42 171.318C463.693 171.318 460.511 174.909 460.511 180.364C460.511 185.773 463.693 189.364 468.42 189.364ZM468.42 186.955C464.83 186.955 463.193 183.864 463.193 180.364C463.193 176.864 464.83 173.727 468.42 173.727C472.011 173.727 473.648 176.864 473.648 180.364C473.648 183.864 472.011 186.955 468.42 186.955ZM480.423 189H483.105V177.955C483.105 175.591 484.969 173.864 487.514 173.864C488.23 173.864 488.969 174 489.151 174.045V171.318C488.844 171.295 488.139 171.273 487.741 171.273C485.651 171.273 483.832 172.455 483.196 174.182H483.014V171.545H480.423V189ZM492.33 189H495.011V178.091C495.011 175.534 496.875 173.727 498.966 173.727C501 173.727 502.42 175.057 502.42 177.045V189H505.148V177.636C505.148 175.386 506.557 173.727 509.011 173.727C510.92 173.727 512.557 174.739 512.557 177.318V189H515.239V177.318C515.239 173.216 513.034 171.318 509.92 171.318C507.42 171.318 505.591 172.466 504.693 174.273H504.511C503.648 172.409 502.125 171.318 499.83 171.318C497.557 171.318 495.875 172.409 495.148 174.273H494.92V171.545H492.33V189ZM525.278 189.409C528.324 189.409 529.915 187.773 530.46 186.636H530.597V189H533.278V177.5C533.278 171.955 529.051 171.318 526.824 171.318C524.188 171.318 521.188 172.227 519.824 175.409L522.369 176.318C522.96 175.045 524.358 173.682 526.915 173.682C529.381 173.682 530.597 174.989 530.597 177.227V177.318C530.597 178.614 529.278 178.5 526.097 178.909C522.858 179.33 519.324 180.045 519.324 184.045C519.324 187.455 521.96 189.409 525.278 189.409ZM525.688 187C523.551 187 522.006 186.045 522.006 184.182C522.006 182.136 523.869 181.5 525.96 181.227C527.097 181.091 530.142 180.773 530.597 180.227V182.682C530.597 184.864 528.869 187 525.688 187ZM545.764 171.545H542.037V167.364H539.355V171.545H536.719V173.818H539.355V184.727C539.355 187.773 541.81 189.227 544.082 189.227C545.082 189.227 545.719 189.045 546.082 188.909L545.537 186.5C545.31 186.545 544.946 186.636 544.355 186.636C543.173 186.636 542.037 186.273 542.037 184V173.818H545.764V171.545ZM549.798 189H552.48V171.545H549.798V189ZM551.162 168.636C552.207 168.636 553.071 167.818 553.071 166.818C553.071 165.818 552.207 165 551.162 165C550.116 165 549.253 165.818 549.253 166.818C549.253 167.818 550.116 168.636 551.162 168.636ZM564.483 189.364C569.21 189.364 572.392 185.773 572.392 180.364C572.392 174.909 569.21 171.318 564.483 171.318C559.756 171.318 556.574 174.909 556.574 180.364C556.574 185.773 559.756 189.364 564.483 189.364ZM564.483 186.955C560.892 186.955 559.256 183.864 559.256 180.364C559.256 176.864 560.892 173.727 564.483 173.727C568.074 173.727 569.71 176.864 569.71 180.364C569.71 183.864 568.074 186.955 564.483 186.955ZM579.168 178.5C579.168 175.455 581.054 173.727 583.622 173.727C586.111 173.727 587.622 175.352 587.622 178.091V189H590.304V177.909C590.304 173.455 587.929 171.318 584.395 171.318C581.759 171.318 580.122 172.5 579.304 174.273H579.077V171.545H576.486V189H579.168V178.5ZM605.205 177.773H595.023V180.273H605.205V177.773ZM617.696 171.545H613.787V169.773C613.787 168.045 614.514 167.136 616.287 167.136C617.06 167.136 617.514 167.318 617.787 167.409L618.56 165.091C618.151 164.909 617.332 164.636 616.014 164.636C613.514 164.636 611.105 166.136 611.105 169.136V171.545H608.287V173.818H611.105V189H613.787V173.818H617.696V171.545ZM621.455 189H624.136V177.955C624.136 175.591 626 173.864 628.545 173.864C629.261 173.864 630 174 630.182 174.045V171.318C629.875 171.295 629.17 171.273 628.773 171.273C626.682 171.273 624.864 172.455 624.227 174.182H624.045V171.545H621.455V189ZM640.148 189.364C643.693 189.364 646.284 187.591 647.102 184.955L644.511 184.227C643.83 186.045 642.25 186.955 640.148 186.955C637 186.955 634.83 184.92 634.705 181.182H647.375V180.045C647.375 173.545 643.511 171.318 639.875 171.318C635.148 171.318 632.011 175.045 632.011 180.409C632.011 185.773 635.102 189.364 640.148 189.364ZM634.705 178.864C634.886 176.148 636.807 173.727 639.875 173.727C642.784 173.727 644.648 175.909 644.648 178.864H634.705ZM658.773 189.364C662.318 189.364 664.909 187.591 665.727 184.955L663.136 184.227C662.455 186.045 660.875 186.955 658.773 186.955C655.625 186.955 653.455 184.92 653.33 181.182H666V180.045C666 173.545 662.136 171.318 658.5 171.318C653.773 171.318 650.636 175.045 650.636 180.409C650.636 185.773 653.727 189.364 658.773 189.364ZM653.33 178.864C653.511 176.148 655.432 173.727 658.5 173.727C661.409 173.727 663.273 175.909 663.273 178.864H653.33ZM686.398 189.364C689.943 189.364 692.534 187.591 693.352 184.955L690.761 184.227C690.08 186.045 688.5 186.955 686.398 186.955C683.25 186.955 681.08 184.92 680.955 181.182H693.625V180.045C693.625 173.545 689.761 171.318 686.125 171.318C681.398 171.318 678.261 175.045 678.261 180.409C678.261 185.773 681.352 189.364 686.398 189.364ZM680.955 178.864C681.136 176.148 683.057 173.727 686.125 173.727C689.034 173.727 690.898 175.909 690.898 178.864H680.955ZM700.386 165.727H697.705V189H700.386V165.727ZM712.616 189.364C716.162 189.364 718.753 187.591 719.571 184.955L716.98 184.227C716.298 186.045 714.719 186.955 712.616 186.955C709.469 186.955 707.298 184.92 707.173 181.182H719.844V180.045C719.844 173.545 715.98 171.318 712.344 171.318C707.616 171.318 704.48 175.045 704.48 180.409C704.48 185.773 707.571 189.364 712.616 189.364ZM707.173 178.864C707.355 176.148 709.276 173.727 712.344 173.727C715.253 173.727 717.116 175.909 717.116 178.864H707.173ZM731.014 189.364C734.878 189.364 737.423 187 737.878 183.909H735.196C734.696 185.818 733.105 186.955 731.014 186.955C727.832 186.955 725.787 184.318 725.787 180.273C725.787 176.318 727.878 173.727 731.014 173.727C733.378 173.727 734.787 175.182 735.196 176.773H737.878C737.423 173.5 734.651 171.318 730.969 171.318C726.241 171.318 723.105 175.045 723.105 180.364C723.105 185.591 726.105 189.364 731.014 189.364ZM749.389 171.545H745.662V167.364H742.98V171.545H740.344V173.818H742.98V184.727C742.98 187.773 745.435 189.227 747.707 189.227C748.707 189.227 749.344 189.045 749.707 188.909L749.162 186.5C748.935 186.545 748.571 186.636 747.98 186.636C746.798 186.636 745.662 186.273 745.662 184V173.818H749.389V171.545ZM753.423 189H756.105V171.545H753.423V189ZM754.787 168.636C755.832 168.636 756.696 167.818 756.696 166.818C756.696 165.818 755.832 165 754.787 165C753.741 165 752.878 165.818 752.878 166.818C752.878 167.818 753.741 168.636 754.787 168.636ZM768.108 189.364C772.835 189.364 776.017 185.773 776.017 180.364C776.017 174.909 772.835 171.318 768.108 171.318C763.381 171.318 760.199 174.909 760.199 180.364C760.199 185.773 763.381 189.364 768.108 189.364ZM768.108 186.955C764.517 186.955 762.881 183.864 762.881 180.364C762.881 176.864 764.517 173.727 768.108 173.727C771.699 173.727 773.335 176.864 773.335 180.364C773.335 183.864 771.699 186.955 768.108 186.955ZM782.793 178.5C782.793 175.455 784.679 173.727 787.247 173.727C789.736 173.727 791.247 175.352 791.247 178.091V189H793.929V177.909C793.929 173.455 791.554 171.318 788.02 171.318C785.384 171.318 783.747 172.5 782.929 174.273H782.702V171.545H780.111V189H782.793V178.5ZM814.92 189.364C818.784 189.364 821.33 187 821.784 183.909H819.102C818.602 185.818 817.011 186.955 814.92 186.955C811.739 186.955 809.693 184.318 809.693 180.273C809.693 176.318 811.784 173.727 814.92 173.727C817.284 173.727 818.693 175.182 819.102 176.773H821.784C821.33 173.5 818.557 171.318 814.875 171.318C810.148 171.318 807.011 175.045 807.011 180.364C807.011 185.591 810.011 189.364 814.92 189.364ZM832.795 189.364C837.523 189.364 840.705 185.773 840.705 180.364C840.705 174.909 837.523 171.318 832.795 171.318C828.068 171.318 824.886 174.909 824.886 180.364C824.886 185.773 828.068 189.364 832.795 189.364ZM832.795 186.955C829.205 186.955 827.568 183.864 827.568 180.364C827.568 176.864 829.205 173.727 832.795 173.727C836.386 173.727 838.023 176.864 838.023 180.364C838.023 183.864 836.386 186.955 832.795 186.955ZM847.48 178.5C847.48 175.455 849.366 173.727 851.935 173.727C854.423 173.727 855.935 175.352 855.935 178.091V189H858.616V177.909C858.616 173.455 856.241 171.318 852.707 171.318C850.071 171.318 848.435 172.5 847.616 174.273H847.389V171.545H844.798V189H847.48V178.5ZM871.108 171.545H867.381V167.364H864.699V171.545H862.062V173.818H864.699V184.727C864.699 187.773 867.153 189.227 869.426 189.227C870.426 189.227 871.062 189.045 871.426 188.909L870.881 186.5C870.653 186.545 870.29 186.636 869.699 186.636C868.517 186.636 867.381 186.273 867.381 184V173.818H871.108V171.545ZM882.273 189.364C885.818 189.364 888.409 187.591 889.227 184.955L886.636 184.227C885.955 186.045 884.375 186.955 882.273 186.955C879.125 186.955 876.955 184.92 876.83 181.182H889.5V180.045C889.5 173.545 885.636 171.318 882 171.318C877.273 171.318 874.136 175.045 874.136 180.409C874.136 185.773 877.227 189.364 882.273 189.364ZM876.83 178.864C877.011 176.148 878.932 173.727 882 173.727C884.909 173.727 886.773 175.909 886.773 178.864H876.83ZM896.261 178.5C896.261 175.455 898.148 173.727 900.716 173.727C903.205 173.727 904.716 175.352 904.716 178.091V189H907.398V177.909C907.398 173.455 905.023 171.318 901.489 171.318C898.852 171.318 897.216 172.5 896.398 174.273H896.17V171.545H893.58V189H896.261V178.5ZM919.889 171.545H916.162V167.364H913.48V171.545H910.844V173.818H913.48V184.727C913.48 187.773 915.935 189.227 918.207 189.227C919.207 189.227 919.844 189.045 920.207 188.909L919.662 186.5C919.435 186.545 919.071 186.636 918.48 186.636C917.298 186.636 916.162 186.273 916.162 184V173.818H919.889V171.545ZM938.06 189.409C941.105 189.409 942.696 187.773 943.241 186.636H943.378V189H946.06V177.5C946.06 171.955 941.832 171.318 939.605 171.318C936.969 171.318 933.969 172.227 932.605 175.409L935.151 176.318C935.741 175.045 937.139 173.682 939.696 173.682C942.162 173.682 943.378 174.989 943.378 177.227V177.318C943.378 178.614 942.06 178.5 938.878 178.909C935.639 179.33 932.105 180.045 932.105 184.045C932.105 187.455 934.741 189.409 938.06 189.409ZM938.469 187C936.332 187 934.787 186.045 934.787 184.182C934.787 182.136 936.651 181.5 938.741 181.227C939.878 181.091 942.923 180.773 943.378 180.227V182.682C943.378 184.864 941.651 187 938.469 187ZM953.636 178.5C953.636 175.455 955.523 173.727 958.091 173.727C960.58 173.727 962.091 175.352 962.091 178.091V189H964.773V177.909C964.773 173.455 962.398 171.318 958.864 171.318C956.227 171.318 954.591 172.5 953.773 174.273H953.545V171.545H950.955V189H953.636V178.5ZM976.264 189.364C979.628 189.364 980.764 187.273 981.355 186.318H981.673V189H984.264V165.727H981.582V174.318H981.355C980.764 173.409 979.719 171.318 976.31 171.318C971.901 171.318 968.855 174.818 968.855 180.318C968.855 185.864 971.901 189.364 976.264 189.364ZM976.628 186.955C973.264 186.955 971.537 184 971.537 180.273C971.537 176.591 973.219 173.727 976.628 173.727C979.901 173.727 981.628 176.364 981.628 180.273C981.628 184.227 979.855 186.955 976.628 186.955ZM998.548 189H1001.23V171.545H998.548V189ZM999.912 168.636C1000.96 168.636 1001.82 167.818 1001.82 166.818C1001.82 165.818 1000.96 165 999.912 165C998.866 165 998.003 165.818 998.003 166.818C998.003 167.818 998.866 168.636 999.912 168.636ZM1008.82 178.5C1008.82 175.455 1010.71 173.727 1013.28 173.727C1015.77 173.727 1017.28 175.352 1017.28 178.091V189H1019.96V177.909C1019.96 173.455 1017.59 171.318 1014.05 171.318C1011.41 171.318 1009.78 172.5 1008.96 174.273H1008.73V171.545H1006.14V189H1008.82V178.5ZM1037.22 175.455C1036.38 172.977 1034.5 171.318 1031.04 171.318C1027.36 171.318 1024.63 173.409 1024.63 176.364C1024.63 178.773 1026.07 180.386 1029.27 181.136L1032.18 181.818C1033.94 182.227 1034.77 183.068 1034.77 184.273C1034.77 185.773 1033.18 187 1030.68 187C1028.49 187 1027.11 186.057 1026.63 184.182L1024.09 184.818C1024.71 187.784 1027.16 189.364 1030.72 189.364C1034.78 189.364 1037.54 187.148 1037.54 184.136C1037.54 181.705 1036.02 180.17 1032.91 179.409L1030.32 178.773C1028.25 178.261 1027.32 177.568 1027.32 176.227C1027.32 174.727 1028.91 173.636 1031.04 173.636C1033.38 173.636 1034.35 174.932 1034.82 176.136L1037.22 175.455ZM1041.58 195.545H1044.26V186.318H1044.49C1045.08 187.273 1046.22 189.364 1049.58 189.364C1053.94 189.364 1056.99 185.864 1056.99 180.318C1056.99 174.818 1053.94 171.318 1049.53 171.318C1046.12 171.318 1045.08 173.409 1044.49 174.318H1044.17V171.545H1041.58V195.545ZM1044.22 180.273C1044.22 176.364 1045.94 173.727 1049.22 173.727C1052.62 173.727 1054.31 176.591 1054.31 180.273C1054.31 184 1052.58 186.955 1049.22 186.955C1045.99 186.955 1044.22 184.227 1044.22 180.273ZM1061.08 189H1063.76V171.545H1061.08V189ZM1062.44 168.636C1063.49 168.636 1064.35 167.818 1064.35 166.818C1064.35 165.818 1063.49 165 1062.44 165C1061.4 165 1060.53 165.818 1060.53 166.818C1060.53 167.818 1061.4 168.636 1062.44 168.636ZM1068.67 189H1071.36V177.955C1071.36 175.591 1073.22 173.864 1075.76 173.864C1076.48 173.864 1077.22 174 1077.4 174.045V171.318C1077.09 171.295 1076.39 171.273 1075.99 171.273C1073.9 171.273 1072.08 172.455 1071.45 174.182H1071.26V171.545H1068.67V189ZM1087.37 189.364C1090.91 189.364 1093.5 187.591 1094.32 184.955L1091.73 184.227C1091.05 186.045 1089.47 186.955 1087.37 186.955C1084.22 186.955 1082.05 184.92 1081.92 181.182H1094.59V180.045C1094.59 173.545 1090.73 171.318 1087.09 171.318C1082.37 171.318 1079.23 175.045 1079.23 180.409C1079.23 185.773 1082.32 189.364 1087.37 189.364ZM1081.92 178.864C1082.11 176.148 1084.03 173.727 1087.09 173.727C1090 173.727 1091.87 175.909 1091.87 178.864H1081.92ZM58.5909 228.409C61.6364 228.409 63.2273 226.773 63.7727 225.636H63.9091V228H66.5909V216.5C66.5909 210.955 62.3636 210.318 60.1364 210.318C57.5 210.318 54.5 211.227 53.1364 214.409L55.6818 215.318C56.2727 214.045 57.6705 212.682 60.2273 212.682C62.6932 212.682 63.9091 213.989 63.9091 216.227V216.318C63.9091 217.614 62.5909 217.5 59.4091 217.909C56.1705 218.33 52.6364 219.045 52.6364 223.045C52.6364 226.455 55.2727 228.409 58.5909 228.409ZM59 226C56.8636 226 55.3182 225.045 55.3182 223.182C55.3182 221.136 57.1818 220.5 59.2727 220.227C60.4091 220.091 63.4545 219.773 63.9091 219.227V221.682C63.9091 223.864 62.1818 226 59 226ZM92.8494 214.455C92.0085 211.977 90.1222 210.318 86.6676 210.318C82.9858 210.318 80.2585 212.409 80.2585 215.364C80.2585 217.773 81.6903 219.386 84.8949 220.136L87.804 220.818C89.5653 221.227 90.3949 222.068 90.3949 223.273C90.3949 224.773 88.804 226 86.304 226C84.1108 226 82.7358 225.057 82.2585 223.182L79.7131 223.818C80.3381 226.784 82.7812 228.364 86.3494 228.364C90.4062 228.364 93.1676 226.148 93.1676 223.136C93.1676 220.705 91.6449 219.17 88.5312 218.409L85.9403 217.773C83.8722 217.261 82.9403 216.568 82.9403 215.227C82.9403 213.727 84.5312 212.636 86.6676 212.636C89.0085 212.636 89.9744 213.932 90.4403 215.136L92.8494 214.455ZM104.523 228.364C108.068 228.364 110.659 226.591 111.477 223.955L108.886 223.227C108.205 225.045 106.625 225.955 104.523 225.955C101.375 225.955 99.2045 223.92 99.0795 220.182H111.75V219.045C111.75 212.545 107.886 210.318 104.25 210.318C99.5227 210.318 96.3864 214.045 96.3864 219.409C96.3864 224.773 99.4773 228.364 104.523 228.364ZM99.0795 217.864C99.2614 215.148 101.182 212.727 104.25 212.727C107.159 212.727 109.023 214.909 109.023 217.864H99.0795ZM118.511 217.5C118.511 214.455 120.398 212.727 122.966 212.727C125.455 212.727 126.966 214.352 126.966 217.091V228H129.648V216.909C129.648 212.455 127.273 210.318 123.739 210.318C121.102 210.318 119.466 211.5 118.648 213.273H118.42V210.545H115.83V228H118.511V217.5ZM146.912 214.455C146.071 211.977 144.185 210.318 140.73 210.318C137.048 210.318 134.321 212.409 134.321 215.364C134.321 217.773 135.753 219.386 138.957 220.136L141.866 220.818C143.628 221.227 144.457 222.068 144.457 223.273C144.457 224.773 142.866 226 140.366 226C138.173 226 136.798 225.057 136.321 223.182L133.776 223.818C134.401 226.784 136.844 228.364 140.412 228.364C144.469 228.364 147.23 226.148 147.23 223.136C147.23 220.705 145.707 219.17 142.594 218.409L140.003 217.773C137.935 217.261 137.003 216.568 137.003 215.227C137.003 213.727 138.594 212.636 140.73 212.636C143.071 212.636 144.037 213.932 144.503 215.136L146.912 214.455ZM158.585 228.364C162.131 228.364 164.722 226.591 165.54 223.955L162.949 223.227C162.267 225.045 160.688 225.955 158.585 225.955C155.438 225.955 153.267 223.92 153.142 220.182H165.812V219.045C165.812 212.545 161.949 210.318 158.312 210.318C153.585 210.318 150.449 214.045 150.449 219.409C150.449 224.773 153.54 228.364 158.585 228.364ZM153.142 217.864C153.324 215.148 155.244 212.727 158.312 212.727C161.222 212.727 163.085 214.909 163.085 217.864H153.142ZM185.983 228.364C190.71 228.364 193.892 224.773 193.892 219.364C193.892 213.909 190.71 210.318 185.983 210.318C181.256 210.318 178.074 213.909 178.074 219.364C178.074 224.773 181.256 228.364 185.983 228.364ZM185.983 225.955C182.392 225.955 180.756 222.864 180.756 219.364C180.756 215.864 182.392 212.727 185.983 212.727C189.574 212.727 191.21 215.864 191.21 219.364C191.21 222.864 189.574 225.955 185.983 225.955ZM205.759 210.545H201.849V208.773C201.849 207.045 202.577 206.136 204.349 206.136C205.122 206.136 205.577 206.318 205.849 206.409L206.622 204.091C206.213 203.909 205.395 203.636 204.077 203.636C201.577 203.636 199.168 205.136 199.168 208.136V210.545H196.349V212.818H199.168V228H201.849V212.818H205.759V210.545ZM226.108 210.545H222.381V206.364H219.699V210.545H217.062V212.818H219.699V223.727C219.699 226.773 222.153 228.227 224.426 228.227C225.426 228.227 226.062 228.045 226.426 227.909L225.881 225.5C225.653 225.545 225.29 225.636 224.699 225.636C223.517 225.636 222.381 225.273 222.381 223V212.818H226.108V210.545ZM230.142 228H232.824V216.955C232.824 214.591 234.688 212.864 237.233 212.864C237.949 212.864 238.688 213 238.869 213.045V210.318C238.562 210.295 237.858 210.273 237.46 210.273C235.369 210.273 233.551 211.455 232.915 213.182H232.733V210.545H230.142V228ZM253.048 220.864C253.048 224.136 250.548 225.636 248.548 225.636C246.321 225.636 244.73 224 244.73 221.455V210.545H242.048V221.636C242.048 226.091 244.412 228.227 247.685 228.227C250.321 228.227 252.048 226.818 252.866 225.045H253.048V228H255.73V210.545H253.048V220.864ZM273.006 214.455C272.165 211.977 270.278 210.318 266.824 210.318C263.142 210.318 260.415 212.409 260.415 215.364C260.415 217.773 261.847 219.386 265.051 220.136L267.96 220.818C269.722 221.227 270.551 222.068 270.551 223.273C270.551 224.773 268.96 226 266.46 226C264.267 226 262.892 225.057 262.415 223.182L259.869 223.818C260.494 226.784 262.938 228.364 266.506 228.364C270.562 228.364 273.324 226.148 273.324 223.136C273.324 220.705 271.801 219.17 268.688 218.409L266.097 217.773C264.028 217.261 263.097 216.568 263.097 215.227C263.097 213.727 264.688 212.636 266.824 212.636C269.165 212.636 270.131 213.932 270.597 215.136L273.006 214.455ZM284.952 210.545H281.224V206.364H278.543V210.545H275.906V212.818H278.543V223.727C278.543 226.773 280.997 228.227 283.27 228.227C284.27 228.227 284.906 228.045 285.27 227.909L284.724 225.5C284.497 225.545 284.134 225.636 283.543 225.636C282.361 225.636 281.224 225.273 281.224 223V212.818H284.952V210.545ZM301.94 228H304.577L308.395 214.591H308.668L312.486 228H315.122L320.44 210.545H317.622L313.849 223.864H313.668L309.986 210.545H307.122L303.395 223.909H303.213L299.44 210.545H296.622L301.94 228ZM323.986 228H326.668V210.545H323.986V228ZM325.349 207.636C326.395 207.636 327.259 206.818 327.259 205.818C327.259 204.818 326.395 204 325.349 204C324.304 204 323.44 204.818 323.44 205.818C323.44 206.818 324.304 207.636 325.349 207.636ZM339.17 210.545H335.443V206.364H332.761V210.545H330.125V212.818H332.761V223.727C332.761 226.773 335.216 228.227 337.489 228.227C338.489 228.227 339.125 228.045 339.489 227.909L338.943 225.5C338.716 225.545 338.352 225.636 337.761 225.636C336.58 225.636 335.443 225.273 335.443 223V212.818H339.17V210.545ZM346.261 217.5C346.261 214.455 348.205 212.727 350.852 212.727C353.375 212.727 354.898 214.318 354.898 217.091V228H357.58V216.909C357.58 212.42 355.193 210.318 351.625 210.318C348.875 210.318 347.307 211.466 346.489 213.273H346.261V204.727H343.58V228H346.261V217.5ZM362.486 228H365.168V210.545H362.486V228ZM363.849 207.636C364.895 207.636 365.759 206.818 365.759 205.818C365.759 204.818 364.895 204 363.849 204C362.804 204 361.94 204.818 361.94 205.818C361.94 206.818 362.804 207.636 363.849 207.636ZM372.761 217.5C372.761 214.455 374.648 212.727 377.216 212.727C379.705 212.727 381.216 214.352 381.216 217.091V228H383.898V216.909C383.898 212.455 381.523 210.318 377.989 210.318C375.352 210.318 373.716 211.5 372.898 213.273H372.67V210.545H370.08V228H372.761V217.5ZM404.889 228.364C408.753 228.364 411.298 226 411.753 222.909H409.071C408.571 224.818 406.98 225.955 404.889 225.955C401.707 225.955 399.662 223.318 399.662 219.273C399.662 215.318 401.753 212.727 404.889 212.727C407.253 212.727 408.662 214.182 409.071 215.773H411.753C411.298 212.5 408.526 210.318 404.844 210.318C400.116 210.318 396.98 214.045 396.98 219.364C396.98 224.591 399.98 228.364 404.889 228.364ZM415.673 228H418.355V216.955C418.355 214.591 420.219 212.864 422.764 212.864C423.48 212.864 424.219 213 424.401 213.045V210.318C424.094 210.295 423.389 210.273 422.991 210.273C420.901 210.273 419.082 211.455 418.446 213.182H418.264V210.545H415.673V228ZM434.366 228.364C437.912 228.364 440.503 226.591 441.321 223.955L438.73 223.227C438.048 225.045 436.469 225.955 434.366 225.955C431.219 225.955 429.048 223.92 428.923 220.182H441.594V219.045C441.594 212.545 437.73 210.318 434.094 210.318C429.366 210.318 426.23 214.045 426.23 219.409C426.23 224.773 429.321 228.364 434.366 228.364ZM428.923 217.864C429.105 215.148 431.026 212.727 434.094 212.727C437.003 212.727 438.866 214.909 438.866 217.864H428.923ZM452.264 228.364C455.628 228.364 456.764 226.273 457.355 225.318H457.673V228H460.264V204.727H457.582V213.318H457.355C456.764 212.409 455.719 210.318 452.31 210.318C447.901 210.318 444.855 213.818 444.855 219.318C444.855 224.864 447.901 228.364 452.264 228.364ZM452.628 225.955C449.264 225.955 447.537 223 447.537 219.273C447.537 215.591 449.219 212.727 452.628 212.727C455.901 212.727 457.628 215.364 457.628 219.273C457.628 223.227 455.855 225.955 452.628 225.955ZM465.548 228H468.23V210.545H465.548V228ZM466.912 207.636C467.957 207.636 468.821 206.818 468.821 205.818C468.821 204.818 467.957 204 466.912 204C465.866 204 465.003 204.818 465.003 205.818C465.003 206.818 465.866 207.636 466.912 207.636ZM473.506 228H476.097V225.318H476.415C477.006 226.273 478.142 228.364 481.506 228.364C485.869 228.364 488.915 224.864 488.915 219.318C488.915 213.818 485.869 210.318 481.46 210.318C478.051 210.318 477.006 212.409 476.415 213.318H476.188V204.727H473.506V228ZM476.142 219.273C476.142 215.364 477.869 212.727 481.142 212.727C484.551 212.727 486.233 215.591 486.233 219.273C486.233 223 484.506 225.955 481.142 225.955C477.915 225.955 476.142 223.227 476.142 219.273ZM495.699 204.727H493.017V228H495.699V204.727ZM507.929 228.364C511.474 228.364 514.065 226.591 514.884 223.955L512.293 223.227C511.611 225.045 510.031 225.955 507.929 225.955C504.781 225.955 502.611 223.92 502.486 220.182H515.156V219.045C515.156 212.545 511.293 210.318 507.656 210.318C502.929 210.318 499.793 214.045 499.793 219.409C499.793 224.773 502.884 228.364 507.929 228.364ZM502.486 217.864C502.668 215.148 504.588 212.727 507.656 212.727C510.565 212.727 512.429 214.909 512.429 217.864H502.486ZM530.918 217.5C530.918 214.455 532.804 212.727 535.372 212.727C537.861 212.727 539.372 214.352 539.372 217.091V228H542.054V216.909C542.054 212.455 539.679 210.318 536.145 210.318C533.509 210.318 531.872 211.5 531.054 213.273H530.827V210.545H528.236V228H530.918V217.5ZM554.273 228.364C557.818 228.364 560.409 226.591 561.227 223.955L558.636 223.227C557.955 225.045 556.375 225.955 554.273 225.955C551.125 225.955 548.955 223.92 548.83 220.182H561.5V219.045C561.5 212.545 557.636 210.318 554 210.318C549.273 210.318 546.136 214.045 546.136 219.409C546.136 224.773 549.227 228.364 554.273 228.364ZM548.83 217.864C549.011 215.148 550.932 212.727 554 212.727C556.909 212.727 558.773 214.909 558.773 217.864H548.83ZM569.534 228H572.17L575.989 214.591H576.261L580.08 228H582.716L588.034 210.545H585.216L581.443 223.864H581.261L577.58 210.545H574.716L570.989 223.909H570.807L567.034 210.545H564.216L569.534 228ZM603.943 214.455C603.102 211.977 601.216 210.318 597.761 210.318C594.08 210.318 591.352 212.409 591.352 215.364C591.352 217.773 592.784 219.386 595.989 220.136L598.898 220.818C600.659 221.227 601.489 222.068 601.489 223.273C601.489 224.773 599.898 226 597.398 226C595.205 226 593.83 225.057 593.352 223.182L590.807 223.818C591.432 226.784 593.875 228.364 597.443 228.364C601.5 228.364 604.261 226.148 604.261 223.136C604.261 220.705 602.739 219.17 599.625 218.409L597.034 217.773C594.966 217.261 594.034 216.568 594.034 215.227C594.034 213.727 595.625 212.636 597.761 212.636C600.102 212.636 601.068 213.932 601.534 215.136L603.943 214.455ZM629.662 214.455C628.821 211.977 626.935 210.318 623.48 210.318C619.798 210.318 617.071 212.409 617.071 215.364C617.071 217.773 618.503 219.386 621.707 220.136L624.616 220.818C626.378 221.227 627.207 222.068 627.207 223.273C627.207 224.773 625.616 226 623.116 226C620.923 226 619.548 225.057 619.071 223.182L616.526 223.818C617.151 226.784 619.594 228.364 623.162 228.364C627.219 228.364 629.98 226.148 629.98 223.136C629.98 220.705 628.457 219.17 625.344 218.409L622.753 217.773C620.685 217.261 619.753 216.568 619.753 215.227C619.753 213.727 621.344 212.636 623.48 212.636C625.821 212.636 626.787 213.932 627.253 215.136L629.662 214.455ZM641.108 228.364C645.835 228.364 649.017 224.773 649.017 219.364C649.017 213.909 645.835 210.318 641.108 210.318C636.381 210.318 633.199 213.909 633.199 219.364C633.199 224.773 636.381 228.364 641.108 228.364ZM641.108 225.955C637.517 225.955 635.881 222.864 635.881 219.364C635.881 215.864 637.517 212.727 641.108 212.727C644.699 212.727 646.335 215.864 646.335 219.364C646.335 222.864 644.699 225.955 641.108 225.955ZM664.111 220.864C664.111 224.136 661.611 225.636 659.611 225.636C657.384 225.636 655.793 224 655.793 221.455V210.545H653.111V221.636C653.111 226.091 655.474 228.227 658.747 228.227C661.384 228.227 663.111 226.818 663.929 225.045H664.111V228H666.793V210.545H664.111V220.864ZM671.705 228H674.386V216.955C674.386 214.591 676.25 212.864 678.795 212.864C679.511 212.864 680.25 213 680.432 213.045V210.318C680.125 210.295 679.42 210.273 679.023 210.273C676.932 210.273 675.114 211.455 674.477 213.182H674.295V210.545H671.705V228ZM690.17 228.364C694.034 228.364 696.58 226 697.034 222.909H694.352C693.852 224.818 692.261 225.955 690.17 225.955C686.989 225.955 684.943 223.318 684.943 219.273C684.943 215.318 687.034 212.727 690.17 212.727C692.534 212.727 693.943 214.182 694.352 215.773H697.034C696.58 212.5 693.807 210.318 690.125 210.318C685.398 210.318 682.261 214.045 682.261 219.364C682.261 224.591 685.261 228.364 690.17 228.364ZM708.273 228.364C711.818 228.364 714.409 226.591 715.227 223.955L712.636 223.227C711.955 225.045 710.375 225.955 708.273 225.955C705.125 225.955 702.955 223.92 702.83 220.182H715.5V219.045C715.5 212.545 711.636 210.318 708 210.318C703.273 210.318 700.136 214.045 700.136 219.409C700.136 224.773 703.227 228.364 708.273 228.364ZM702.83 217.864C703.011 215.148 704.932 212.727 708 212.727C710.909 212.727 712.773 214.909 712.773 217.864H702.83ZM731.943 214.455C731.102 211.977 729.216 210.318 725.761 210.318C722.08 210.318 719.352 212.409 719.352 215.364C719.352 217.773 720.784 219.386 723.989 220.136L726.898 220.818C728.659 221.227 729.489 222.068 729.489 223.273C729.489 224.773 727.898 226 725.398 226C723.205 226 721.83 225.057 721.352 223.182L718.807 223.818C719.432 226.784 721.875 228.364 725.443 228.364C729.5 228.364 732.261 226.148 732.261 223.136C732.261 220.705 730.739 219.17 727.625 218.409L725.034 217.773C722.966 217.261 722.034 216.568 722.034 215.227C722.034 213.727 723.625 212.636 725.761 212.636C728.102 212.636 729.068 213.932 729.534 215.136L731.943 214.455ZM738.253 228.182C739.378 228.182 740.298 227.261 740.298 226.136C740.298 225.011 739.378 224.091 738.253 224.091C737.128 224.091 736.207 225.011 736.207 226.136C736.207 227.261 737.128 228.182 738.253 228.182Z" fill="black"/>
</svg>
