<svg width="1166" height="199" viewBox="0 0 1166 199" fill="none" xmlns="http://www.w3.org/2000/svg">
<rect width="1166" height="199" fill="#F4F0E9"/>
<rect y="116" width="1166" height="83" fill="#658777"/>
<path d="M52.1932 148.495H58.9368V167H62.8572V148.495H69.6009V145.182H52.1932V148.495ZM79.4067 167H83.3591V157.732H93.4692V167H97.4322V145.182H93.4692V154.418H83.3591V145.182H79.4067V167ZM108.181 167H122.456V163.687H112.133V157.732H121.636V154.418H112.133V148.495H122.371V145.182H108.181V167ZM165.42 152.543C164.749 147.696 161.021 144.884 156.184 144.884C150.484 144.884 146.191 149.038 146.191 156.091C146.191 163.133 150.431 167.298 156.184 167.298C161.372 167.298 164.813 163.942 165.42 159.777L161.436 159.756C160.935 162.312 158.847 163.751 156.237 163.751C152.7 163.751 150.165 161.098 150.165 156.091C150.165 151.169 152.679 148.431 156.248 148.431C158.901 148.431 160.978 149.933 161.436 152.543H165.42ZM175.49 167H179.442V157.732H189.552V167H193.515V145.182H189.552V154.418H179.442V145.182H175.49V167ZM207.066 167L208.866 161.62H217.069L218.881 167H223.099L215.408 145.182H210.528L202.847 167H207.066ZM209.932 158.445L212.883 149.656H213.053L216.004 158.445H209.932ZM232.423 167H245.985V163.687H236.375V145.182H232.423V167ZM255.865 167H269.427V163.687H259.818V145.182H255.865V167ZM279.307 167H293.583V163.687H283.26V157.732H292.763V154.418H283.26V148.495H293.498V145.182H279.307V167ZM321.91 145.182H317.979V160.054H317.787L307.517 145.182H303.98V167H307.933V152.138H308.114L318.394 167H321.91V145.182ZM347.283 152.149H351.31C350.639 147.866 346.931 144.884 342.105 144.884C336.395 144.884 332.112 149.081 332.112 156.112C332.112 163.016 336.203 167.298 342.223 167.298C347.624 167.298 351.491 163.825 351.491 158.2V155.58H342.638V158.669H347.666C347.603 161.78 345.525 163.751 342.244 163.751C338.59 163.751 336.086 161.013 336.086 156.07C336.086 151.158 338.632 148.431 342.159 148.431C344.79 148.431 346.58 149.837 347.283 152.149ZM361.763 167H376.038V163.687H365.715V157.732H375.218V154.418H365.715V148.495H375.953V145.182H361.763V167ZM400.327 167H404.279V159.628H408.456C413.495 159.628 416.201 156.602 416.201 152.405C416.201 148.239 413.527 145.182 408.509 145.182H400.327V167ZM404.279 156.379V148.484H407.902C410.863 148.484 412.174 150.082 412.174 152.405C412.174 154.727 410.863 156.379 407.923 156.379H404.279ZM426.084 167H430.036V159.01H434.063L438.346 167H442.756L438.037 158.349C440.604 157.316 441.957 155.121 441.957 152.16C441.957 147.994 439.273 145.182 434.265 145.182H426.084V167ZM430.036 155.729V148.484H433.658C436.609 148.484 437.93 149.837 437.93 152.16C437.93 154.482 436.609 155.729 433.68 155.729H430.036ZM471.541 156.091C471.541 149.038 467.237 144.884 461.516 144.884C455.785 144.884 451.491 149.038 451.491 156.091C451.491 163.133 455.785 167.298 461.516 167.298C467.237 167.298 471.541 163.143 471.541 156.091ZM467.567 156.091C467.567 161.055 465.074 163.751 461.516 163.751C457.969 163.751 455.465 161.055 455.465 156.091C455.465 151.126 457.969 148.431 461.516 148.431C465.074 148.431 467.567 151.126 467.567 156.091ZM481.728 145.182V167H485.52V151.979H485.723L491.753 166.936H494.586L500.616 152.011H500.819V167H504.611V145.182H499.775L493.297 160.991H493.042L486.564 145.182H481.728ZM515.365 167H519.318V159.628H523.494C528.533 159.628 531.239 156.602 531.239 152.405C531.239 148.239 528.565 145.182 523.547 145.182H515.365V167ZM519.318 156.379V148.484H522.94C525.901 148.484 527.212 150.082 527.212 152.405C527.212 154.727 525.901 156.379 522.961 156.379H519.318ZM540.163 148.495H546.907V167H550.827V148.495H557.571V145.182H540.163V148.495Z" fill="white"/>
<path d="M34.5455 53H37.0909V50.9091C37.0909 49.2273 37.9091 47.7727 38.8636 46.4091L37.4091 45.2273C35.5909 46.6818 34.5455 49.0909 34.5455 50.9545V53ZM40.3636 53H42.9091V50.9091C42.9091 49.2273 43.7273 47.7727 44.6818 46.4091L43.2273 45.2273C41.4091 46.6818 40.3636 49.0909 40.3636 50.9545V53ZM48.0057 69H50.8239V58.5909H63.233V69H66.0511V45.7273H63.233V56.0909H50.8239V45.7273H48.0057V69ZM78.4205 69.3636C83.1477 69.3636 86.3295 65.7727 86.3295 60.3636C86.3295 54.9091 83.1477 51.3182 78.4205 51.3182C73.6932 51.3182 70.5114 54.9091 70.5114 60.3636C70.5114 65.7727 73.6932 69.3636 78.4205 69.3636ZM78.4205 66.9545C74.8295 66.9545 73.1932 63.8636 73.1932 60.3636C73.1932 56.8636 74.8295 53.7273 78.4205 53.7273C82.0114 53.7273 83.6477 56.8636 83.6477 60.3636C83.6477 63.8636 82.0114 66.9545 78.4205 66.9545ZM93.7841 69H96.4205L100.239 55.5909H100.511L104.33 69H106.966L112.284 51.5455H109.466L105.693 64.8636H105.511L101.83 51.5455H98.9659L95.2386 64.9091H95.0568L91.2841 51.5455H88.4659L93.7841 69ZM124.83 69H127.511V58.0909C127.511 55.5341 129.375 53.7273 131.466 53.7273C133.5 53.7273 134.92 55.0568 134.92 57.0455V69H137.648V57.6364C137.648 55.3864 139.057 53.7273 141.511 53.7273C143.42 53.7273 145.057 54.7386 145.057 57.3182V69H147.739V57.3182C147.739 53.2159 145.534 51.3182 142.42 51.3182C139.92 51.3182 138.091 52.4659 137.193 54.2727H137.011C136.148 52.4091 134.625 51.3182 132.33 51.3182C130.057 51.3182 128.375 52.4091 127.648 54.2727H127.42V51.5455H124.83V69ZM152.642 69H155.324V51.5455H152.642V69ZM154.006 48.6364C155.051 48.6364 155.915 47.8182 155.915 46.8182C155.915 45.8182 155.051 45 154.006 45C152.96 45 152.097 45.8182 152.097 46.8182C152.097 47.8182 152.96 48.6364 154.006 48.6364ZM167.281 75.9091C171.463 75.9091 174.827 74 174.827 69.5V51.5455H172.236V54.3182H171.963C171.372 53.4091 170.281 51.3182 166.872 51.3182C162.463 51.3182 159.418 54.8182 159.418 60.1818C159.418 65.6364 162.599 68.7273 166.827 68.7273C170.236 68.7273 171.327 66.7273 171.918 65.7727H172.145V69.3182C172.145 72.2273 170.099 73.5455 167.281 73.5455C164.111 73.5455 162.997 71.875 162.281 70.9091L160.145 72.4091C161.236 74.2386 163.384 75.9091 167.281 75.9091ZM167.19 66.3182C163.827 66.3182 162.099 63.7727 162.099 60.1364C162.099 56.5909 163.781 53.7273 167.19 53.7273C170.463 53.7273 172.19 56.3636 172.19 60.1364C172.19 64 170.418 66.3182 167.19 66.3182ZM182.418 58.5C182.418 55.4545 184.361 53.7273 187.009 53.7273C189.531 53.7273 191.054 55.3182 191.054 58.0909V69H193.736V57.9091C193.736 53.4205 191.349 51.3182 187.781 51.3182C185.031 51.3182 183.463 52.4659 182.645 54.2727H182.418V45.7273H179.736V69H182.418V58.5ZM206.233 51.5455H202.506V47.3636H199.824V51.5455H197.188V53.8182H199.824V64.7273C199.824 67.7727 202.278 69.2273 204.551 69.2273C205.551 69.2273 206.188 69.0455 206.551 68.9091L206.006 66.5C205.778 66.5455 205.415 66.6364 204.824 66.6364C203.642 66.6364 202.506 66.2727 202.506 64V53.8182H206.233V51.5455ZM218.358 48.2273H225.676V69H228.494V48.2273H235.812V45.7273H218.358V48.2273ZM247.344 69C254.435 69 258.435 64.5909 258.435 57.3182C258.435 50.0909 254.435 45.7273 247.662 45.7273H240.162V69H247.344ZM242.98 66.5V48.2273H247.48C252.935 48.2273 255.707 51.6818 255.707 57.3182C255.707 63 252.935 66.5 247.162 66.5H242.98ZM271.798 75.5455H274.48V66.3182H274.707C275.298 67.2727 276.435 69.3636 279.798 69.3636C284.162 69.3636 287.207 65.8636 287.207 60.3182C287.207 54.8182 284.162 51.3182 279.753 51.3182C276.344 51.3182 275.298 53.4091 274.707 54.3182H274.389V51.5455H271.798V75.5455ZM274.435 60.2727C274.435 56.3636 276.162 53.7273 279.435 53.7273C282.844 53.7273 284.526 56.5909 284.526 60.2727C284.526 64 282.798 66.9545 279.435 66.9545C276.207 66.9545 274.435 64.2273 274.435 60.2727ZM296.435 69.4091C299.48 69.4091 301.071 67.7727 301.616 66.6364H301.753V69H304.435V57.5C304.435 51.9545 300.207 51.3182 297.98 51.3182C295.344 51.3182 292.344 52.2273 290.98 55.4091L293.526 56.3182C294.116 55.0455 295.514 53.6818 298.071 53.6818C300.537 53.6818 301.753 54.9886 301.753 57.2273V57.3182C301.753 58.6136 300.435 58.5 297.253 58.9091C294.014 59.3295 290.48 60.0455 290.48 64.0455C290.48 67.4545 293.116 69.4091 296.435 69.4091ZM296.844 67C294.707 67 293.162 66.0455 293.162 64.1818C293.162 62.1364 295.026 61.5 297.116 61.2273C298.253 61.0909 301.298 60.7727 301.753 60.2273V62.6818C301.753 64.8636 300.026 67 296.844 67ZM309.33 69H312.011V57.9545C312.011 55.5909 313.875 53.8636 316.42 53.8636C317.136 53.8636 317.875 54 318.057 54.0455V51.3182C317.75 51.2955 317.045 51.2727 316.648 51.2727C314.557 51.2727 312.739 52.4545 312.102 54.1818H311.92V51.5455H309.33V69ZM329.92 51.5455H326.193V47.3636H323.511V51.5455H320.875V53.8182H323.511V64.7273C323.511 67.7727 325.966 69.2273 328.239 69.2273C329.239 69.2273 329.875 69.0455 330.239 68.9091L329.693 66.5C329.466 66.5455 329.102 66.6364 328.511 66.6364C327.33 66.6364 326.193 66.2727 326.193 64V53.8182H329.92V51.5455ZM336.636 58.5C336.636 55.4545 338.523 53.7273 341.091 53.7273C343.58 53.7273 345.091 55.3523 345.091 58.0909V69H347.773V57.9091C347.773 53.4545 345.398 51.3182 341.864 51.3182C339.227 51.3182 337.591 52.5 336.773 54.2727H336.545V51.5455H333.955V69H336.636V58.5ZM359.991 69.3636C363.537 69.3636 366.128 67.5909 366.946 64.9545L364.355 64.2273C363.673 66.0455 362.094 66.9545 359.991 66.9545C356.844 66.9545 354.673 64.9205 354.548 61.1818H367.219V60.0455C367.219 53.5455 363.355 51.3182 359.719 51.3182C354.991 51.3182 351.855 55.0455 351.855 60.4091C351.855 65.7727 354.946 69.3636 359.991 69.3636ZM354.548 58.8636C354.73 56.1477 356.651 53.7273 359.719 53.7273C362.628 53.7273 364.491 55.9091 364.491 58.8636H354.548ZM371.298 69H373.98V57.9545C373.98 55.5909 375.844 53.8636 378.389 53.8636C379.105 53.8636 379.844 54 380.026 54.0455V51.3182C379.719 51.2955 379.014 51.2727 378.616 51.2727C376.526 51.2727 374.707 52.4545 374.071 54.1818H373.889V51.5455H371.298V69ZM396.159 69H398.795L402.614 55.5909H402.886L406.705 69H409.341L414.659 51.5455H411.841L408.068 64.8636H407.886L404.205 51.5455H401.341L397.614 64.9091H397.432L393.659 51.5455H390.841L396.159 69ZM418.205 69H420.886V51.5455H418.205V69ZM419.568 48.6364C420.614 48.6364 421.477 47.8182 421.477 46.8182C421.477 45.8182 420.614 45 419.568 45C418.523 45 417.659 45.8182 417.659 46.8182C417.659 47.8182 418.523 48.6364 419.568 48.6364ZM433.389 51.5455H429.662V47.3636H426.98V51.5455H424.344V53.8182H426.98V64.7273C426.98 67.7727 429.435 69.2273 431.707 69.2273C432.707 69.2273 433.344 69.0455 433.707 68.9091L433.162 66.5C432.935 66.5455 432.571 66.6364 431.98 66.6364C430.798 66.6364 429.662 66.2727 429.662 64V53.8182H433.389V51.5455ZM440.48 58.5C440.48 55.4545 442.423 53.7273 445.071 53.7273C447.594 53.7273 449.116 55.3182 449.116 58.0909V69H451.798V57.9091C451.798 53.4205 449.412 51.3182 445.844 51.3182C443.094 51.3182 441.526 52.4659 440.707 54.2727H440.48V45.7273H437.798V69H440.48V58.5ZM472.795 69.3636C476.659 69.3636 479.205 67 479.659 63.9091H476.977C476.477 65.8182 474.886 66.9545 472.795 66.9545C469.614 66.9545 467.568 64.3182 467.568 60.2727C467.568 56.3182 469.659 53.7273 472.795 53.7273C475.159 53.7273 476.568 55.1818 476.977 56.7727H479.659C479.205 53.5 476.432 51.3182 472.75 51.3182C468.023 51.3182 464.886 55.0455 464.886 60.3636C464.886 65.5909 467.886 69.3636 472.795 69.3636ZM494.58 61.8636C494.58 65.1364 492.08 66.6364 490.08 66.6364C487.852 66.6364 486.261 65 486.261 62.4545V51.5455H483.58V62.6364C483.58 67.0909 485.943 69.2273 489.216 69.2273C491.852 69.2273 493.58 67.8182 494.398 66.0455H494.58V69H497.261V51.5455H494.58V61.8636ZM514.537 55.4545C513.696 52.9773 511.81 51.3182 508.355 51.3182C504.673 51.3182 501.946 53.4091 501.946 56.3636C501.946 58.7727 503.378 60.3864 506.582 61.1364L509.491 61.8182C511.253 62.2273 512.082 63.0682 512.082 64.2727C512.082 65.7727 510.491 67 507.991 67C505.798 67 504.423 66.0568 503.946 64.1818L501.401 64.8182C502.026 67.7841 504.469 69.3636 508.037 69.3636C512.094 69.3636 514.855 67.1477 514.855 64.1364C514.855 61.7045 513.332 60.1705 510.219 59.4091L507.628 58.7727C505.56 58.2614 504.628 57.5682 504.628 56.2273C504.628 54.7273 506.219 53.6364 508.355 53.6364C510.696 53.6364 511.662 54.9318 512.128 56.1364L514.537 55.4545ZM526.483 51.5455H522.756V47.3636H520.074V51.5455H517.438V53.8182H520.074V64.7273C520.074 67.7727 522.528 69.2273 524.801 69.2273C525.801 69.2273 526.438 69.0455 526.801 68.9091L526.256 66.5C526.028 66.5455 525.665 66.6364 525.074 66.6364C523.892 66.6364 522.756 66.2727 522.756 64V53.8182H526.483V51.5455ZM537.42 69.3636C542.148 69.3636 545.33 65.7727 545.33 60.3636C545.33 54.9091 542.148 51.3182 537.42 51.3182C532.693 51.3182 529.511 54.9091 529.511 60.3636C529.511 65.7727 532.693 69.3636 537.42 69.3636ZM537.42 66.9545C533.83 66.9545 532.193 63.8636 532.193 60.3636C532.193 56.8636 533.83 53.7273 537.42 53.7273C541.011 53.7273 542.648 56.8636 542.648 60.3636C542.648 63.8636 541.011 66.9545 537.42 66.9545ZM549.423 69H552.105V58.0909C552.105 55.5341 553.969 53.7273 556.06 53.7273C558.094 53.7273 559.514 55.0568 559.514 57.0455V69H562.241V57.6364C562.241 55.3864 563.651 53.7273 566.105 53.7273C568.014 53.7273 569.651 54.7386 569.651 57.3182V69H572.332V57.3182C572.332 53.2159 570.128 51.3182 567.014 51.3182C564.514 51.3182 562.685 52.4659 561.787 54.2727H561.605C560.741 52.4091 559.219 51.3182 556.923 51.3182C554.651 51.3182 552.969 52.4091 552.241 54.2727H552.014V51.5455H549.423V69ZM584.554 69.3636C588.099 69.3636 590.69 67.5909 591.509 64.9545L588.918 64.2273C588.236 66.0455 586.656 66.9545 584.554 66.9545C581.406 66.9545 579.236 64.9205 579.111 61.1818H591.781V60.0455C591.781 53.5455 587.918 51.3182 584.281 51.3182C579.554 51.3182 576.418 55.0455 576.418 60.4091C576.418 65.7727 579.509 69.3636 584.554 69.3636ZM579.111 58.8636C579.293 56.1477 581.213 53.7273 584.281 53.7273C587.19 53.7273 589.054 55.9091 589.054 58.8636H579.111ZM595.861 69H598.543V57.9545C598.543 55.5909 600.406 53.8636 602.952 53.8636C603.668 53.8636 604.406 54 604.588 54.0455V51.3182C604.281 51.2955 603.577 51.2727 603.179 51.2727C601.088 51.2727 599.27 52.4545 598.634 54.1818H598.452V51.5455H595.861V69ZM620.131 55.4545C619.29 52.9773 617.403 51.3182 613.949 51.3182C610.267 51.3182 607.54 53.4091 607.54 56.3636C607.54 58.7727 608.972 60.3864 612.176 61.1364L615.085 61.8182C616.847 62.2273 617.676 63.0682 617.676 64.2727C617.676 65.7727 616.085 67 613.585 67C611.392 67 610.017 66.0568 609.54 64.1818L606.994 64.8182C607.619 67.7841 610.062 69.3636 613.631 69.3636C617.688 69.3636 620.449 67.1477 620.449 64.1364C620.449 61.7045 618.926 60.1705 615.812 59.4091L613.222 58.7727C611.153 58.2614 610.222 57.5682 610.222 56.2273C610.222 54.7273 611.812 53.6364 613.949 53.6364C616.29 53.6364 617.256 54.9318 617.722 56.1364L620.131 55.4545ZM641.077 51.5455H637.349V47.3636H634.668V51.5455H632.031V53.8182H634.668V64.7273C634.668 67.7727 637.122 69.2273 639.395 69.2273C640.395 69.2273 641.031 69.0455 641.395 68.9091L640.849 66.5C640.622 66.5455 640.259 66.6364 639.668 66.6364C638.486 66.6364 637.349 66.2727 637.349 64V53.8182H641.077V51.5455ZM652.014 69.3636C656.741 69.3636 659.923 65.7727 659.923 60.3636C659.923 54.9091 656.741 51.3182 652.014 51.3182C647.287 51.3182 644.105 54.9091 644.105 60.3636C644.105 65.7727 647.287 69.3636 652.014 69.3636ZM652.014 66.9545C648.423 66.9545 646.787 63.8636 646.787 60.3636C646.787 56.8636 648.423 53.7273 652.014 53.7273C655.605 53.7273 657.241 56.8636 657.241 60.3636C657.241 63.8636 655.605 66.9545 652.014 66.9545ZM680.062 75.9091C684.244 75.9091 687.608 74 687.608 69.5V51.5455H685.017V54.3182H684.744C684.153 53.4091 683.062 51.3182 679.653 51.3182C675.244 51.3182 672.199 54.8182 672.199 60.1818C672.199 65.6364 675.381 68.7273 679.608 68.7273C683.017 68.7273 684.108 66.7273 684.699 65.7727H684.926V69.3182C684.926 72.2273 682.881 73.5455 680.062 73.5455C676.892 73.5455 675.778 71.875 675.062 70.9091L672.926 72.4091C674.017 74.2386 676.165 75.9091 680.062 75.9091ZM679.972 66.3182C676.608 66.3182 674.881 63.7727 674.881 60.1364C674.881 56.5909 676.562 53.7273 679.972 53.7273C683.244 53.7273 684.972 56.3636 684.972 60.1364C684.972 64 683.199 66.3182 679.972 66.3182ZM692.517 69H695.199V51.5455H692.517V69ZM693.881 48.6364C694.926 48.6364 695.79 47.8182 695.79 46.8182C695.79 45.8182 694.926 45 693.881 45C692.835 45 691.972 45.8182 691.972 46.8182C691.972 47.8182 692.835 48.6364 693.881 48.6364ZM714.384 51.5455H711.474L706.656 65.4545H706.474L701.656 51.5455H698.747L705.202 69H707.929L714.384 51.5455ZM724.616 69.3636C728.162 69.3636 730.753 67.5909 731.571 64.9545L728.98 64.2273C728.298 66.0455 726.719 66.9545 724.616 66.9545C721.469 66.9545 719.298 64.9205 719.173 61.1818H731.844V60.0455C731.844 53.5455 727.98 51.3182 724.344 51.3182C719.616 51.3182 716.48 55.0455 716.48 60.4091C716.48 65.7727 719.571 69.3636 724.616 69.3636ZM719.173 58.8636C719.355 56.1477 721.276 53.7273 724.344 53.7273C727.253 53.7273 729.116 55.9091 729.116 58.8636H719.173ZM745.287 69H747.878V66.3182H748.196C748.787 67.2727 749.923 69.3636 753.287 69.3636C757.651 69.3636 760.696 65.8636 760.696 60.3182C760.696 54.8182 757.651 51.3182 753.241 51.3182C749.832 51.3182 748.787 53.4091 748.196 54.3182H747.969V45.7273H745.287V69ZM747.923 60.2727C747.923 56.3636 749.651 53.7273 752.923 53.7273C756.332 53.7273 758.014 56.5909 758.014 60.2727C758.014 64 756.287 66.9545 752.923 66.9545C749.696 66.9545 747.923 64.2273 747.923 60.2727ZM769.935 69.4091C772.98 69.4091 774.571 67.7727 775.116 66.6364H775.253V69H777.935V57.5C777.935 51.9545 773.707 51.3182 771.48 51.3182C768.844 51.3182 765.844 52.2273 764.48 55.4091L767.026 56.3182C767.616 55.0455 769.014 53.6818 771.571 53.6818C774.037 53.6818 775.253 54.9886 775.253 57.2273V57.3182C775.253 58.6136 773.935 58.5 770.753 58.9091C767.514 59.3295 763.98 60.0455 763.98 64.0455C763.98 67.4545 766.616 69.4091 769.935 69.4091ZM770.344 67C768.207 67 766.662 66.0455 766.662 64.1818C766.662 62.1364 768.526 61.5 770.616 61.2273C771.753 61.0909 774.798 60.7727 775.253 60.2273V62.6818C775.253 64.8636 773.526 67 770.344 67ZM789.92 69.3636C793.784 69.3636 796.33 67 796.784 63.9091H794.102C793.602 65.8182 792.011 66.9545 789.92 66.9545C786.739 66.9545 784.693 64.3182 784.693 60.2727C784.693 56.3182 786.784 53.7273 789.92 53.7273C792.284 53.7273 793.693 55.1818 794.102 56.7727H796.784C796.33 53.5 793.557 51.3182 789.875 51.3182C785.148 51.3182 782.011 55.0455 782.011 60.3636C782.011 65.5909 785.011 69.3636 789.92 69.3636ZM800.705 69H803.386V62.4659L805.261 60.7273L811.795 69H815.205L807.284 59L814.659 51.5455H811.341L803.705 59.3182H803.386V45.7273H800.705V69ZM834.702 51.5455H830.974V47.3636H828.293V51.5455H825.656V53.8182H828.293V64.7273C828.293 67.7727 830.747 69.2273 833.02 69.2273C834.02 69.2273 834.656 69.0455 835.02 68.9091L834.474 66.5C834.247 66.5455 833.884 66.6364 833.293 66.6364C832.111 66.6364 830.974 66.2727 830.974 64V53.8182H834.702V51.5455ZM845.639 69.3636C850.366 69.3636 853.548 65.7727 853.548 60.3636C853.548 54.9091 850.366 51.3182 845.639 51.3182C840.912 51.3182 837.73 54.9091 837.73 60.3636C837.73 65.7727 840.912 69.3636 845.639 69.3636ZM845.639 66.9545C842.048 66.9545 840.412 63.8636 840.412 60.3636C840.412 56.8636 842.048 53.7273 845.639 53.7273C849.23 53.7273 850.866 56.8636 850.866 60.3636C850.866 63.8636 849.23 66.9545 845.639 66.9545ZM874.233 51.5455H870.506V47.3636H867.824V51.5455H865.188V53.8182H867.824V64.7273C867.824 67.7727 870.278 69.2273 872.551 69.2273C873.551 69.2273 874.188 69.0455 874.551 68.9091L874.006 66.5C873.778 66.5455 873.415 66.6364 872.824 66.6364C871.642 66.6364 870.506 66.2727 870.506 64V53.8182H874.233V51.5455ZM881.324 58.5C881.324 55.4545 883.267 53.7273 885.915 53.7273C888.438 53.7273 889.96 55.3182 889.96 58.0909V69H892.642V57.9091C892.642 53.4205 890.256 51.3182 886.688 51.3182C883.938 51.3182 882.369 52.4659 881.551 54.2727H881.324V45.7273H878.642V69H881.324V58.5ZM904.866 69.3636C908.412 69.3636 911.003 67.5909 911.821 64.9545L909.23 64.2273C908.548 66.0455 906.969 66.9545 904.866 66.9545C901.719 66.9545 899.548 64.9205 899.423 61.1818H912.094V60.0455C912.094 53.5455 908.23 51.3182 904.594 51.3182C899.866 51.3182 896.73 55.0455 896.73 60.4091C896.73 65.7727 899.821 69.3636 904.866 69.3636ZM899.423 58.8636C899.605 56.1477 901.526 53.7273 904.594 53.7273C907.503 53.7273 909.366 55.9091 909.366 58.8636H899.423ZM932.264 69.3636C936.128 69.3636 938.673 67 939.128 63.9091H936.446C935.946 65.8182 934.355 66.9545 932.264 66.9545C929.082 66.9545 927.037 64.3182 927.037 60.2727C927.037 56.3182 929.128 53.7273 932.264 53.7273C934.628 53.7273 936.037 55.1818 936.446 56.7727H939.128C938.673 53.5 935.901 51.3182 932.219 51.3182C927.491 51.3182 924.355 55.0455 924.355 60.3636C924.355 65.5909 927.355 69.3636 932.264 69.3636ZM950.139 69.3636C954.866 69.3636 958.048 65.7727 958.048 60.3636C958.048 54.9091 954.866 51.3182 950.139 51.3182C945.412 51.3182 942.23 54.9091 942.23 60.3636C942.23 65.7727 945.412 69.3636 950.139 69.3636ZM950.139 66.9545C946.548 66.9545 944.912 63.8636 944.912 60.3636C944.912 56.8636 946.548 53.7273 950.139 53.7273C953.73 53.7273 955.366 56.8636 955.366 60.3636C955.366 63.8636 953.73 66.9545 950.139 66.9545ZM962.142 69H964.824V58.0909C964.824 55.5341 966.688 53.7273 968.778 53.7273C970.812 53.7273 972.233 55.0568 972.233 57.0455V69H974.96V57.6364C974.96 55.3864 976.369 53.7273 978.824 53.7273C980.733 53.7273 982.369 54.7386 982.369 57.3182V69H985.051V57.3182C985.051 53.2159 982.847 51.3182 979.733 51.3182C977.233 51.3182 975.403 52.4659 974.506 54.2727H974.324C973.46 52.4091 971.938 51.3182 969.642 51.3182C967.369 51.3182 965.688 52.4091 964.96 54.2727H964.733V51.5455H962.142V69ZM989.955 69H992.636V58.0909C992.636 55.5341 994.5 53.7273 996.591 53.7273C998.625 53.7273 1000.05 55.0568 1000.05 57.0455V69H1002.77V57.6364C1002.77 55.3864 1004.18 53.7273 1006.64 53.7273C1008.55 53.7273 1010.18 54.7386 1010.18 57.3182V69H1012.86V57.3182C1012.86 53.2159 1010.66 51.3182 1007.55 51.3182C1005.05 51.3182 1003.22 52.4659 1002.32 54.2727H1002.14C1001.27 52.4091 999.75 51.3182 997.455 51.3182C995.182 51.3182 993.5 52.4091 992.773 54.2727H992.545V51.5455H989.955V69ZM1028.77 61.8636C1028.77 65.1364 1026.27 66.6364 1024.27 66.6364C1022.04 66.6364 1020.45 65 1020.45 62.4545V51.5455H1017.77V62.6364C1017.77 67.0909 1020.13 69.2273 1023.4 69.2273C1026.04 69.2273 1027.77 67.8182 1028.59 66.0455H1028.77V69H1031.45V51.5455H1028.77V61.8636ZM1039.04 58.5C1039.04 55.4545 1040.93 53.7273 1043.5 53.7273C1045.99 53.7273 1047.5 55.3523 1047.5 58.0909V69H1050.18V57.9091C1050.18 53.4545 1047.8 51.3182 1044.27 51.3182C1041.63 51.3182 1040 52.5 1039.18 54.2727H1038.95V51.5455H1036.36V69H1039.04V58.5ZM1055.08 69H1057.76V51.5455H1055.08V69ZM1056.44 48.6364C1057.49 48.6364 1058.35 47.8182 1058.35 46.8182C1058.35 45.8182 1057.49 45 1056.44 45C1055.4 45 1054.53 45.8182 1054.53 46.8182C1054.53 47.8182 1055.4 48.6364 1056.44 48.6364ZM1070.26 51.5455H1066.54V47.3636H1063.86V51.5455H1061.22V53.8182H1063.86V64.7273C1063.86 67.7727 1066.31 69.2273 1068.58 69.2273C1069.58 69.2273 1070.22 69.0455 1070.58 68.9091L1070.04 66.5C1069.81 66.5455 1069.45 66.6364 1068.86 66.6364C1067.67 66.6364 1066.54 66.2727 1066.54 64V53.8182H1070.26V51.5455ZM1076.03 75.5455C1078.45 75.5455 1080.15 74.2614 1081.16 71.5455L1088.59 51.5909L1085.66 51.5455L1080.84 65.4545H1080.66L1075.84 51.5455H1072.93L1079.39 69.0909L1078.89 70.4545C1077.91 73.1136 1076.71 73.3636 1074.75 72.8636L1074.07 75.2273C1074.34 75.3636 1075.12 75.5455 1076.03 75.5455ZM1095.64 62.4545H1098.37V62.3182C1098.41 59.5 1099.14 58.2727 1101.14 57.0227C1103.14 55.8068 1104.32 54.0568 1104.32 51.5455C1104.32 48 1101.73 45.4091 1097.73 45.4091C1094.05 45.4091 1091.13 47.6818 1090.96 51.5455H1093.82C1093.99 48.8636 1095.87 47.7727 1097.73 47.7727C1099.87 47.7727 1101.6 49.1818 1101.6 51.4091C1101.6 53.2159 1100.56 54.5114 1099.23 55.3182C1097.01 56.6705 1095.68 57.9886 1095.64 62.3182V62.4545ZM1097.1 69.1818C1098.22 69.1818 1099.14 68.2614 1099.14 67.1364C1099.14 66.0114 1098.22 65.0909 1097.1 65.0909C1095.97 65.0909 1095.05 66.0114 1095.05 67.1364C1095.05 68.2614 1095.97 69.1818 1097.1 69.1818ZM1110.72 45.7273H1108.18V47.8182C1108.18 49.5 1107.36 50.9545 1106.41 52.3182L1107.86 53.5C1109.68 52.0455 1110.72 49.6364 1110.72 47.7727V45.7273ZM1116.54 45.7273H1114V47.8182C1114 49.5 1113.18 50.9545 1112.22 52.3182L1113.68 53.5C1115.5 52.0455 1116.54 49.6364 1116.54 47.7727V45.7273Z" fill="black"/>
</svg>
