<svg width="1160" height="160" viewBox="0 0 1160 160" fill="none" xmlns="http://www.w3.org/2000/svg">
<path d="M0 0H225.145L244 40L225.145 80H0V0Z" fill="#CFE0D9"/>
<path d="M234 0H453.5L473 40L453.5 80H234L252.5 40L234 0Z" fill="#A8C5B8"/>
<path d="M463 0H682.5L702 40L682.5 80H463L481.5 40L463 0Z" fill="#8DAC9E"/>
<path d="M692 0H911.5L931 40L911.5 80H692L710.5 40L692 0Z" fill="#658777"/>
<path d="M921 0H1140.5L1160 40L1140.5 80H921L939.5 40L921 0Z" fill="#456556"/>
<path d="M67.142 31.5455V42.8125C67.142 45.1818 65.5057 46.8864 62.8466 46.8864C60.196 46.8864 58.5511 45.1818 58.5511 42.8125V31.5455H55.9176V43.0256C55.9176 46.6903 58.6619 49.2898 62.8466 49.2898C67.0312 49.2898 69.7841 46.6903 69.7841 43.0256V31.5455H67.142ZM75.9567 41.2273C75.9567 39.1392 77.2351 37.946 79.0078 37.946C80.7379 37.946 81.7862 39.0795 81.7862 40.9801V49H84.3345V40.6733C84.3345 37.4347 82.5533 35.7386 79.8771 35.7386C77.9084 35.7386 76.6214 36.6506 76.0163 38.0398H75.8544V35.9091H73.4084V49H75.9567V41.2273ZM92.6527 49.2557C95.0391 49.2557 95.9766 47.7983 96.4368 46.9631H96.6499V49H99.1385V31.5455H96.5902V38.0312H96.4368C95.9766 37.2216 95.1072 35.7386 92.6697 35.7386C89.5078 35.7386 87.1811 38.2358 87.1811 42.4801C87.1811 46.7159 89.4737 49.2557 92.6527 49.2557ZM93.2152 47.0824C90.9396 47.0824 89.755 45.0795 89.755 42.4545C89.755 39.8551 90.9141 37.9034 93.2152 37.9034C95.4396 37.9034 96.6328 39.7188 96.6328 42.4545C96.6328 45.2074 95.4141 47.0824 93.2152 47.0824ZM108.418 49.2642C111.273 49.2642 113.293 47.858 113.872 45.7273L111.46 45.2926C111 46.5284 109.892 47.1591 108.443 47.1591C106.261 47.1591 104.795 45.7443 104.727 43.2216H114.034V42.3182C114.034 37.5881 111.205 35.7386 108.239 35.7386C104.591 35.7386 102.188 38.517 102.188 42.5398C102.188 46.6051 104.557 49.2642 108.418 49.2642ZM104.736 41.3125C104.838 39.4545 106.185 37.8438 108.256 37.8438C110.233 37.8438 111.528 39.3097 111.537 41.3125H104.736ZM116.862 49H119.41V41.0057C119.41 39.2926 120.731 38.0568 122.538 38.0568C123.066 38.0568 123.663 38.1506 123.867 38.2102V35.7727C123.612 35.7386 123.109 35.7131 122.785 35.7131C121.251 35.7131 119.938 36.5824 119.461 37.9886H119.325V35.9091H116.862V49ZM135.882 39.1051C135.354 37.0682 133.76 35.7386 130.93 35.7386C127.973 35.7386 125.876 37.2983 125.876 39.6165C125.876 41.4744 127.001 42.7102 129.456 43.2557L131.672 43.7415C132.933 44.0227 133.521 44.5852 133.521 45.4034C133.521 46.4176 132.439 47.2102 130.768 47.2102C129.243 47.2102 128.263 46.554 127.956 45.267L125.493 45.642C125.919 47.9602 127.845 49.2642 130.786 49.2642C133.947 49.2642 136.138 47.5852 136.138 45.2159C136.138 43.3665 134.962 42.2244 132.558 41.6705L130.479 41.1932C129.038 40.8523 128.416 40.3665 128.425 39.4801C128.416 38.4744 129.507 37.7585 130.956 37.7585C132.541 37.7585 133.274 38.6364 133.572 39.5142L135.882 39.1051ZM145.05 35.9091H142.366V32.7727H139.817V35.9091H137.9V37.9545H139.817V45.6847C139.809 48.0625 141.624 49.2131 143.636 49.1705C144.445 49.1619 144.991 49.0085 145.289 48.8977L144.829 46.7926C144.658 46.8267 144.343 46.9034 143.934 46.9034C143.107 46.9034 142.366 46.6307 142.366 45.1562V37.9545H145.05V35.9091ZM151.679 49.2898C153.844 49.2898 155.062 48.1903 155.548 47.2102H155.651V49H158.139V40.3068C158.139 36.4972 155.139 35.7386 153.06 35.7386C150.69 35.7386 148.509 36.6932 147.656 39.0795L150.051 39.625C150.426 38.696 151.381 37.8011 153.094 37.8011C154.739 37.8011 155.582 38.6619 155.582 40.1449V40.2045C155.582 41.1335 154.628 41.1165 152.276 41.3892C149.795 41.679 147.256 42.3267 147.256 45.3011C147.256 47.875 149.19 49.2898 151.679 49.2898ZM152.233 47.2443C150.793 47.2443 149.753 46.5966 149.753 45.3352C149.753 43.9716 150.963 43.4858 152.438 43.2898C153.264 43.179 155.224 42.9574 155.591 42.5909V44.2784C155.591 45.8295 154.355 47.2443 152.233 47.2443ZM164.082 41.2273C164.082 39.1392 165.36 37.946 167.133 37.946C168.863 37.946 169.911 39.0795 169.911 40.9801V49H172.46V40.6733C172.46 37.4347 170.678 35.7386 168.002 35.7386C166.033 35.7386 164.746 36.6506 164.141 38.0398H163.979V35.9091H161.533V49H164.082V41.2273ZM180.778 49.2557C183.164 49.2557 184.102 47.7983 184.562 46.9631H184.775V49H187.263V31.5455H184.715V38.0312H184.562C184.102 37.2216 183.232 35.7386 180.795 35.7386C177.633 35.7386 175.306 38.2358 175.306 42.4801C175.306 46.7159 177.599 49.2557 180.778 49.2557ZM181.34 47.0824C179.065 47.0824 177.88 45.0795 177.88 42.4545C177.88 39.8551 179.039 37.9034 181.34 37.9034C183.565 37.9034 184.758 39.7188 184.758 42.4545C184.758 45.2074 183.539 47.0824 181.34 47.0824Z" fill="#474747"/>
<path d="M323.568 49C328.886 49 331.963 45.7017 331.963 40.2472C331.963 34.8182 328.886 31.5455 323.747 31.5455H317.918V49H323.568ZM320.551 46.6989V33.8466H323.585C327.403 33.8466 329.372 36.1307 329.372 40.2472C329.372 44.3807 327.403 46.6989 323.423 46.6989H320.551ZM340.675 49.2642C343.531 49.2642 345.55 47.858 346.13 45.7273L343.718 45.2926C343.258 46.5284 342.15 47.1591 340.701 47.1591C338.519 47.1591 337.053 45.7443 336.985 43.2216H346.292V42.3182C346.292 37.5881 343.462 35.7386 340.496 35.7386C336.849 35.7386 334.445 38.517 334.445 42.5398C334.445 46.6051 336.815 49.2642 340.675 49.2642ZM336.994 41.3125C337.096 39.4545 338.442 37.8438 340.513 37.8438C342.491 37.8438 343.786 39.3097 343.795 41.3125H336.994ZM355.349 35.9091H352.528V34.733C352.528 33.5739 353.006 32.9432 354.25 32.9432C354.778 32.9432 355.153 33.0625 355.392 33.1392L355.989 31.0767C355.631 30.9403 354.889 30.7273 353.858 30.7273C351.787 30.7273 349.972 31.9375 349.972 34.392V35.9091H347.952V37.9545H349.972V49H352.528V37.9545H355.349V35.9091ZM357.979 49H360.527V35.9091H357.979V49ZM359.266 33.8892C360.143 33.8892 360.876 33.2074 360.876 32.3722C360.876 31.5369 360.143 30.8466 359.266 30.8466C358.379 30.8466 357.655 31.5369 357.655 32.3722C357.655 33.2074 358.379 33.8892 359.266 33.8892ZM366.504 41.2273C366.504 39.1392 367.782 37.946 369.555 37.946C371.285 37.946 372.333 39.0795 372.333 40.9801V49H374.881V40.6733C374.881 37.4347 373.1 35.7386 370.424 35.7386C368.455 35.7386 367.168 36.6506 366.563 38.0398H366.401V35.9091H363.955V49H366.504V41.2273ZM383.941 49.2642C386.796 49.2642 388.816 47.858 389.396 45.7273L386.984 45.2926C386.523 46.5284 385.415 47.1591 383.967 47.1591C381.785 47.1591 380.319 45.7443 380.251 43.2216H389.558V42.3182C389.558 37.5881 386.728 35.7386 383.762 35.7386C380.114 35.7386 377.711 38.517 377.711 42.5398C377.711 46.6051 380.08 49.2642 383.941 49.2642ZM380.259 41.3125C380.362 39.4545 381.708 37.8438 383.779 37.8438C385.756 37.8438 387.052 39.3097 387.06 41.3125H380.259Z" fill="white"/>
<path d="M550.551 31.5455H547.918V49H550.551V31.5455ZM559.082 49.2557C561.469 49.2557 562.406 47.7983 562.866 46.9631H563.08V49H565.568V31.5455H563.02V38.0312H562.866C562.406 37.2216 561.537 35.7386 559.099 35.7386C555.938 35.7386 553.611 38.2358 553.611 42.4801C553.611 46.7159 555.903 49.2557 559.082 49.2557ZM559.645 47.0824C557.369 47.0824 556.185 45.0795 556.185 42.4545C556.185 39.8551 557.344 37.9034 559.645 37.9034C561.869 37.9034 563.062 39.7188 563.062 42.4545C563.062 45.2074 561.844 47.0824 559.645 47.0824ZM574.847 49.2642C577.702 49.2642 579.722 47.858 580.302 45.7273L577.89 45.2926C577.43 46.5284 576.322 47.1591 574.873 47.1591C572.691 47.1591 571.225 45.7443 571.157 43.2216H580.464V42.3182C580.464 37.5881 577.634 35.7386 574.668 35.7386C571.021 35.7386 568.617 38.517 568.617 42.5398C568.617 46.6051 570.987 49.2642 574.847 49.2642ZM571.165 41.3125C571.268 39.4545 572.614 37.8438 574.685 37.8438C576.663 37.8438 577.958 39.3097 577.967 41.3125H571.165ZM587.101 49.2898C589.266 49.2898 590.484 48.1903 590.97 47.2102H591.072V49H593.561V40.3068C593.561 36.4972 590.561 35.7386 588.482 35.7386C586.112 35.7386 583.93 36.6932 583.078 39.0795L585.473 39.625C585.848 38.696 586.803 37.8011 588.516 37.8011C590.161 37.8011 591.004 38.6619 591.004 40.1449V40.2045C591.004 41.1335 590.05 41.1165 587.697 41.3892C585.217 41.679 582.678 42.3267 582.678 45.3011C582.678 47.875 584.612 49.2898 587.101 49.2898ZM587.655 47.2443C586.214 47.2443 585.175 46.5966 585.175 45.3352C585.175 43.9716 586.385 43.4858 587.859 43.2898C588.686 43.179 590.646 42.9574 591.013 42.5909V44.2784C591.013 45.8295 589.777 47.2443 587.655 47.2443ZM603.066 35.9091H600.381V32.7727H597.833V35.9091H595.915V37.9545H597.833V45.6847C597.825 48.0625 599.64 49.2131 601.651 49.1705C602.461 49.1619 603.006 49.0085 603.305 48.8977L602.844 46.7926C602.674 46.8267 602.359 46.9034 601.95 46.9034C601.123 46.9034 600.381 46.6307 600.381 45.1562V37.9545H603.066V35.9091ZM611.386 49.2642C614.241 49.2642 616.261 47.858 616.841 45.7273L614.429 45.2926C613.969 46.5284 612.861 47.1591 611.412 47.1591C609.23 47.1591 607.764 45.7443 607.696 43.2216H617.003V42.3182C617.003 37.5881 614.173 35.7386 611.207 35.7386C607.56 35.7386 605.156 38.517 605.156 42.5398C605.156 46.6051 607.526 49.2642 611.386 49.2642ZM607.705 41.3125C607.807 39.4545 609.153 37.8438 611.224 37.8438C613.202 37.8438 614.497 39.3097 614.506 41.3125H607.705Z" fill="white"/>
<path d="M772.568 49C777.886 49 780.963 45.7017 780.963 40.2472C780.963 34.8182 777.886 31.5455 772.747 31.5455H766.918V49H772.568ZM769.551 46.6989V33.8466H772.585C776.403 33.8466 778.372 36.1307 778.372 40.2472C778.372 44.3807 776.403 46.6989 772.423 46.6989H769.551ZM789.675 49.2642C792.531 49.2642 794.55 47.858 795.13 45.7273L792.718 45.2926C792.258 46.5284 791.15 47.1591 789.701 47.1591C787.519 47.1591 786.053 45.7443 785.985 43.2216H795.292V42.3182C795.292 37.5881 792.462 35.7386 789.496 35.7386C785.849 35.7386 783.445 38.517 783.445 42.5398C783.445 46.6051 785.815 49.2642 789.675 49.2642ZM785.994 41.3125C786.096 39.4545 787.442 37.8438 789.513 37.8438C791.491 37.8438 792.786 39.3097 792.795 41.3125H785.994ZM800.668 31.5455H798.119V49H800.668V31.5455ZM804.096 49H806.644V35.9091H804.096V49ZM805.383 33.8892C806.261 33.8892 806.994 33.2074 806.994 32.3722C806.994 31.5369 806.261 30.8466 805.383 30.8466C804.496 30.8466 803.772 31.5369 803.772 32.3722C803.772 33.2074 804.496 33.8892 805.383 33.8892ZM821.271 35.9091H818.536L815.229 45.983H815.092L811.777 35.9091H809.041L813.797 49H816.524L821.271 35.9091ZM828.839 49.2642C831.695 49.2642 833.714 47.858 834.294 45.7273L831.882 45.2926C831.422 46.5284 830.314 47.1591 828.865 47.1591C826.683 47.1591 825.217 45.7443 825.149 43.2216H834.456V42.3182C834.456 37.5881 831.626 35.7386 828.661 35.7386C825.013 35.7386 822.609 38.517 822.609 42.5398C822.609 46.6051 824.979 49.2642 828.839 49.2642ZM825.158 41.3125C825.26 39.4545 826.607 37.8438 828.678 37.8438C830.655 37.8438 831.95 39.3097 831.959 41.3125H825.158ZM837.283 49H839.832V41.0057C839.832 39.2926 841.153 38.0568 842.96 38.0568C843.488 38.0568 844.085 38.1506 844.289 38.2102V35.7727C844.033 35.7386 843.531 35.7131 843.207 35.7131C841.673 35.7131 840.36 36.5824 839.883 37.9886H839.746V35.9091H837.283V49ZM848.504 53.9091C850.609 53.9091 851.938 52.8097 852.697 50.7472L858.109 35.9347L855.356 35.9091L852.04 46.0682H851.904L848.589 35.9091H845.862L850.651 49.1705L850.336 50.0398C849.688 51.7784 848.776 51.9233 847.379 51.5398L846.765 53.6278C847.072 53.7642 847.737 53.9091 848.504 53.9091Z" fill="white"/>
<path d="M993.415 37.2216C992.818 33.4886 989.895 31.3068 986.205 31.3068C981.688 31.3068 978.355 34.6903 978.355 40.2727C978.355 45.8551 981.67 49.2386 986.205 49.2386C990.04 49.2386 992.844 46.8352 993.415 43.3835L990.756 43.375C990.304 45.608 988.429 46.8352 986.222 46.8352C983.23 46.8352 980.972 44.5426 980.972 40.2727C980.972 36.0369 983.222 33.7102 986.23 33.7102C988.455 33.7102 990.321 34.9631 990.756 37.2216H993.415ZM1001.88 49.2642C1005.57 49.2642 1007.98 46.5625 1007.98 42.5142C1007.98 38.4403 1005.57 35.7386 1001.88 35.7386C998.185 35.7386 995.773 38.4403 995.773 42.5142C995.773 46.5625 998.185 49.2642 1001.88 49.2642ZM1001.88 47.125C999.472 47.125 998.347 45.0199 998.347 42.5057C998.347 40 999.472 37.8693 1001.88 37.8693C1004.28 37.8693 1005.4 40 1005.4 42.5057C1005.4 45.0199 1004.28 47.125 1001.88 47.125ZM1013.37 41.2273C1013.37 39.1392 1014.65 37.946 1016.42 37.946C1018.15 37.946 1019.2 39.0795 1019.2 40.9801V49H1021.75V40.6733C1021.75 37.4347 1019.97 35.7386 1017.29 35.7386C1015.32 35.7386 1014.04 36.6506 1013.43 38.0398H1013.27V35.9091H1010.82V49H1013.37V41.2273ZM1030.68 49.2642C1033.77 49.2642 1035.78 47.4062 1036.06 44.858H1033.58C1033.25 46.2727 1032.15 47.108 1030.7 47.108C1028.54 47.108 1027.15 45.3097 1027.15 42.4545C1027.15 39.6506 1028.57 37.8864 1030.7 37.8864C1032.32 37.8864 1033.31 38.9091 1033.58 40.1364H1036.06C1035.79 37.4943 1033.63 35.7386 1030.65 35.7386C1026.96 35.7386 1024.58 38.517 1024.58 42.5142C1024.58 46.4602 1026.88 49.2642 1030.68 49.2642ZM1041.33 31.5455H1038.78V49H1041.33V31.5455ZM1053.05 43.571C1053.06 45.7955 1051.41 46.8523 1049.98 46.8523C1048.4 46.8523 1047.31 45.7102 1047.31 43.929V35.9091H1044.76V44.2358C1044.76 47.483 1046.54 49.1705 1049.06 49.1705C1051.02 49.1705 1052.36 48.1307 1052.97 46.733H1053.1V49H1055.61V35.9091H1053.05V43.571ZM1068.84 39.1051C1068.31 37.0682 1066.72 35.7386 1063.89 35.7386C1060.93 35.7386 1058.84 37.2983 1058.84 39.6165C1058.84 41.4744 1059.96 42.7102 1062.42 43.2557L1064.63 43.7415C1065.89 44.0227 1066.48 44.5852 1066.48 45.4034C1066.48 46.4176 1065.4 47.2102 1063.73 47.2102C1062.2 47.2102 1061.22 46.554 1060.92 45.267L1058.45 45.642C1058.88 47.9602 1060.81 49.2642 1063.75 49.2642C1066.91 49.2642 1069.1 47.5852 1069.1 45.2159C1069.1 43.3665 1067.92 42.2244 1065.52 41.6705L1063.44 41.1932C1062 40.8523 1061.38 40.3665 1061.39 39.4801C1061.38 38.4744 1062.47 37.7585 1063.92 37.7585C1065.5 37.7585 1066.24 38.6364 1066.53 39.5142L1068.84 39.1051ZM1071.9 49H1074.45V35.9091H1071.9V49ZM1073.19 33.8892C1074.07 33.8892 1074.8 33.2074 1074.8 32.3722C1074.8 31.5369 1074.07 30.8466 1073.19 30.8466C1072.3 30.8466 1071.58 31.5369 1071.58 32.3722C1071.58 33.2074 1072.3 33.8892 1073.19 33.8892ZM1083.39 49.2642C1087.08 49.2642 1089.49 46.5625 1089.49 42.5142C1089.49 38.4403 1087.08 35.7386 1083.39 35.7386C1079.7 35.7386 1077.29 38.4403 1077.29 42.5142C1077.29 46.5625 1079.7 49.2642 1083.39 49.2642ZM1083.4 47.125C1080.99 47.125 1079.86 45.0199 1079.86 42.5057C1079.86 40 1080.99 37.8693 1083.4 37.8693C1085.79 37.8693 1086.92 40 1086.92 42.5057C1086.92 45.0199 1085.79 47.125 1083.4 47.125ZM1094.89 41.2273C1094.89 39.1392 1096.16 37.946 1097.94 37.946C1099.67 37.946 1100.72 39.0795 1100.72 40.9801V49H1103.26V40.6733C1103.26 37.4347 1101.48 35.7386 1098.81 35.7386C1096.84 35.7386 1095.55 36.6506 1094.95 38.0398H1094.78V35.9091H1092.34V49H1094.89V41.2273Z" fill="white"/>
<path d="M72.1918 108.909V117.449C72.1918 119.366 70.875 120.747 68.6889 120.747C66.5028 120.747 65.1861 119.366 65.1861 117.449V108.909H63.6009V117.577C63.6009 120.261 65.608 122.23 68.6889 122.23C71.7699 122.23 73.777 120.261 73.777 117.577V108.909H72.1918ZM83.6926 114.381C83.2196 112.987 82.1586 112.054 80.2154 112.054C78.1444 112.054 76.6103 113.23 76.6103 114.892C76.6103 116.247 77.4157 117.155 79.2182 117.577L80.8546 117.96C81.8453 118.19 82.312 118.663 82.312 119.341C82.312 120.185 81.4171 120.875 80.0108 120.875C78.7772 120.875 78.0037 120.344 77.7353 119.29L76.3034 119.648C76.655 121.316 78.0293 122.205 80.0364 122.205C82.3184 122.205 83.8716 120.958 83.8716 119.264C83.8716 117.896 83.0151 117.033 81.2637 116.605L79.8063 116.247C78.6429 115.96 78.1188 115.57 78.1188 114.815C78.1188 113.972 79.0137 113.358 80.2154 113.358C81.5321 113.358 82.0755 114.087 82.3375 114.764L83.6926 114.381ZM90.2589 122.205C92.2532 122.205 93.7106 121.207 94.1708 119.724L92.7134 119.315C92.3299 120.338 91.4414 120.849 90.2589 120.849C88.4883 120.849 87.2674 119.705 87.1971 117.602H94.3242V116.963C94.3242 113.307 92.1509 112.054 90.1055 112.054C87.4464 112.054 85.6822 114.151 85.6822 117.168C85.6822 120.185 87.4208 122.205 90.2589 122.205ZM87.1971 116.298C87.2994 114.771 88.3796 113.409 90.1055 113.409C91.7418 113.409 92.7901 114.636 92.7901 116.298H87.1971ZM96.619 122H98.1275V115.787C98.1275 114.457 99.1758 113.486 100.608 113.486C101.01 113.486 101.426 113.562 101.528 113.588V112.054C101.355 112.041 100.959 112.028 100.735 112.028C99.5593 112.028 98.5366 112.693 98.1786 113.665H98.0763V112.182H96.619V122ZM108.379 122H109.887V115.787C109.887 114.457 110.936 113.486 112.367 113.486C112.77 113.486 113.186 113.562 113.288 113.588V112.054C113.115 112.041 112.719 112.028 112.495 112.028C111.319 112.028 110.296 112.693 109.938 113.665H109.836V112.182H108.379V122ZM118.894 122.205C120.888 122.205 122.345 121.207 122.806 119.724L121.348 119.315C120.965 120.338 120.076 120.849 118.894 120.849C117.123 120.849 115.902 119.705 115.832 117.602H122.959V116.963C122.959 113.307 120.786 112.054 118.74 112.054C116.081 112.054 114.317 114.151 114.317 117.168C114.317 120.185 116.056 122.205 118.894 122.205ZM115.832 116.298C115.934 114.771 117.014 113.409 118.74 113.409C120.377 113.409 121.425 114.636 121.425 116.298H115.832ZM132.208 114.381C131.735 112.987 130.674 112.054 128.731 112.054C126.66 112.054 125.126 113.23 125.126 114.892C125.126 116.247 125.931 117.155 127.734 117.577L129.37 117.96C130.361 118.19 130.828 118.663 130.828 119.341C130.828 120.185 129.933 120.875 128.526 120.875C127.293 120.875 126.519 120.344 126.251 119.29L124.819 119.648C125.171 121.316 126.545 122.205 128.552 122.205C130.834 122.205 132.387 120.958 132.387 119.264C132.387 117.896 131.531 117.033 129.779 116.605L128.322 116.247C127.159 115.96 126.634 115.57 126.634 114.815C126.634 113.972 127.529 113.358 128.731 113.358C130.048 113.358 130.591 114.087 130.853 114.764L132.208 114.381ZM138.775 122.205C140.769 122.205 142.226 121.207 142.686 119.724L141.229 119.315C140.846 120.338 139.957 120.849 138.775 120.849C137.004 120.849 135.783 119.705 135.713 117.602H142.84V116.963C142.84 113.307 140.667 112.054 138.621 112.054C135.962 112.054 134.198 114.151 134.198 117.168C134.198 120.185 135.936 122.205 138.775 122.205ZM135.713 116.298C135.815 114.771 136.895 113.409 138.621 113.409C140.257 113.409 141.306 114.636 141.306 116.298H135.713ZM148.024 122.23C149.737 122.23 150.632 121.31 150.939 120.67H151.015V122H152.524V115.531C152.524 112.412 150.146 112.054 148.893 112.054C147.41 112.054 145.723 112.565 144.956 114.355L146.387 114.866C146.72 114.151 147.506 113.384 148.944 113.384C150.331 113.384 151.015 114.119 151.015 115.378V115.429C151.015 116.158 150.274 116.094 148.484 116.324C146.662 116.56 144.674 116.963 144.674 119.213C144.674 121.131 146.157 122.23 148.024 122.23ZM148.254 120.875C147.052 120.875 146.183 120.338 146.183 119.29C146.183 118.139 147.231 117.781 148.407 117.628C149.047 117.551 150.76 117.372 151.015 117.065V118.446C151.015 119.673 150.044 120.875 148.254 120.875ZM155.277 122H156.786V115.787C156.786 114.457 157.834 113.486 159.266 113.486C159.669 113.486 160.084 113.562 160.186 113.588V112.054C160.014 112.041 159.617 112.028 159.394 112.028C158.218 112.028 157.195 112.693 156.837 113.665H156.735V112.182H155.277V122ZM165.664 122.205C167.838 122.205 169.269 120.875 169.525 119.136H168.017C167.735 120.21 166.84 120.849 165.664 120.849C163.874 120.849 162.724 119.366 162.724 117.091C162.724 114.866 163.9 113.409 165.664 113.409C166.994 113.409 167.786 114.227 168.017 115.122H169.525C169.269 113.281 167.71 112.054 165.639 112.054C162.98 112.054 161.215 114.151 161.215 117.142C161.215 120.082 162.903 122.205 165.664 122.205ZM173.239 116.094C173.239 114.381 174.332 113.409 175.821 113.409C177.24 113.409 178.097 114.304 178.097 115.864V122H179.605V115.761C179.605 113.237 178.263 112.054 176.256 112.054C174.709 112.054 173.827 112.7 173.367 113.716H173.239V108.909H171.73V122H173.239V116.094Z" fill="black"/>
<path d="M266.893 122H268.478V117.219H271.342C274.391 117.219 275.765 115.365 275.765 113.051C275.765 110.737 274.391 108.909 271.316 108.909H266.893V122ZM268.478 115.812V110.315H271.265C273.394 110.315 274.205 111.479 274.205 113.051C274.205 114.624 273.394 115.812 271.291 115.812H268.478ZM278.114 122H279.623V115.787C279.623 114.457 280.671 113.486 282.103 113.486C282.505 113.486 282.921 113.562 283.023 113.588V112.054C282.851 112.041 282.454 112.028 282.231 112.028C281.054 112.028 280.032 112.693 279.674 113.665H279.571V112.182H278.114V122ZM288.501 122.205C291.16 122.205 292.95 120.185 292.95 117.142C292.95 114.074 291.16 112.054 288.501 112.054C285.842 112.054 284.052 114.074 284.052 117.142C284.052 120.185 285.842 122.205 288.501 122.205ZM288.501 120.849C286.481 120.849 285.561 119.111 285.561 117.142C285.561 115.173 286.481 113.409 288.501 113.409C290.521 113.409 291.441 115.173 291.441 117.142C291.441 119.111 290.521 120.849 288.501 120.849ZM295.457 122H296.915V120.491H297.094C297.426 121.028 298.065 122.205 299.957 122.205C302.412 122.205 304.125 120.236 304.125 117.116C304.125 114.023 302.412 112.054 299.932 112.054C298.014 112.054 297.426 113.23 297.094 113.741H296.966V108.909H295.457V122ZM296.94 117.091C296.94 114.892 297.912 113.409 299.753 113.409C301.67 113.409 302.616 115.02 302.616 117.091C302.616 119.188 301.645 120.849 299.753 120.849C297.937 120.849 296.94 119.315 296.94 117.091ZM307.941 108.909H306.432V122H307.941V108.909ZM314.82 122.205C316.815 122.205 318.272 121.207 318.732 119.724L317.275 119.315C316.891 120.338 316.003 120.849 314.82 120.849C313.05 120.849 311.829 119.705 311.759 117.602H318.886V116.963C318.886 113.307 316.712 112.054 314.667 112.054C312.008 112.054 310.244 114.151 310.244 117.168C310.244 120.185 311.982 122.205 314.82 122.205ZM311.759 116.298C311.861 114.771 312.941 113.409 314.667 113.409C316.303 113.409 317.352 114.636 317.352 116.298H311.759ZM321.18 122H322.689V115.864C322.689 114.425 323.737 113.409 324.913 113.409C326.058 113.409 326.857 114.157 326.857 115.276V122H328.391V115.608C328.391 114.342 329.183 113.409 330.564 113.409C331.638 113.409 332.558 113.978 332.558 115.429V122H334.067V115.429C334.067 113.121 332.827 112.054 331.075 112.054C329.669 112.054 328.64 112.7 328.135 113.716H328.033C327.547 112.668 326.69 112.054 325.399 112.054C324.121 112.054 323.175 112.668 322.766 113.716H322.638V112.182H321.18V122ZM348.842 114.381C348.369 112.987 347.308 112.054 345.365 112.054C343.294 112.054 341.76 113.23 341.76 114.892C341.76 116.247 342.565 117.155 344.368 117.577L346.004 117.96C346.995 118.19 347.461 118.663 347.461 119.341C347.461 120.185 346.566 120.875 345.16 120.875C343.927 120.875 343.153 120.344 342.885 119.29L341.453 119.648C341.804 121.316 343.179 122.205 345.186 122.205C347.468 122.205 349.021 120.958 349.021 119.264C349.021 117.896 348.165 117.033 346.413 116.605L344.956 116.247C343.792 115.96 343.268 115.57 343.268 114.815C343.268 113.972 344.163 113.358 345.365 113.358C346.682 113.358 347.225 114.087 347.487 114.764L348.842 114.381ZM355.562 112.182H353.465V109.83H351.957V112.182H350.474V113.46H351.957V119.597C351.957 121.31 353.337 122.128 354.616 122.128C355.178 122.128 355.536 122.026 355.741 121.949L355.434 120.594C355.306 120.619 355.101 120.67 354.769 120.67C354.104 120.67 353.465 120.466 353.465 119.188V113.46H355.562V112.182ZM360.72 122.23C362.433 122.23 363.328 121.31 363.635 120.67H363.712V122H365.22V115.531C365.22 112.412 362.842 112.054 361.589 112.054C360.106 112.054 358.419 112.565 357.652 114.355L359.084 114.866C359.416 114.151 360.202 113.384 361.641 113.384C363.028 113.384 363.712 114.119 363.712 115.378V115.429C363.712 116.158 362.97 116.094 361.18 116.324C359.359 116.56 357.371 116.963 357.371 119.213C357.371 121.131 358.854 122.23 360.72 122.23ZM360.95 120.875C359.748 120.875 358.879 120.338 358.879 119.29C358.879 118.139 359.927 117.781 361.104 117.628C361.743 117.551 363.456 117.372 363.712 117.065V118.446C363.712 119.673 362.74 120.875 360.95 120.875ZM372.243 112.182H370.147V109.83H368.638V112.182H367.155V113.46H368.638V119.597C368.638 121.31 370.019 122.128 371.297 122.128C371.86 122.128 372.218 122.026 372.422 121.949L372.116 120.594C371.988 120.619 371.783 120.67 371.451 120.67C370.786 120.67 370.147 120.466 370.147 119.188V113.46H372.243V112.182ZM378.524 122.205C380.518 122.205 381.975 121.207 382.435 119.724L380.978 119.315C380.595 120.338 379.706 120.849 378.524 120.849C376.753 120.849 375.532 119.705 375.462 117.602H382.589V116.963C382.589 113.307 380.416 112.054 378.37 112.054C375.711 112.054 373.947 114.151 373.947 117.168C373.947 120.185 375.685 122.205 378.524 122.205ZM375.462 116.298C375.564 114.771 376.644 113.409 378.37 113.409C380.006 113.409 381.055 114.636 381.055 116.298H375.462ZM384.884 122H386.392V115.864C386.392 114.425 387.44 113.409 388.617 113.409C389.761 113.409 390.56 114.157 390.56 115.276V122H392.094V115.608C392.094 114.342 392.886 113.409 394.267 113.409C395.341 113.409 396.261 113.978 396.261 115.429V122H397.77V115.429C397.77 113.121 396.53 112.054 394.778 112.054C393.372 112.054 392.343 112.7 391.838 113.716H391.736C391.25 112.668 390.394 112.054 389.102 112.054C387.824 112.054 386.878 112.668 386.469 113.716H386.341V112.182H384.884V122ZM404.645 122.205C406.639 122.205 408.096 121.207 408.557 119.724L407.099 119.315C406.716 120.338 405.827 120.849 404.645 120.849C402.874 120.849 401.653 119.705 401.583 117.602H408.71V116.963C408.71 113.307 406.537 112.054 404.491 112.054C401.832 112.054 400.068 114.151 400.068 117.168C400.068 120.185 401.807 122.205 404.645 122.205ZM401.583 116.298C401.685 114.771 402.765 113.409 404.491 113.409C406.128 113.409 407.176 114.636 407.176 116.298H401.583ZM412.513 116.094C412.513 114.381 413.574 113.409 415.019 113.409C416.419 113.409 417.269 114.323 417.269 115.864V122H418.777V115.761C418.777 113.256 417.441 112.054 415.454 112.054C413.971 112.054 413.05 112.719 412.59 113.716H412.462V112.182H411.005V122H412.513V116.094ZM425.804 112.182H423.707V109.83H422.199V112.182H420.716V113.46H422.199V119.597C422.199 121.31 423.579 122.128 424.858 122.128C425.42 122.128 425.778 122.026 425.983 121.949L425.676 120.594C425.548 120.619 425.344 120.67 425.011 120.67C424.347 120.67 423.707 120.466 423.707 119.188V113.46H425.804V112.182Z" fill="black"/>
<path d="M547.588 108.909V117.449C547.588 119.366 546.271 120.747 544.085 120.747C541.899 120.747 540.583 119.366 540.583 117.449V108.909H538.997V117.577C538.997 120.261 541.004 122.23 544.085 122.23C547.166 122.23 549.173 120.261 549.173 117.577V108.909H547.588ZM559.089 114.381C558.616 112.987 557.555 112.054 555.612 112.054C553.541 112.054 552.007 113.23 552.007 114.892C552.007 116.247 552.812 117.155 554.615 117.577L556.251 117.96C557.242 118.19 557.708 118.663 557.708 119.341C557.708 120.185 556.814 120.875 555.407 120.875C554.174 120.875 553.4 120.344 553.132 119.29L551.7 119.648C552.051 121.316 553.426 122.205 555.433 122.205C557.715 122.205 559.268 120.958 559.268 119.264C559.268 117.896 558.412 117.033 556.66 116.605L555.203 116.247C554.039 115.96 553.515 115.57 553.515 114.815C553.515 113.972 554.41 113.358 555.612 113.358C556.929 113.358 557.472 114.087 557.734 114.764L559.089 114.381ZM565.655 122.205C567.65 122.205 569.107 121.207 569.567 119.724L568.11 119.315C567.726 120.338 566.838 120.849 565.655 120.849C563.885 120.849 562.664 119.705 562.594 117.602H569.721V116.963C569.721 113.307 567.547 112.054 565.502 112.054C562.843 112.054 561.079 114.151 561.079 117.168C561.079 120.185 562.817 122.205 565.655 122.205ZM562.594 116.298C562.696 114.771 563.776 113.409 565.502 113.409C567.138 113.409 568.187 114.636 568.187 116.298H562.594ZM572.015 122H573.524V115.787C573.524 114.457 574.572 113.486 576.004 113.486C576.407 113.486 576.822 113.562 576.925 113.588V112.054C576.752 112.041 576.356 112.028 576.132 112.028C574.956 112.028 573.933 112.693 573.575 113.665H573.473V112.182H572.015V122ZM588.147 112.182H585.949V111.185C585.949 110.213 586.358 109.702 587.355 109.702C587.789 109.702 588.045 109.804 588.199 109.855L588.633 108.551C588.403 108.449 587.943 108.295 587.201 108.295C585.795 108.295 584.44 109.139 584.44 110.827V112.182H582.855V113.46H584.44V122H585.949V113.46H588.147V112.182ZM591.77 108.909H590.262V122H591.77V108.909ZM598.522 122.205C601.181 122.205 602.971 120.185 602.971 117.142C602.971 114.074 601.181 112.054 598.522 112.054C595.863 112.054 594.073 114.074 594.073 117.142C594.073 120.185 595.863 122.205 598.522 122.205ZM598.522 120.849C596.502 120.849 595.581 119.111 595.581 117.142C595.581 115.173 596.502 113.409 598.522 113.409C600.542 113.409 601.462 115.173 601.462 117.142C601.462 119.111 600.542 120.849 598.522 120.849ZM607.164 122H608.647L610.794 114.457H610.948L613.096 122H614.578L617.57 112.182H615.985L613.863 119.673H613.76L611.689 112.182H610.078L607.982 119.699H607.88L605.757 112.182H604.172L607.164 122ZM626.519 114.381C626.046 112.987 624.985 112.054 623.042 112.054C620.971 112.054 619.436 113.23 619.436 114.892C619.436 116.247 620.242 117.155 622.044 117.577L623.681 117.96C624.672 118.19 625.138 118.663 625.138 119.341C625.138 120.185 624.243 120.875 622.837 120.875C621.603 120.875 620.83 120.344 620.561 119.29L619.13 119.648C619.481 121.316 620.855 122.205 622.863 122.205C625.145 122.205 626.698 120.958 626.698 119.264C626.698 117.896 625.841 117.033 624.09 116.605L622.632 116.247C621.469 115.96 620.945 115.57 620.945 114.815C620.945 113.972 621.84 113.358 623.042 113.358C624.358 113.358 624.902 114.087 625.164 114.764L626.519 114.381Z" fill="black"/>
<path d="M525.067 156H529.797C532.891 156 534.169 154.491 534.169 152.523C534.169 150.452 532.737 149.327 531.535 149.25V149.122C532.66 148.815 533.658 148.074 533.658 146.386C533.658 144.469 532.379 142.909 529.643 142.909H525.067V156ZM526.652 154.594V150.043H529.873C531.587 150.043 532.66 151.193 532.66 152.523C532.66 153.673 531.868 154.594 529.797 154.594H526.652ZM526.652 148.662V144.315H529.643C531.382 144.315 532.149 145.236 532.149 146.386C532.149 147.767 531.024 148.662 529.592 148.662H526.652ZM536.569 156H538.078V149.787C538.078 148.457 539.126 147.486 540.558 147.486C540.96 147.486 541.376 147.562 541.478 147.588V146.054C541.306 146.041 540.909 146.028 540.686 146.028C539.509 146.028 538.487 146.693 538.129 147.665H538.027V146.182H536.569V156ZM546.156 156.23C547.869 156.23 548.764 155.31 549.07 154.67H549.147V156H550.656V149.531C550.656 146.412 548.278 146.054 547.025 146.054C545.542 146.054 543.854 146.565 543.087 148.355L544.519 148.866C544.852 148.151 545.638 147.384 547.076 147.384C548.463 147.384 549.147 148.119 549.147 149.378V149.429C549.147 150.158 548.406 150.094 546.616 150.324C544.794 150.56 542.806 150.963 542.806 153.213C542.806 155.131 544.289 156.23 546.156 156.23ZM546.386 154.875C545.184 154.875 544.315 154.338 544.315 153.29C544.315 152.139 545.363 151.781 546.539 151.628C547.178 151.551 548.891 151.372 549.147 151.065V152.446C549.147 153.673 548.176 154.875 546.386 154.875ZM553.409 156H554.918V146.182H553.409V156ZM554.176 144.545C554.764 144.545 555.25 144.085 555.25 143.523C555.25 142.96 554.764 142.5 554.176 142.5C553.588 142.5 553.102 142.96 553.102 143.523C553.102 144.085 553.588 144.545 554.176 144.545ZM559.189 150.094C559.189 148.381 560.25 147.409 561.695 147.409C563.095 147.409 563.945 148.323 563.945 149.864V156H565.453V149.761C565.453 147.256 564.117 146.054 562.129 146.054C560.646 146.054 559.726 146.719 559.266 147.716H559.138V146.182H557.68V156H559.189V150.094ZM575.164 148.381C574.691 146.987 573.63 146.054 571.687 146.054C569.616 146.054 568.082 147.23 568.082 148.892C568.082 150.247 568.887 151.155 570.69 151.577L572.326 151.96C573.317 152.19 573.784 152.663 573.784 153.341C573.784 154.185 572.889 154.875 571.483 154.875C570.249 154.875 569.475 154.344 569.207 153.29L567.775 153.648C568.127 155.316 569.501 156.205 571.508 156.205C573.79 156.205 575.343 154.958 575.343 153.264C575.343 151.896 574.487 151.033 572.735 150.605L571.278 150.247C570.115 149.96 569.59 149.57 569.59 148.815C569.59 147.972 570.485 147.358 571.687 147.358C573.004 147.358 573.547 148.087 573.809 148.764L575.164 148.381ZM581.884 146.182H579.787V143.83H578.279V146.182H576.796V147.46H578.279V153.597C578.279 155.31 579.66 156.128 580.938 156.128C581.5 156.128 581.858 156.026 582.063 155.949L581.756 154.594C581.628 154.619 581.424 154.67 581.091 154.67C580.427 154.67 579.787 154.466 579.787 153.188V147.46H581.884V146.182ZM588.036 156.205C590.695 156.205 592.485 154.185 592.485 151.142C592.485 148.074 590.695 146.054 588.036 146.054C585.377 146.054 583.587 148.074 583.587 151.142C583.587 154.185 585.377 156.205 588.036 156.205ZM588.036 154.849C586.016 154.849 585.096 153.111 585.096 151.142C585.096 149.173 586.016 147.409 588.036 147.409C590.056 147.409 590.977 149.173 590.977 151.142C590.977 153.111 590.056 154.849 588.036 154.849ZM594.788 156H596.296V149.787C596.296 148.457 597.345 147.486 598.777 147.486C599.179 147.486 599.595 147.562 599.697 147.588V146.054C599.524 146.041 599.128 146.028 598.904 146.028C597.728 146.028 596.706 146.693 596.348 147.665H596.245V146.182H594.788V156ZM601.485 156H602.994V149.864C602.994 148.425 604.042 147.409 605.218 147.409C606.362 147.409 607.161 148.157 607.161 149.276V156H608.695V149.608C608.695 148.342 609.488 147.409 610.869 147.409C611.943 147.409 612.863 147.978 612.863 149.429V156H614.372V149.429C614.372 147.121 613.131 146.054 611.38 146.054C609.974 146.054 608.945 146.7 608.44 147.716H608.337C607.852 146.668 606.995 146.054 605.704 146.054C604.426 146.054 603.479 146.668 603.07 147.716H602.943V146.182H601.485V156ZM617.13 156H618.638V146.182H617.13V156ZM617.897 144.545C618.485 144.545 618.971 144.085 618.971 143.523C618.971 142.96 618.485 142.5 617.897 142.5C617.309 142.5 616.823 142.96 616.823 143.523C616.823 144.085 617.309 144.545 617.897 144.545ZM622.91 150.094C622.91 148.381 623.971 147.409 625.415 147.409C626.815 147.409 627.665 148.323 627.665 149.864V156H629.174V149.761C629.174 147.256 627.838 146.054 625.85 146.054C624.367 146.054 623.447 146.719 622.986 147.716H622.859V146.182H621.401V156H622.91V150.094ZM635.894 159.886C638.246 159.886 640.138 158.812 640.138 156.281V146.182H638.68V147.741H638.527C638.195 147.23 637.581 146.054 635.663 146.054C633.183 146.054 631.47 148.023 631.47 151.04C631.47 154.108 633.26 155.847 635.638 155.847C637.555 155.847 638.169 154.722 638.502 154.185H638.629V156.179C638.629 157.815 637.479 158.557 635.894 158.557C634.11 158.557 633.484 157.617 633.081 157.074L631.879 157.918C632.493 158.947 633.701 159.886 635.894 159.886ZM635.842 154.491C633.95 154.491 632.979 153.06 632.979 151.014C632.979 149.02 633.925 147.409 635.842 147.409C637.683 147.409 638.655 148.892 638.655 151.014C638.655 153.188 637.658 154.491 635.842 154.491Z" fill="black"/>
<path d="M741.752 122H749.423V120.594H743.337V108.909H741.752V122ZM755.661 122.205C758.32 122.205 760.11 120.185 760.11 117.142C760.11 114.074 758.32 112.054 755.661 112.054C753.002 112.054 751.212 114.074 751.212 117.142C751.212 120.185 753.002 122.205 755.661 122.205ZM755.661 120.849C753.641 120.849 752.721 119.111 752.721 117.142C752.721 115.173 753.641 113.409 755.661 113.409C757.681 113.409 758.602 115.173 758.602 117.142C758.602 119.111 757.681 120.849 755.661 120.849ZM768.038 115.685H762.311V117.091H768.038V115.685ZM770.897 122H772.482V116.145H778.158V114.739H772.482V110.315H778.746V108.909H770.897V122ZM781.257 122H782.765V112.182H781.257V122ZM782.024 110.545C782.612 110.545 783.098 110.085 783.098 109.523C783.098 108.96 782.612 108.5 782.024 108.5C781.436 108.5 780.95 108.96 780.95 109.523C780.95 110.085 781.436 110.545 782.024 110.545ZM792.815 122H794.298L796.446 114.457H796.599L798.747 122H800.23L803.221 112.182H801.636L799.514 119.673H799.412L797.341 112.182H795.73L793.633 119.699H793.531L791.409 112.182H789.824L792.815 122ZM805.216 122H806.724V112.182H805.216V122ZM805.983 110.545C806.571 110.545 807.057 110.085 807.057 109.523C807.057 108.96 806.571 108.5 805.983 108.5C805.395 108.5 804.909 108.96 804.909 109.523C804.909 110.085 805.395 110.545 805.983 110.545ZM809.487 122H810.996V115.787C810.996 114.457 812.044 113.486 813.476 113.486C813.878 113.486 814.294 113.562 814.396 113.588V112.054C814.224 112.041 813.827 112.028 813.604 112.028C812.427 112.028 811.405 112.693 811.047 113.665H810.945V112.182H809.487V122ZM820.002 122.205C821.996 122.205 823.454 121.207 823.914 119.724L822.457 119.315C822.073 120.338 821.185 120.849 820.002 120.849C818.231 120.849 817.011 119.705 816.94 117.602H824.067V116.963C824.067 113.307 821.894 112.054 819.849 112.054C817.19 112.054 815.425 114.151 815.425 117.168C815.425 120.185 817.164 122.205 820.002 122.205ZM816.94 116.298C817.043 114.771 818.123 113.409 819.849 113.409C821.485 113.409 822.533 114.636 822.533 116.298H816.94ZM830.734 112.182H828.535V111.185C828.535 110.213 828.945 109.702 829.942 109.702C830.376 109.702 830.632 109.804 830.785 109.855L831.22 108.551C830.99 108.449 830.53 108.295 829.788 108.295C828.382 108.295 827.027 109.139 827.027 110.827V112.182H825.442V113.46H827.027V122H828.535V113.46H830.734V112.182ZM832.848 122H834.357V115.787C834.357 114.457 835.405 113.486 836.837 113.486C837.24 113.486 837.655 113.562 837.758 113.588V112.054C837.585 112.041 837.189 112.028 836.965 112.028C835.789 112.028 834.766 112.693 834.408 113.665H834.306V112.182H832.848V122ZM842.435 122.23C844.148 122.23 845.043 121.31 845.35 120.67H845.426V122H846.935V115.531C846.935 112.412 844.557 112.054 843.304 112.054C841.821 112.054 840.134 112.565 839.367 114.355L840.799 114.866C841.131 114.151 841.917 113.384 843.355 113.384C844.742 113.384 845.426 114.119 845.426 115.378V115.429C845.426 116.158 844.685 116.094 842.895 116.324C841.073 116.56 839.085 116.963 839.085 119.213C839.085 121.131 840.568 122.23 842.435 122.23ZM842.665 120.875C841.463 120.875 840.594 120.338 840.594 119.29C840.594 118.139 841.642 117.781 842.818 117.628C843.458 117.551 845.171 117.372 845.426 117.065V118.446C845.426 119.673 844.455 120.875 842.665 120.875ZM849.688 122H851.197V115.864C851.197 114.425 852.245 113.409 853.421 113.409C854.565 113.409 855.364 114.157 855.364 115.276V122H856.899V115.608C856.899 114.342 857.691 113.409 859.072 113.409C860.146 113.409 861.066 113.978 861.066 115.429V122H862.575V115.429C862.575 113.121 861.335 112.054 859.583 112.054C858.177 112.054 857.148 112.7 856.643 113.716H856.541C856.055 112.668 855.198 112.054 853.907 112.054C852.629 112.054 851.683 112.668 851.274 113.716H851.146V112.182H849.688V122ZM869.449 122.205C871.444 122.205 872.901 121.207 873.361 119.724L871.904 119.315C871.52 120.338 870.632 120.849 869.449 120.849C867.679 120.849 866.458 119.705 866.388 117.602H873.515V116.963C873.515 113.307 871.341 112.054 869.296 112.054C866.637 112.054 864.873 114.151 864.873 117.168C864.873 120.185 866.611 122.205 869.449 122.205ZM866.388 116.298C866.49 114.771 867.57 113.409 869.296 113.409C870.932 113.409 871.981 114.636 871.981 116.298H866.388ZM882.764 114.381C882.291 112.987 881.23 112.054 879.287 112.054C877.216 112.054 875.682 113.23 875.682 114.892C875.682 116.247 876.487 117.155 878.29 117.577L879.926 117.96C880.917 118.19 881.383 118.663 881.383 119.341C881.383 120.185 880.488 120.875 879.082 120.875C877.848 120.875 877.075 120.344 876.807 119.29L875.375 119.648C875.726 121.316 877.101 122.205 879.108 122.205C881.39 122.205 882.943 120.958 882.943 119.264C882.943 117.896 882.086 117.033 880.335 116.605L878.878 116.247C877.714 115.96 877.19 115.57 877.19 114.815C877.19 113.972 878.085 113.358 879.287 113.358C880.603 113.358 881.147 114.087 881.409 114.764L882.764 114.381Z" fill="black"/>
<path d="M725.461 142.909H723.876V156H725.461V142.909ZM729.944 150.094C729.944 148.381 731.005 147.409 732.45 147.409C733.849 147.409 734.7 148.323 734.7 149.864V156H736.208V149.761C736.208 147.256 734.872 146.054 732.884 146.054C731.401 146.054 730.481 146.719 730.021 147.716H729.893V146.182H728.435V156H729.944V150.094ZM743.235 146.182H741.138V143.83H739.629V146.182H738.146V147.46H739.629V153.597C739.629 155.31 741.01 156.128 742.289 156.128C742.851 156.128 743.209 156.026 743.414 155.949L743.107 154.594C742.979 154.619 742.774 154.67 742.442 154.67C741.777 154.67 741.138 154.466 741.138 153.188V147.46H743.235V146.182ZM749.515 156.205C751.509 156.205 752.966 155.207 753.427 153.724L751.969 153.315C751.586 154.338 750.697 154.849 749.515 154.849C747.744 154.849 746.523 153.705 746.453 151.602H753.58V150.963C753.58 147.307 751.407 146.054 749.361 146.054C746.702 146.054 744.938 148.151 744.938 151.168C744.938 154.185 746.677 156.205 749.515 156.205ZM746.453 150.298C746.555 148.771 747.635 147.409 749.361 147.409C750.998 147.409 752.046 148.636 752.046 150.298H746.453ZM755.875 156H757.383V149.787C757.383 148.457 758.432 147.486 759.863 147.486C760.266 147.486 760.682 147.562 760.784 147.588V146.054C760.611 146.041 760.215 146.028 759.991 146.028C758.815 146.028 757.792 146.693 757.434 147.665H757.332V146.182H755.875V156ZM765.461 156.23C767.174 156.23 768.069 155.31 768.376 154.67H768.453V156H769.961V149.531C769.961 146.412 767.583 146.054 766.331 146.054C764.848 146.054 763.16 146.565 762.393 148.355L763.825 148.866C764.157 148.151 764.944 147.384 766.382 147.384C767.769 147.384 768.453 148.119 768.453 149.378V149.429C768.453 150.158 767.711 150.094 765.922 150.324C764.1 150.56 762.112 150.963 762.112 153.213C762.112 155.131 763.595 156.23 765.461 156.23ZM765.691 154.875C764.49 154.875 763.62 154.338 763.62 153.29C763.62 152.139 764.669 151.781 765.845 151.628C766.484 151.551 768.197 151.372 768.453 151.065V152.446C768.453 153.673 767.481 154.875 765.691 154.875ZM776.703 156.205C778.877 156.205 780.308 154.875 780.564 153.136H779.056C778.774 154.21 777.879 154.849 776.703 154.849C774.914 154.849 773.763 153.366 773.763 151.091C773.763 148.866 774.939 147.409 776.703 147.409C778.033 147.409 778.825 148.227 779.056 149.122H780.564C780.308 147.281 778.749 146.054 776.678 146.054C774.019 146.054 772.254 148.151 772.254 151.142C772.254 154.082 773.942 156.205 776.703 156.205ZM787.039 146.182H784.943V143.83H783.434V146.182H781.951V147.46H783.434V153.597C783.434 155.31 784.815 156.128 786.093 156.128C786.656 156.128 787.014 156.026 787.218 155.949L786.911 154.594C786.784 154.619 786.579 154.67 786.247 154.67C785.582 154.67 784.943 154.466 784.943 153.188V147.46H787.039V146.182ZM789.308 156H790.817V146.182H789.308V156ZM790.075 144.545C790.664 144.545 791.149 144.085 791.149 143.523C791.149 142.96 790.664 142.5 790.075 142.5C789.487 142.5 789.002 142.96 789.002 143.523C789.002 144.085 789.487 144.545 790.075 144.545ZM801.608 146.182H799.972L797.262 154.006H797.159L794.449 146.182H792.813L796.444 156H797.978L801.608 146.182ZM807.364 156.205C809.359 156.205 810.816 155.207 811.276 153.724L809.819 153.315C809.435 154.338 808.547 154.849 807.364 154.849C805.594 154.849 804.373 153.705 804.303 151.602H811.43V150.963C811.43 147.307 809.256 146.054 807.211 146.054C804.552 146.054 802.788 148.151 802.788 151.168C802.788 154.185 804.526 156.205 807.364 156.205ZM804.303 150.298C804.405 148.771 805.485 147.409 807.211 147.409C808.847 147.409 809.896 148.636 809.896 150.298H804.303ZM818.787 159.682H820.295V154.491H820.423C820.756 155.028 821.395 156.205 823.287 156.205C825.741 156.205 827.455 154.236 827.455 151.116C827.455 148.023 825.741 146.054 823.261 146.054C821.344 146.054 820.756 147.23 820.423 147.741H820.244V146.182H818.787V159.682ZM820.27 151.091C820.27 148.892 821.241 147.409 823.082 147.409C825 147.409 825.946 149.02 825.946 151.091C825.946 153.188 824.974 154.849 823.082 154.849C821.267 154.849 820.27 153.315 820.27 151.091ZM829.756 156H831.264V149.787C831.264 148.457 832.312 147.486 833.744 147.486C834.147 147.486 834.562 147.562 834.665 147.588V146.054C834.492 146.041 834.096 146.028 833.872 146.028C832.696 146.028 831.673 146.693 831.315 147.665H831.213V146.182H829.756V156ZM840.143 156.205C842.802 156.205 844.592 154.185 844.592 151.142C844.592 148.074 842.802 146.054 840.143 146.054C837.484 146.054 835.694 148.074 835.694 151.142C835.694 154.185 837.484 156.205 840.143 156.205ZM840.143 154.849C838.123 154.849 837.202 153.111 837.202 151.142C837.202 149.173 838.123 147.409 840.143 147.409C842.163 147.409 843.083 149.173 843.083 151.142C843.083 153.111 842.163 154.849 840.143 154.849ZM851.164 146.182H849.068V143.83H847.559V146.182H846.076V147.46H847.559V153.597C847.559 155.31 848.94 156.128 850.218 156.128C850.781 156.128 851.139 156.026 851.343 155.949L851.036 154.594C850.909 154.619 850.704 154.67 850.372 154.67C849.707 154.67 849.068 154.466 849.068 153.188V147.46H851.164V146.182ZM857.317 156.205C859.976 156.205 861.765 154.185 861.765 151.142C861.765 148.074 859.976 146.054 857.317 146.054C854.657 146.054 852.868 148.074 852.868 151.142C852.868 154.185 854.657 156.205 857.317 156.205ZM857.317 154.849C855.297 154.849 854.376 153.111 854.376 151.142C854.376 149.173 855.297 147.409 857.317 147.409C859.336 147.409 860.257 149.173 860.257 151.142C860.257 153.111 859.336 154.849 857.317 154.849ZM868.338 146.182H866.241V143.83H864.733V146.182H863.25V147.46H864.733V153.597C864.733 155.31 866.114 156.128 867.392 156.128C867.955 156.128 868.312 156.026 868.517 155.949L868.21 154.594C868.082 154.619 867.878 154.67 867.545 154.67C866.881 154.67 866.241 154.466 866.241 153.188V147.46H868.338V146.182ZM871.579 159.682C872.94 159.682 873.899 158.96 874.468 157.432L878.648 146.207L876.999 146.182L874.289 154.006H874.187L871.477 146.182H869.84L873.471 156.051L873.19 156.818C872.64 158.314 871.962 158.455 870.863 158.173L870.479 159.503C870.633 159.58 871.067 159.682 871.579 159.682ZM880.644 159.682H882.153V154.491H882.281C882.613 155.028 883.252 156.205 885.144 156.205C887.599 156.205 889.312 154.236 889.312 151.116C889.312 148.023 887.599 146.054 885.119 146.054C883.201 146.054 882.613 147.23 882.281 147.741H882.102V146.182H880.644V159.682ZM882.127 151.091C882.127 148.892 883.099 147.409 884.94 147.409C886.857 147.409 887.803 149.02 887.803 151.091C887.803 153.188 886.832 154.849 884.94 154.849C883.124 154.849 882.127 153.315 882.127 151.091ZM895.73 156.205C897.724 156.205 899.181 155.207 899.642 153.724L898.184 153.315C897.801 154.338 896.912 154.849 895.73 154.849C893.959 154.849 892.738 153.705 892.668 151.602H899.795V150.963C899.795 147.307 897.622 146.054 895.576 146.054C892.917 146.054 891.153 148.151 891.153 151.168C891.153 154.185 892.892 156.205 895.73 156.205ZM892.668 150.298C892.77 148.771 893.85 147.409 895.576 147.409C897.213 147.409 898.261 148.636 898.261 150.298H892.668Z" fill="black"/>
<path d="M1007.08 142.909H1005.52V153.213H1005.39L998.232 142.909H996.698V156H998.283V145.722H998.411L1005.54 156H1007.08V142.909ZM1014.16 156.205C1016.16 156.205 1017.61 155.207 1018.07 153.724L1016.62 153.315C1016.23 154.338 1015.34 154.849 1014.16 154.849C1012.39 154.849 1011.17 153.705 1011.1 151.602H1018.23V150.963C1018.23 147.307 1016.05 146.054 1014.01 146.054C1011.35 146.054 1009.59 148.151 1009.59 151.168C1009.59 154.185 1011.32 156.205 1014.16 156.205ZM1011.1 150.298C1011.2 148.771 1012.28 147.409 1014.01 147.409C1015.65 147.409 1016.69 148.636 1016.69 150.298H1011.1ZM1021.38 146.182H1019.64L1022.76 151.091L1019.64 156H1021.38L1023.74 152.19L1026.09 156H1027.83L1024.66 151.091L1027.83 146.182H1026.09L1023.74 150.196L1021.38 146.182ZM1034.25 146.182H1032.15V143.83H1030.64V146.182H1029.16V147.46H1030.64V153.597C1030.64 155.31 1032.02 156.128 1033.3 156.128C1033.87 156.128 1034.22 156.026 1034.43 155.949L1034.12 154.594C1033.99 154.619 1033.79 154.67 1033.46 154.67C1032.79 154.67 1032.15 154.466 1032.15 153.188V147.46H1034.25V146.182ZM1048.54 148.381C1048.06 146.987 1047 146.054 1045.06 146.054C1042.99 146.054 1041.45 147.23 1041.45 148.892C1041.45 150.247 1042.26 151.155 1044.06 151.577L1045.7 151.96C1046.69 152.19 1047.15 152.663 1047.15 153.341C1047.15 154.185 1046.26 154.875 1044.85 154.875C1043.62 154.875 1042.85 154.344 1042.58 153.29L1041.15 153.648C1041.5 155.316 1042.87 156.205 1044.88 156.205C1047.16 156.205 1048.71 154.958 1048.71 153.264C1048.71 151.896 1047.86 151.033 1046.11 150.605L1044.65 150.247C1043.49 149.96 1042.96 149.57 1042.96 148.815C1042.96 147.972 1043.86 147.358 1045.06 147.358C1046.37 147.358 1046.92 148.087 1047.18 148.764L1048.54 148.381ZM1055.26 146.182H1053.16V143.83H1051.65V146.182H1050.17V147.46H1051.65V153.597C1051.65 155.31 1053.03 156.128 1054.31 156.128C1054.87 156.128 1055.23 156.026 1055.43 155.949L1055.13 154.594C1055 154.619 1054.79 154.67 1054.46 154.67C1053.8 154.67 1053.16 154.466 1053.16 153.188V147.46H1055.26V146.182ZM1061.54 156.205C1063.53 156.205 1064.99 155.207 1065.45 153.724L1063.99 153.315C1063.61 154.338 1062.72 154.849 1061.54 154.849C1059.76 154.849 1058.54 153.705 1058.47 151.602H1065.6V150.963C1065.6 147.307 1063.43 146.054 1061.38 146.054C1058.72 146.054 1056.96 148.151 1056.96 151.168C1056.96 154.185 1058.7 156.205 1061.54 156.205ZM1058.47 150.298C1058.58 148.771 1059.66 147.409 1061.38 147.409C1063.02 147.409 1064.07 148.636 1064.07 150.298H1058.47ZM1067.9 159.682H1069.4V154.491H1069.53C1069.86 155.028 1070.5 156.205 1072.4 156.205C1074.85 156.205 1076.56 154.236 1076.56 151.116C1076.56 148.023 1074.85 146.054 1072.37 146.054C1070.45 146.054 1069.86 147.23 1069.53 147.741H1069.35V146.182H1067.9V159.682ZM1069.38 151.091C1069.38 148.892 1070.35 147.409 1072.19 147.409C1074.11 147.409 1075.05 149.02 1075.05 151.091C1075.05 153.188 1074.08 154.849 1072.19 154.849C1070.38 154.849 1069.38 153.315 1069.38 151.091ZM1085.82 148.381C1085.35 146.987 1084.28 146.054 1082.34 146.054C1080.27 146.054 1078.74 147.23 1078.74 148.892C1078.74 150.247 1079.54 151.155 1081.34 151.577L1082.98 151.96C1083.97 152.19 1084.44 152.663 1084.44 153.341C1084.44 154.185 1083.54 154.875 1082.14 154.875C1080.9 154.875 1080.13 154.344 1079.86 153.29L1078.43 153.648C1078.78 155.316 1080.16 156.205 1082.16 156.205C1084.44 156.205 1086 154.958 1086 153.264C1086 151.896 1085.14 151.033 1083.39 150.605L1081.93 150.247C1080.77 149.96 1080.24 149.57 1080.24 148.815C1080.24 147.972 1081.14 147.358 1082.34 147.358C1083.66 147.358 1084.2 148.087 1084.46 148.764L1085.82 148.381Z" fill="black"/>
<path d="M1001.01 122H1008.68V120.594H1002.6V108.909H1001.01V122ZM1015.05 122.205C1017.04 122.205 1018.5 121.207 1018.96 119.724L1017.5 119.315C1017.12 120.338 1016.23 120.849 1015.05 120.849C1013.28 120.849 1012.06 119.705 1011.99 117.602H1019.12V116.963C1019.12 113.307 1016.94 112.054 1014.9 112.054C1012.24 112.054 1010.47 114.151 1010.47 117.168C1010.47 120.185 1012.21 122.205 1015.05 122.205ZM1011.99 116.298C1012.09 114.771 1013.17 113.409 1014.9 113.409C1016.53 113.409 1017.58 114.636 1017.58 116.298H1011.99ZM1024.3 122.23C1026.01 122.23 1026.91 121.31 1027.21 120.67H1027.29V122H1028.8V115.531C1028.8 112.412 1026.42 112.054 1025.17 112.054C1023.69 112.054 1022 112.565 1021.23 114.355L1022.66 114.866C1023 114.151 1023.78 113.384 1025.22 113.384C1026.61 113.384 1027.29 114.119 1027.29 115.378V115.429C1027.29 116.158 1026.55 116.094 1024.76 116.324C1022.94 116.56 1020.95 116.963 1020.95 119.213C1020.95 121.131 1022.43 122.23 1024.3 122.23ZM1024.53 120.875C1023.33 120.875 1022.46 120.338 1022.46 119.29C1022.46 118.139 1023.51 117.781 1024.68 117.628C1025.32 117.551 1027.03 117.372 1027.29 117.065V118.446C1027.29 119.673 1026.32 120.875 1024.53 120.875ZM1031.55 122H1033.06V115.787C1033.06 114.457 1034.11 113.486 1035.54 113.486C1035.94 113.486 1036.36 113.562 1036.46 113.588V112.054C1036.29 112.041 1035.89 112.028 1035.67 112.028C1034.49 112.028 1033.47 112.693 1033.11 113.665H1033.01V112.182H1031.55V122ZM1039.76 116.094C1039.76 114.381 1040.82 113.409 1042.26 113.409C1043.66 113.409 1044.51 114.323 1044.51 115.864V122H1046.02V115.761C1046.02 113.256 1044.69 112.054 1042.7 112.054C1041.22 112.054 1040.3 112.719 1039.84 113.716H1039.71V112.182H1038.25V122H1039.76V116.094ZM1048.78 122H1050.29V112.182H1048.78V122ZM1049.55 110.545C1050.13 110.545 1050.62 110.085 1050.62 109.523C1050.62 108.96 1050.13 108.5 1049.55 108.5C1048.96 108.5 1048.47 108.96 1048.47 109.523C1048.47 110.085 1048.96 110.545 1049.55 110.545ZM1054.56 116.094C1054.56 114.381 1055.62 113.409 1057.06 113.409C1058.46 113.409 1059.31 114.323 1059.31 115.864V122H1060.82V115.761C1060.82 113.256 1059.49 112.054 1057.5 112.054C1056.02 112.054 1055.1 112.719 1054.64 113.716H1054.51V112.182H1053.05V122H1054.56V116.094ZM1067.54 125.886C1069.9 125.886 1071.79 124.812 1071.79 122.281V112.182H1070.33V113.741H1070.18C1069.84 113.23 1069.23 112.054 1067.31 112.054C1064.83 112.054 1063.12 114.023 1063.12 117.04C1063.12 120.108 1064.91 121.847 1067.29 121.847C1069.2 121.847 1069.82 120.722 1070.15 120.185H1070.28V122.179C1070.28 123.815 1069.13 124.557 1067.54 124.557C1065.76 124.557 1065.13 123.617 1064.73 123.074L1063.53 123.918C1064.14 124.947 1065.35 125.886 1067.54 125.886ZM1067.49 120.491C1065.6 120.491 1064.63 119.06 1064.63 117.014C1064.63 115.02 1065.57 113.409 1067.49 113.409C1069.33 113.409 1070.3 114.892 1070.3 117.014C1070.3 119.188 1069.31 120.491 1067.49 120.491ZM1081.5 114.381C1081.03 112.987 1079.97 112.054 1078.03 112.054C1075.95 112.054 1074.42 113.23 1074.42 114.892C1074.42 116.247 1075.23 117.155 1077.03 117.577L1078.67 117.96C1079.66 118.19 1080.12 118.663 1080.12 119.341C1080.12 120.185 1079.23 120.875 1077.82 120.875C1076.59 120.875 1075.81 120.344 1075.55 119.29L1074.11 119.648C1074.47 121.316 1075.84 122.205 1077.85 122.205C1080.13 122.205 1081.68 120.958 1081.68 119.264C1081.68 117.896 1080.83 117.033 1079.07 116.605L1077.62 116.247C1076.45 115.96 1075.93 115.57 1075.93 114.815C1075.93 113.972 1076.82 113.358 1078.03 113.358C1079.34 113.358 1079.89 114.087 1080.15 114.764L1081.5 114.381Z" fill="black"/>
</svg>
