<svg width="1188" height="276" viewBox="0 0 1188 276" fill="none" xmlns="http://www.w3.org/2000/svg">
<rect width="1188" height="276" fill="#F4F0E9"/>
<rect width="1188" height="83" fill="#658777"/>
<path d="M53.152 51H57.1044V43.6278H61.2805C66.3196 43.6278 69.0256 40.6023 69.0256 36.4048C69.0256 32.2393 66.3516 29.1818 61.3338 29.1818H53.152V51ZM57.1044 40.3786V32.4844H60.7266C63.6882 32.4844 64.9986 34.0824 64.9986 36.4048C64.9986 38.7273 63.6882 40.3786 60.7479 40.3786H57.1044ZM78.9086 51H82.861V43.0099H86.888L91.1707 51H95.5812L90.8618 42.3494C93.4292 41.3161 94.7822 39.1214 94.7822 36.1598C94.7822 31.9943 92.0976 29.1818 87.0904 29.1818H78.9086V51ZM82.861 39.7287V32.4844H86.4832C89.4342 32.4844 90.7552 33.8374 90.7552 36.1598C90.7552 38.4822 89.4342 39.7287 86.5045 39.7287H82.861ZM124.366 40.0909C124.366 33.0384 120.062 28.8835 114.341 28.8835C108.61 28.8835 104.316 33.0384 104.316 40.0909C104.316 47.1328 108.61 51.2983 114.341 51.2983C120.062 51.2983 124.366 47.1435 124.366 40.0909ZM120.392 40.0909C120.392 45.0554 117.899 47.7507 114.341 47.7507C110.794 47.7507 108.29 45.0554 108.29 40.0909C108.29 35.1264 110.794 32.4311 114.341 32.4311C117.899 32.4311 120.392 35.1264 120.392 40.0909ZM134.553 51H143.384C148.381 51 150.831 48.4538 150.831 45.0554C150.831 41.7528 148.487 39.8139 146.165 39.6967V39.4837C148.296 38.983 149.979 37.4915 149.979 34.8388C149.979 31.5895 147.635 29.1818 142.905 29.1818H134.553V51ZM138.505 47.6974V41.3054H142.862C145.302 41.3054 146.815 42.7969 146.815 44.7464C146.815 46.483 145.622 47.6974 142.756 47.6974H138.505ZM138.505 38.4609V32.4418H142.5C144.823 32.4418 146.026 33.6669 146.026 35.3501C146.026 37.2678 144.471 38.4609 142.415 38.4609H138.505ZM160.72 51H174.281V47.6868H164.672V29.1818H160.72V51ZM184.162 51H198.437V47.6868H188.114V41.7315H197.617V38.4183H188.114V32.495H198.352V29.1818H184.162V51ZM208.834 29.1818V51H212.627V35.9787H212.829L218.859 50.9361H221.693L227.723 36.0107H227.925V51H231.718V29.1818H226.881L220.404 44.9915H220.148L213.671 29.1818H208.834ZM268.221 35.1797H272.024C271.949 31.4936 268.807 28.8835 264.162 28.8835C259.581 28.8835 256.14 31.4616 256.15 35.3182C256.15 38.4503 258.377 40.2507 261.967 41.1776L264.449 41.8168C266.804 42.4134 268.359 43.1484 268.37 44.8423C268.359 46.7067 266.591 47.9531 264.012 47.9531C261.541 47.9531 259.623 46.8452 259.463 44.5547H255.575C255.735 48.8906 258.963 51.3303 264.044 51.3303C269.275 51.3303 272.311 48.7202 272.322 44.8743C272.311 41.0923 269.19 39.3665 265.909 38.5888L263.863 38.0774C262.074 37.6513 260.135 36.8949 260.156 35.0732C260.167 33.4325 261.637 32.2287 264.108 32.2287C266.463 32.2287 268.018 33.326 268.221 35.1797ZM281.337 32.495H288.081V51H292.001V32.495H298.745V29.1818H281.337V32.495ZM308.716 51L310.516 45.62H318.719L320.53 51H324.749L317.057 29.1818H312.178L304.497 51H308.716ZM311.581 42.4453L314.532 33.6562H314.703L317.654 42.4453H311.581ZM330.477 32.495H337.221V51H341.141V32.495H347.885V29.1818H330.477V32.495ZM357.691 51H371.966V47.6868H361.643V41.7315H371.146V38.4183H361.643V32.495H371.881V29.1818H357.691V51ZM382.363 29.1818V51H386.156V35.9787H386.358L392.388 50.9361H395.222L401.252 36.0107H401.454V51H405.247V29.1818H400.41L393.933 44.9915H393.677L387.2 29.1818H382.363ZM416.001 51H430.276V47.6868H419.953V41.7315H429.456V38.4183H419.953V32.495H430.191V29.1818H416.001V51ZM458.603 29.1818H454.672V44.054H454.48L444.21 29.1818H440.673V51H444.626V36.1385H444.807L455.088 51H458.603V29.1818ZM468.401 32.495H475.145V51H479.065V32.495H485.809V29.1818H468.401V32.495Z" fill="white"/>
<path d="M52.5455 129.227H59.8636V150H62.6818V129.227H70V126.727H52.5455V129.227ZM81.5312 150C88.6222 150 92.6222 145.591 92.6222 138.318C92.6222 131.091 88.6222 126.727 81.8494 126.727H74.3494V150H81.5312ZM77.1676 147.5V129.227H81.6676C87.1222 129.227 89.8949 132.682 89.8949 138.318C89.8949 144 87.1222 147.5 81.3494 147.5H77.1676ZM125.077 134C124.213 129.227 120.395 126.409 115.713 126.409C109.759 126.409 105.44 131 105.44 138.364C105.44 145.727 109.759 150.318 115.713 150.318C120.395 150.318 124.213 147.5 125.077 142.727H122.259C121.577 145.955 118.804 147.682 115.713 147.682C111.486 147.682 108.168 144.409 108.168 138.364C108.168 132.318 111.486 129.045 115.713 129.045C118.804 129.045 121.577 130.773 122.259 134H125.077ZM131.949 126.727H129.267V150H131.949V126.727ZM136.861 150H139.543V132.545H136.861V150ZM138.224 129.636C139.27 129.636 140.134 128.818 140.134 127.818C140.134 126.818 139.27 126 138.224 126C137.179 126 136.315 126.818 136.315 127.818C136.315 128.818 137.179 129.636 138.224 129.636ZM151.773 150.364C155.318 150.364 157.909 148.591 158.727 145.955L156.136 145.227C155.455 147.045 153.875 147.955 151.773 147.955C148.625 147.955 146.455 145.92 146.33 142.182H159V141.045C159 134.545 155.136 132.318 151.5 132.318C146.773 132.318 143.636 136.045 143.636 141.409C143.636 146.773 146.727 150.364 151.773 150.364ZM146.33 139.864C146.511 137.148 148.432 134.727 151.5 134.727C154.409 134.727 156.273 136.909 156.273 139.864H146.33ZM165.761 139.5C165.761 136.455 167.648 134.727 170.216 134.727C172.705 134.727 174.216 136.352 174.216 139.091V150H176.898V138.909C176.898 134.455 174.523 132.318 170.989 132.318C168.352 132.318 166.716 133.5 165.898 135.273H165.67V132.545H163.08V150H165.761V139.5ZM189.389 132.545H185.662V128.364H182.98V132.545H180.344V134.818H182.98V145.727C182.98 148.773 185.435 150.227 187.707 150.227C188.707 150.227 189.344 150.045 189.707 149.909L189.162 147.5C188.935 147.545 188.571 147.636 187.98 147.636C186.798 147.636 185.662 147.273 185.662 145V134.818H189.389V132.545ZM205.474 136.455C204.634 133.977 202.747 132.318 199.293 132.318C195.611 132.318 192.884 134.409 192.884 137.364C192.884 139.773 194.315 141.386 197.52 142.136L200.429 142.818C202.19 143.227 203.02 144.068 203.02 145.273C203.02 146.773 201.429 148 198.929 148C196.736 148 195.361 147.057 194.884 145.182L192.338 145.818C192.963 148.784 195.406 150.364 198.974 150.364C203.031 150.364 205.793 148.148 205.793 145.136C205.793 142.705 204.27 141.17 201.156 140.409L198.565 139.773C196.497 139.261 195.565 138.568 195.565 137.227C195.565 135.727 197.156 134.636 199.293 134.636C201.634 134.636 202.599 135.932 203.065 137.136L205.474 136.455ZM221.511 139.5C221.511 136.455 223.398 134.727 225.966 134.727C228.455 134.727 229.966 136.352 229.966 139.091V150H232.648V138.909C232.648 134.455 230.273 132.318 226.739 132.318C224.102 132.318 222.466 133.5 221.648 135.273H221.42V132.545H218.83V150H221.511V139.5ZM244.866 150.364C248.412 150.364 251.003 148.591 251.821 145.955L249.23 145.227C248.548 147.045 246.969 147.955 244.866 147.955C241.719 147.955 239.548 145.92 239.423 142.182H252.094V141.045C252.094 134.545 248.23 132.318 244.594 132.318C239.866 132.318 236.73 136.045 236.73 141.409C236.73 146.773 239.821 150.364 244.866 150.364ZM239.423 139.864C239.605 137.148 241.526 134.727 244.594 134.727C247.503 134.727 249.366 136.909 249.366 139.864H239.423ZM263.491 150.364C267.037 150.364 269.628 148.591 270.446 145.955L267.855 145.227C267.173 147.045 265.594 147.955 263.491 147.955C260.344 147.955 258.173 145.92 258.048 142.182H270.719V141.045C270.719 134.545 266.855 132.318 263.219 132.318C258.491 132.318 255.355 136.045 255.355 141.409C255.355 146.773 258.446 150.364 263.491 150.364ZM258.048 139.864C258.23 137.148 260.151 134.727 263.219 134.727C266.128 134.727 267.991 136.909 267.991 139.864H258.048ZM281.389 150.364C284.753 150.364 285.889 148.273 286.48 147.318H286.798V150H289.389V126.727H286.707V135.318H286.48C285.889 134.409 284.844 132.318 281.435 132.318C277.026 132.318 273.98 135.818 273.98 141.318C273.98 146.864 277.026 150.364 281.389 150.364ZM281.753 147.955C278.389 147.955 276.662 145 276.662 141.273C276.662 137.591 278.344 134.727 281.753 134.727C285.026 134.727 286.753 137.364 286.753 141.273C286.753 145.227 284.98 147.955 281.753 147.955ZM308.81 150.409C311.855 150.409 313.446 148.773 313.991 147.636H314.128V150H316.81V138.5C316.81 132.955 312.582 132.318 310.355 132.318C307.719 132.318 304.719 133.227 303.355 136.409L305.901 137.318C306.491 136.045 307.889 134.682 310.446 134.682C312.912 134.682 314.128 135.989 314.128 138.227V138.318C314.128 139.614 312.81 139.5 309.628 139.909C306.389 140.33 302.855 141.045 302.855 145.045C302.855 148.455 305.491 150.409 308.81 150.409ZM309.219 148C307.082 148 305.537 147.045 305.537 145.182C305.537 143.136 307.401 142.5 309.491 142.227C310.628 142.091 313.673 141.773 314.128 141.227V143.682C314.128 145.864 312.401 148 309.219 148ZM337.795 150.364C341.659 150.364 344.205 148 344.659 144.909H341.977C341.477 146.818 339.886 147.955 337.795 147.955C334.614 147.955 332.568 145.318 332.568 141.273C332.568 137.318 334.659 134.727 337.795 134.727C340.159 134.727 341.568 136.182 341.977 137.773H344.659C344.205 134.5 341.432 132.318 337.75 132.318C333.023 132.318 329.886 136.045 329.886 141.364C329.886 146.591 332.886 150.364 337.795 150.364ZM355.67 150.364C360.398 150.364 363.58 146.773 363.58 141.364C363.58 135.909 360.398 132.318 355.67 132.318C350.943 132.318 347.761 135.909 347.761 141.364C347.761 146.773 350.943 150.364 355.67 150.364ZM355.67 147.955C352.08 147.955 350.443 144.864 350.443 141.364C350.443 137.864 352.08 134.727 355.67 134.727C359.261 134.727 360.898 137.864 360.898 141.364C360.898 144.864 359.261 147.955 355.67 147.955ZM370.355 139.5C370.355 136.455 372.241 134.727 374.81 134.727C377.298 134.727 378.81 136.352 378.81 139.091V150H381.491V138.909C381.491 134.455 379.116 132.318 375.582 132.318C372.946 132.318 371.31 133.5 370.491 135.273H370.264V132.545H367.673V150H370.355V139.5ZM400.04 132.545H397.131L392.312 146.455H392.131L387.312 132.545H384.403L390.858 150H393.585L400.04 132.545ZM410.273 150.364C413.818 150.364 416.409 148.591 417.227 145.955L414.636 145.227C413.955 147.045 412.375 147.955 410.273 147.955C407.125 147.955 404.955 145.92 404.83 142.182H417.5V141.045C417.5 134.545 413.636 132.318 410 132.318C405.273 132.318 402.136 136.045 402.136 141.409C402.136 146.773 405.227 150.364 410.273 150.364ZM404.83 139.864C405.011 137.148 406.932 134.727 410 134.727C412.909 134.727 414.773 136.909 414.773 139.864H404.83ZM424.261 139.5C424.261 136.455 426.148 134.727 428.716 134.727C431.205 134.727 432.716 136.352 432.716 139.091V150H435.398V138.909C435.398 134.455 433.023 132.318 429.489 132.318C426.852 132.318 425.216 133.5 424.398 135.273H424.17V132.545H421.58V150H424.261V139.5ZM440.298 150H442.98V132.545H440.298V150ZM441.662 129.636C442.707 129.636 443.571 128.818 443.571 127.818C443.571 126.818 442.707 126 441.662 126C440.616 126 439.753 126.818 439.753 127.818C439.753 128.818 440.616 129.636 441.662 129.636ZM455.21 150.364C458.756 150.364 461.347 148.591 462.165 145.955L459.574 145.227C458.892 147.045 457.312 147.955 455.21 147.955C452.062 147.955 449.892 145.92 449.767 142.182H462.438V141.045C462.438 134.545 458.574 132.318 454.938 132.318C450.21 132.318 447.074 136.045 447.074 141.409C447.074 146.773 450.165 150.364 455.21 150.364ZM449.767 139.864C449.949 137.148 451.869 134.727 454.938 134.727C457.847 134.727 459.71 136.909 459.71 139.864H449.767ZM469.199 139.5C469.199 136.455 471.085 134.727 473.653 134.727C476.142 134.727 477.653 136.352 477.653 139.091V150H480.335V138.909C480.335 134.455 477.96 132.318 474.426 132.318C471.79 132.318 470.153 133.5 469.335 135.273H469.108V132.545H466.517V150H469.199V139.5ZM492.827 132.545H489.099V128.364H486.418V132.545H483.781V134.818H486.418V145.727C486.418 148.773 488.872 150.227 491.145 150.227C492.145 150.227 492.781 150.045 493.145 149.909L492.599 147.5C492.372 147.545 492.009 147.636 491.418 147.636C490.236 147.636 489.099 147.273 489.099 145V134.818H492.827V132.545ZM505.861 150H508.543V139.091C508.543 136.534 510.406 134.727 512.497 134.727C514.531 134.727 515.952 136.057 515.952 138.045V150H518.679V138.636C518.679 136.386 520.088 134.727 522.543 134.727C524.452 134.727 526.088 135.739 526.088 138.318V150H528.77V138.318C528.77 134.216 526.565 132.318 523.452 132.318C520.952 132.318 519.122 133.466 518.224 135.273H518.043C517.179 133.409 515.656 132.318 513.361 132.318C511.088 132.318 509.406 133.409 508.679 135.273H508.452V132.545H505.861V150ZM540.991 150.364C544.537 150.364 547.128 148.591 547.946 145.955L545.355 145.227C544.673 147.045 543.094 147.955 540.991 147.955C537.844 147.955 535.673 145.92 535.548 142.182H548.219V141.045C548.219 134.545 544.355 132.318 540.719 132.318C535.991 132.318 532.855 136.045 532.855 141.409C532.855 146.773 535.946 150.364 540.991 150.364ZM535.548 139.864C535.73 137.148 537.651 134.727 540.719 134.727C543.628 134.727 545.491 136.909 545.491 139.864H535.548ZM559.889 132.545H556.162V128.364H553.48V132.545H550.844V134.818H553.48V145.727C553.48 148.773 555.935 150.227 558.207 150.227C559.207 150.227 559.844 150.045 560.207 149.909L559.662 147.5C559.435 147.545 559.071 147.636 558.48 147.636C557.298 147.636 556.162 147.273 556.162 145V134.818H559.889V132.545ZM566.98 139.5C566.98 136.455 568.923 134.727 571.571 134.727C574.094 134.727 575.616 136.318 575.616 139.091V150H578.298V138.909C578.298 134.42 575.912 132.318 572.344 132.318C569.594 132.318 568.026 133.466 567.207 135.273H566.98V126.727H564.298V150H566.98V139.5ZM590.295 150.364C595.023 150.364 598.205 146.773 598.205 141.364C598.205 135.909 595.023 132.318 590.295 132.318C585.568 132.318 582.386 135.909 582.386 141.364C582.386 146.773 585.568 150.364 590.295 150.364ZM590.295 147.955C586.705 147.955 585.068 144.864 585.068 141.364C585.068 137.864 586.705 134.727 590.295 134.727C593.886 134.727 595.523 137.864 595.523 141.364C595.523 144.864 593.886 147.955 590.295 147.955ZM608.889 150.364C612.253 150.364 613.389 148.273 613.98 147.318H614.298V150H616.889V126.727H614.207V135.318H613.98C613.389 134.409 612.344 132.318 608.935 132.318C604.526 132.318 601.48 135.818 601.48 141.318C601.48 146.864 604.526 150.364 608.889 150.364ZM609.253 147.955C605.889 147.955 604.162 145 604.162 141.273C604.162 137.591 605.844 134.727 609.253 134.727C612.526 134.727 614.253 137.364 614.253 141.273C614.253 145.227 612.48 147.955 609.253 147.955ZM638.264 150.364C642.991 150.364 646.173 146.773 646.173 141.364C646.173 135.909 642.991 132.318 638.264 132.318C633.537 132.318 630.355 135.909 630.355 141.364C630.355 146.773 633.537 150.364 638.264 150.364ZM638.264 147.955C634.673 147.955 633.037 144.864 633.037 141.364C633.037 137.864 634.673 134.727 638.264 134.727C641.855 134.727 643.491 137.864 643.491 141.364C643.491 144.864 641.855 147.955 638.264 147.955ZM658.04 132.545H654.131V130.773C654.131 129.045 654.858 128.136 656.631 128.136C657.403 128.136 657.858 128.318 658.131 128.409L658.903 126.091C658.494 125.909 657.676 125.636 656.358 125.636C653.858 125.636 651.449 127.136 651.449 130.136V132.545H648.631V134.818H651.449V150H654.131V134.818H658.04V132.545ZM677.389 150.364C680.753 150.364 681.889 148.273 682.48 147.318H682.798V150H685.389V126.727H682.707V135.318H682.48C681.889 134.409 680.844 132.318 677.435 132.318C673.026 132.318 669.98 135.818 669.98 141.318C669.98 146.864 673.026 150.364 677.389 150.364ZM677.753 147.955C674.389 147.955 672.662 145 672.662 141.273C672.662 137.591 674.344 134.727 677.753 134.727C681.026 134.727 682.753 137.364 682.753 141.273C682.753 145.227 680.98 147.955 677.753 147.955ZM690.673 150H693.355V132.545H690.673V150ZM692.037 129.636C693.082 129.636 693.946 128.818 693.946 127.818C693.946 126.818 693.082 126 692.037 126C690.991 126 690.128 126.818 690.128 127.818C690.128 128.818 690.991 129.636 692.037 129.636ZM710.631 136.455C709.79 133.977 707.903 132.318 704.449 132.318C700.767 132.318 698.04 134.409 698.04 137.364C698.04 139.773 699.472 141.386 702.676 142.136L705.585 142.818C707.347 143.227 708.176 144.068 708.176 145.273C708.176 146.773 706.585 148 704.085 148C701.892 148 700.517 147.057 700.04 145.182L697.494 145.818C698.119 148.784 700.562 150.364 704.131 150.364C708.188 150.364 710.949 148.148 710.949 145.136C710.949 142.705 709.426 141.17 706.312 140.409L703.722 139.773C701.653 139.261 700.722 138.568 700.722 137.227C700.722 135.727 702.312 134.636 704.449 134.636C706.79 134.636 707.756 135.932 708.222 137.136L710.631 136.455ZM722.077 150.364C725.94 150.364 728.486 148 728.94 144.909H726.259C725.759 146.818 724.168 147.955 722.077 147.955C718.895 147.955 716.849 145.318 716.849 141.273C716.849 137.318 718.94 134.727 722.077 134.727C724.44 134.727 725.849 136.182 726.259 137.773H728.94C728.486 134.5 725.713 132.318 722.031 132.318C717.304 132.318 714.168 136.045 714.168 141.364C714.168 146.591 717.168 150.364 722.077 150.364ZM739.952 150.364C744.679 150.364 747.861 146.773 747.861 141.364C747.861 135.909 744.679 132.318 739.952 132.318C735.224 132.318 732.043 135.909 732.043 141.364C732.043 146.773 735.224 150.364 739.952 150.364ZM739.952 147.955C736.361 147.955 734.724 144.864 734.724 141.364C734.724 137.864 736.361 134.727 739.952 134.727C743.543 134.727 745.179 137.864 745.179 141.364C745.179 144.864 743.543 147.955 739.952 147.955ZM765.602 132.545H762.693L757.875 146.455H757.693L752.875 132.545H749.966L756.42 150H759.148L765.602 132.545ZM775.835 150.364C779.381 150.364 781.972 148.591 782.79 145.955L780.199 145.227C779.517 147.045 777.938 147.955 775.835 147.955C772.688 147.955 770.517 145.92 770.392 142.182H783.062V141.045C783.062 134.545 779.199 132.318 775.562 132.318C770.835 132.318 767.699 136.045 767.699 141.409C767.699 146.773 770.79 150.364 775.835 150.364ZM770.392 139.864C770.574 137.148 772.494 134.727 775.562 134.727C778.472 134.727 780.335 136.909 780.335 139.864H770.392ZM787.142 150H789.824V138.955C789.824 136.591 791.688 134.864 794.233 134.864C794.949 134.864 795.688 135 795.869 135.045V132.318C795.562 132.295 794.858 132.273 794.46 132.273C792.369 132.273 790.551 133.455 789.915 135.182H789.733V132.545H787.142V150ZM799.048 150H801.73V132.545H799.048V150ZM800.412 129.636C801.457 129.636 802.321 128.818 802.321 127.818C802.321 126.818 801.457 126 800.412 126C799.366 126 798.503 126.818 798.503 127.818C798.503 128.818 799.366 129.636 800.412 129.636ZM809.324 139.5C809.324 136.455 811.21 134.727 813.778 134.727C816.267 134.727 817.778 136.352 817.778 139.091V150H820.46V138.909C820.46 134.455 818.085 132.318 814.551 132.318C811.915 132.318 810.278 133.5 809.46 135.273H809.233V132.545H806.642V150H809.324V139.5ZM832.406 156.909C836.588 156.909 839.952 155 839.952 150.5V132.545H837.361V135.318H837.088C836.497 134.409 835.406 132.318 831.997 132.318C827.588 132.318 824.543 135.818 824.543 141.182C824.543 146.636 827.724 149.727 831.952 149.727C835.361 149.727 836.452 147.727 837.043 146.773H837.27V150.318C837.27 153.227 835.224 154.545 832.406 154.545C829.236 154.545 828.122 152.875 827.406 151.909L825.27 153.409C826.361 155.239 828.509 156.909 832.406 156.909ZM832.315 147.318C828.952 147.318 827.224 144.773 827.224 141.136C827.224 137.591 828.906 134.727 832.315 134.727C835.588 134.727 837.315 137.364 837.315 141.136C837.315 145 835.543 147.318 832.315 147.318ZM856.543 126.727H853.861V150H856.543V126.727ZM868.545 150.364C873.273 150.364 876.455 146.773 876.455 141.364C876.455 135.909 873.273 132.318 868.545 132.318C863.818 132.318 860.636 135.909 860.636 141.364C860.636 146.773 863.818 150.364 868.545 150.364ZM868.545 147.955C864.955 147.955 863.318 144.864 863.318 141.364C863.318 137.864 864.955 134.727 868.545 134.727C872.136 134.727 873.773 137.864 873.773 141.364C873.773 144.864 872.136 147.955 868.545 147.955ZM887.639 150.364C891.503 150.364 894.048 148 894.503 144.909H891.821C891.321 146.818 889.73 147.955 887.639 147.955C884.457 147.955 882.412 145.318 882.412 141.273C882.412 137.318 884.503 134.727 887.639 134.727C890.003 134.727 891.412 136.182 891.821 137.773H894.503C894.048 134.5 891.276 132.318 887.594 132.318C882.866 132.318 879.73 136.045 879.73 141.364C879.73 146.591 882.73 150.364 887.639 150.364ZM903.56 150.409C906.605 150.409 908.196 148.773 908.741 147.636H908.878V150H911.56V138.5C911.56 132.955 907.332 132.318 905.105 132.318C902.469 132.318 899.469 133.227 898.105 136.409L900.651 137.318C901.241 136.045 902.639 134.682 905.196 134.682C907.662 134.682 908.878 135.989 908.878 138.227V138.318C908.878 139.614 907.56 139.5 904.378 139.909C901.139 140.33 897.605 141.045 897.605 145.045C897.605 148.455 900.241 150.409 903.56 150.409ZM903.969 148C901.832 148 900.287 147.045 900.287 145.182C900.287 143.136 902.151 142.5 904.241 142.227C905.378 142.091 908.423 141.773 908.878 141.227V143.682C908.878 145.864 907.151 148 903.969 148ZM919.136 126.727H916.455V150H919.136V126.727ZM67.7273 171.545H64.8182L60 185.455H59.8182L55 171.545H52.0909L58.5455 189H61.2727L67.7273 171.545ZM77.733 189.364C82.4602 189.364 85.642 185.773 85.642 180.364C85.642 174.909 82.4602 171.318 77.733 171.318C73.0057 171.318 69.8239 174.909 69.8239 180.364C69.8239 185.773 73.0057 189.364 77.733 189.364ZM77.733 186.955C74.142 186.955 72.5057 183.864 72.5057 180.364C72.5057 176.864 74.142 173.727 77.733 173.727C81.3239 173.727 82.9602 176.864 82.9602 180.364C82.9602 183.864 81.3239 186.955 77.733 186.955ZM92.4176 165.727H89.7358V189H92.4176V165.727ZM108.33 181.864C108.33 185.136 105.83 186.636 103.83 186.636C101.602 186.636 100.011 185 100.011 182.455V171.545H97.3295V182.636C97.3295 187.091 99.6932 189.227 102.966 189.227C105.602 189.227 107.33 187.818 108.148 186.045H108.33V189H111.011V171.545H108.33V181.864ZM118.605 178.5C118.605 175.455 120.491 173.727 123.06 173.727C125.548 173.727 127.06 175.352 127.06 178.091V189H129.741V177.909C129.741 173.455 127.366 171.318 123.832 171.318C121.196 171.318 119.56 172.5 118.741 174.273H118.514V171.545H115.923V189H118.605V178.5ZM142.233 171.545H138.506V167.364H135.824V171.545H133.188V173.818H135.824V184.727C135.824 187.773 138.278 189.227 140.551 189.227C141.551 189.227 142.188 189.045 142.551 188.909L142.006 186.5C141.778 186.545 141.415 186.636 140.824 186.636C139.642 186.636 138.506 186.273 138.506 184V173.818H142.233V171.545ZM153.398 189.364C156.943 189.364 159.534 187.591 160.352 184.955L157.761 184.227C157.08 186.045 155.5 186.955 153.398 186.955C150.25 186.955 148.08 184.92 147.955 181.182H160.625V180.045C160.625 173.545 156.761 171.318 153.125 171.318C148.398 171.318 145.261 175.045 145.261 180.409C145.261 185.773 148.352 189.364 153.398 189.364ZM147.955 178.864C148.136 176.148 150.057 173.727 153.125 173.727C156.034 173.727 157.898 175.909 157.898 178.864H147.955ZM172.023 189.364C175.568 189.364 178.159 187.591 178.977 184.955L176.386 184.227C175.705 186.045 174.125 186.955 172.023 186.955C168.875 186.955 166.705 184.92 166.58 181.182H179.25V180.045C179.25 173.545 175.386 171.318 171.75 171.318C167.023 171.318 163.886 175.045 163.886 180.409C163.886 185.773 166.977 189.364 172.023 189.364ZM166.58 178.864C166.761 176.148 168.682 173.727 171.75 173.727C174.659 173.727 176.523 175.909 176.523 178.864H166.58ZM183.33 189H186.011V177.955C186.011 175.591 187.875 173.864 190.42 173.864C191.136 173.864 191.875 174 192.057 174.045V171.318C191.75 171.295 191.045 171.273 190.648 171.273C188.557 171.273 186.739 172.455 186.102 174.182H185.92V171.545H183.33V189ZM195.236 189H197.918V171.545H195.236V189ZM196.599 168.636C197.645 168.636 198.509 167.818 198.509 166.818C198.509 165.818 197.645 165 196.599 165C195.554 165 194.69 165.818 194.69 166.818C194.69 167.818 195.554 168.636 196.599 168.636ZM205.511 178.5C205.511 175.455 207.398 173.727 209.966 173.727C212.455 173.727 213.966 175.352 213.966 178.091V189H216.648V177.909C216.648 173.455 214.273 171.318 210.739 171.318C208.102 171.318 206.466 172.5 205.648 174.273H205.42V171.545H202.83V189H205.511V178.5ZM228.594 195.909C232.776 195.909 236.139 194 236.139 189.5V171.545H233.548V174.318H233.276C232.685 173.409 231.594 171.318 228.185 171.318C223.776 171.318 220.73 174.818 220.73 180.182C220.73 185.636 223.912 188.727 228.139 188.727C231.548 188.727 232.639 186.727 233.23 185.773H233.457V189.318C233.457 192.227 231.412 193.545 228.594 193.545C225.423 193.545 224.31 191.875 223.594 190.909L221.457 192.409C222.548 194.239 224.696 195.909 228.594 195.909ZM228.503 186.318C225.139 186.318 223.412 183.773 223.412 180.136C223.412 176.591 225.094 173.727 228.503 173.727C231.776 173.727 233.503 176.364 233.503 180.136C233.503 184 231.73 186.318 228.503 186.318ZM257.139 189.364C261.866 189.364 265.048 185.773 265.048 180.364C265.048 174.909 261.866 171.318 257.139 171.318C252.412 171.318 249.23 174.909 249.23 180.364C249.23 185.773 252.412 189.364 257.139 189.364ZM257.139 186.955C253.548 186.955 251.912 183.864 251.912 180.364C251.912 176.864 253.548 173.727 257.139 173.727C260.73 173.727 262.366 176.864 262.366 180.364C262.366 183.864 260.73 186.955 257.139 186.955ZM269.142 195.545H271.824V186.318H272.051C272.642 187.273 273.778 189.364 277.142 189.364C281.506 189.364 284.551 185.864 284.551 180.318C284.551 174.818 281.506 171.318 277.097 171.318C273.688 171.318 272.642 173.409 272.051 174.318H271.733V171.545H269.142V195.545ZM271.778 180.273C271.778 176.364 273.506 173.727 276.778 173.727C280.188 173.727 281.869 176.591 281.869 180.273C281.869 184 280.142 186.955 276.778 186.955C273.551 186.955 271.778 184.227 271.778 180.273ZM288.642 195.545H291.324V186.318H291.551C292.142 187.273 293.278 189.364 296.642 189.364C301.006 189.364 304.051 185.864 304.051 180.318C304.051 174.818 301.006 171.318 296.597 171.318C293.188 171.318 292.142 173.409 291.551 174.318H291.233V171.545H288.642V195.545ZM291.278 180.273C291.278 176.364 293.006 173.727 296.278 173.727C299.688 173.727 301.369 176.591 301.369 180.273C301.369 184 299.642 186.955 296.278 186.955C293.051 186.955 291.278 184.227 291.278 180.273ZM315.233 189.364C319.96 189.364 323.142 185.773 323.142 180.364C323.142 174.909 319.96 171.318 315.233 171.318C310.506 171.318 307.324 174.909 307.324 180.364C307.324 185.773 310.506 189.364 315.233 189.364ZM315.233 186.955C311.642 186.955 310.006 183.864 310.006 180.364C310.006 176.864 311.642 173.727 315.233 173.727C318.824 173.727 320.46 176.864 320.46 180.364C320.46 183.864 318.824 186.955 315.233 186.955ZM327.236 189H329.918V177.955C329.918 175.591 331.781 173.864 334.327 173.864C335.043 173.864 335.781 174 335.963 174.045V171.318C335.656 171.295 334.952 171.273 334.554 171.273C332.463 171.273 330.645 172.455 330.009 174.182H329.827V171.545H327.236V189ZM347.827 171.545H344.099V167.364H341.418V171.545H338.781V173.818H341.418V184.727C341.418 187.773 343.872 189.227 346.145 189.227C347.145 189.227 347.781 189.045 348.145 188.909L347.599 186.5C347.372 186.545 347.009 186.636 346.418 186.636C345.236 186.636 344.099 186.273 344.099 184V173.818H347.827V171.545ZM362.861 181.864C362.861 185.136 360.361 186.636 358.361 186.636C356.134 186.636 354.543 185 354.543 182.455V171.545H351.861V182.636C351.861 187.091 354.224 189.227 357.497 189.227C360.134 189.227 361.861 187.818 362.679 186.045H362.861V189H365.543V171.545H362.861V181.864ZM373.136 178.5C373.136 175.455 375.023 173.727 377.591 173.727C380.08 173.727 381.591 175.352 381.591 178.091V189H384.273V177.909C384.273 173.455 381.898 171.318 378.364 171.318C375.727 171.318 374.091 172.5 373.273 174.273H373.045V171.545H370.455V189H373.136V178.5ZM389.173 189H391.855V171.545H389.173V189ZM390.537 168.636C391.582 168.636 392.446 167.818 392.446 166.818C392.446 165.818 391.582 165 390.537 165C389.491 165 388.628 165.818 388.628 166.818C388.628 167.818 389.491 168.636 390.537 168.636ZM404.358 171.545H400.631V167.364H397.949V171.545H395.312V173.818H397.949V184.727C397.949 187.773 400.403 189.227 402.676 189.227C403.676 189.227 404.312 189.045 404.676 188.909L404.131 186.5C403.903 186.545 403.54 186.636 402.949 186.636C401.767 186.636 400.631 186.273 400.631 184V173.818H404.358V171.545ZM408.392 189H411.074V171.545H408.392V189ZM409.756 168.636C410.801 168.636 411.665 167.818 411.665 166.818C411.665 165.818 410.801 165 409.756 165C408.71 165 407.847 165.818 407.847 166.818C407.847 167.818 408.71 168.636 409.756 168.636ZM423.304 189.364C426.849 189.364 429.44 187.591 430.259 184.955L427.668 184.227C426.986 186.045 425.406 186.955 423.304 186.955C420.156 186.955 417.986 184.92 417.861 181.182H430.531V180.045C430.531 173.545 426.668 171.318 423.031 171.318C418.304 171.318 415.168 175.045 415.168 180.409C415.168 185.773 418.259 189.364 423.304 189.364ZM417.861 178.864C418.043 176.148 419.963 173.727 423.031 173.727C425.94 173.727 427.804 175.909 427.804 178.864H417.861ZM446.974 175.455C446.134 172.977 444.247 171.318 440.793 171.318C437.111 171.318 434.384 173.409 434.384 176.364C434.384 178.773 435.815 180.386 439.02 181.136L441.929 181.818C443.69 182.227 444.52 183.068 444.52 184.273C444.52 185.773 442.929 187 440.429 187C438.236 187 436.861 186.057 436.384 184.182L433.838 184.818C434.463 187.784 436.906 189.364 440.474 189.364C444.531 189.364 447.293 187.148 447.293 184.136C447.293 181.705 445.77 180.17 442.656 179.409L440.065 178.773C437.997 178.261 437.065 177.568 437.065 176.227C437.065 174.727 438.656 173.636 440.793 173.636C443.134 173.636 444.099 174.932 444.565 176.136L446.974 175.455ZM460.693 189H463.284V186.318H463.602C464.193 187.273 465.33 189.364 468.693 189.364C473.057 189.364 476.102 185.864 476.102 180.318C476.102 174.818 473.057 171.318 468.648 171.318C465.239 171.318 464.193 173.409 463.602 174.318H463.375V165.727H460.693V189ZM463.33 180.273C463.33 176.364 465.057 173.727 468.33 173.727C471.739 173.727 473.42 176.591 473.42 180.273C473.42 184 471.693 186.955 468.33 186.955C465.102 186.955 463.33 184.227 463.33 180.273ZM487.523 189.364C491.068 189.364 493.659 187.591 494.477 184.955L491.886 184.227C491.205 186.045 489.625 186.955 487.523 186.955C484.375 186.955 482.205 184.92 482.08 181.182H494.75V180.045C494.75 173.545 490.886 171.318 487.25 171.318C482.523 171.318 479.386 175.045 479.386 180.409C479.386 185.773 482.477 189.364 487.523 189.364ZM482.08 178.864C482.261 176.148 484.182 173.727 487.25 173.727C490.159 173.727 492.023 175.909 492.023 178.864H482.08ZM505.92 189.364C509.784 189.364 512.33 187 512.784 183.909H510.102C509.602 185.818 508.011 186.955 505.92 186.955C502.739 186.955 500.693 184.318 500.693 180.273C500.693 176.318 502.784 173.727 505.92 173.727C508.284 173.727 509.693 175.182 510.102 176.773H512.784C512.33 173.5 509.557 171.318 505.875 171.318C501.148 171.318 498.011 175.045 498.011 180.364C498.011 185.591 501.011 189.364 505.92 189.364ZM521.841 189.409C524.886 189.409 526.477 187.773 527.023 186.636H527.159V189H529.841V177.5C529.841 171.955 525.614 171.318 523.386 171.318C520.75 171.318 517.75 172.227 516.386 175.409L518.932 176.318C519.523 175.045 520.92 173.682 523.477 173.682C525.943 173.682 527.159 174.989 527.159 177.227V177.318C527.159 178.614 525.841 178.5 522.659 178.909C519.42 179.33 515.886 180.045 515.886 184.045C515.886 187.455 518.523 189.409 521.841 189.409ZM522.25 187C520.114 187 518.568 186.045 518.568 184.182C518.568 182.136 520.432 181.5 522.523 181.227C523.659 181.091 526.705 180.773 527.159 180.227V182.682C527.159 184.864 525.432 187 522.25 187ZM545.736 181.864C545.736 185.136 543.236 186.636 541.236 186.636C539.009 186.636 537.418 185 537.418 182.455V171.545H534.736V182.636C534.736 187.091 537.099 189.227 540.372 189.227C543.009 189.227 544.736 187.818 545.554 186.045H545.736V189H548.418V171.545H545.736V181.864ZM565.693 175.455C564.852 172.977 562.966 171.318 559.511 171.318C555.83 171.318 553.102 173.409 553.102 176.364C553.102 178.773 554.534 180.386 557.739 181.136L560.648 181.818C562.409 182.227 563.239 183.068 563.239 184.273C563.239 185.773 561.648 187 559.148 187C556.955 187 555.58 186.057 555.102 184.182L552.557 184.818C553.182 187.784 555.625 189.364 559.193 189.364C563.25 189.364 566.011 187.148 566.011 184.136C566.011 181.705 564.489 180.17 561.375 179.409L558.784 178.773C556.716 178.261 555.784 177.568 555.784 176.227C555.784 174.727 557.375 173.636 559.511 173.636C561.852 173.636 562.818 174.932 563.284 176.136L565.693 175.455ZM577.366 189.364C580.912 189.364 583.503 187.591 584.321 184.955L581.73 184.227C581.048 186.045 579.469 186.955 577.366 186.955C574.219 186.955 572.048 184.92 571.923 181.182H584.594V180.045C584.594 173.545 580.73 171.318 577.094 171.318C572.366 171.318 569.23 175.045 569.23 180.409C569.23 185.773 572.321 189.364 577.366 189.364ZM571.923 178.864C572.105 176.148 574.026 173.727 577.094 173.727C580.003 173.727 581.866 175.909 581.866 178.864H571.923ZM605.264 171.545H601.537V167.364H598.855V171.545H596.219V173.818H598.855V184.727C598.855 187.773 601.31 189.227 603.582 189.227C604.582 189.227 605.219 189.045 605.582 188.909L605.037 186.5C604.81 186.545 604.446 186.636 603.855 186.636C602.673 186.636 601.537 186.273 601.537 184V173.818H605.264V171.545ZM612.355 178.5C612.355 175.455 614.298 173.727 616.946 173.727C619.469 173.727 620.991 175.318 620.991 178.091V189H623.673V177.909C623.673 173.42 621.287 171.318 617.719 171.318C614.969 171.318 613.401 172.466 612.582 174.273H612.355V165.727H609.673V189H612.355V178.5ZM635.898 189.364C639.443 189.364 642.034 187.591 642.852 184.955L640.261 184.227C639.58 186.045 638 186.955 635.898 186.955C632.75 186.955 630.58 184.92 630.455 181.182H643.125V180.045C643.125 173.545 639.261 171.318 635.625 171.318C630.898 171.318 627.761 175.045 627.761 180.409C627.761 185.773 630.852 189.364 635.898 189.364ZM630.455 178.864C630.636 176.148 632.557 173.727 635.625 173.727C638.534 173.727 640.398 175.909 640.398 178.864H630.455ZM648.401 195.545C650.821 195.545 652.526 194.261 653.537 191.545L660.969 171.591L658.037 171.545L653.219 185.455H653.037L648.219 171.545H645.31L651.764 189.091L651.264 190.455C650.287 193.114 649.082 193.364 647.128 192.864L646.446 195.227C646.719 195.364 647.491 195.545 648.401 195.545ZM676.199 178.5C676.199 175.455 678.142 173.727 680.79 173.727C683.312 173.727 684.835 175.318 684.835 178.091V189H687.517V177.909C687.517 173.42 685.131 171.318 681.562 171.318C678.812 171.318 677.244 172.466 676.426 174.273H676.199V165.727H673.517V189H676.199V178.5ZM697.56 189.409C700.605 189.409 702.196 187.773 702.741 186.636H702.878V189H705.56V177.5C705.56 171.955 701.332 171.318 699.105 171.318C696.469 171.318 693.469 172.227 692.105 175.409L694.651 176.318C695.241 175.045 696.639 173.682 699.196 173.682C701.662 173.682 702.878 174.989 702.878 177.227V177.318C702.878 178.614 701.56 178.5 698.378 178.909C695.139 179.33 691.605 180.045 691.605 184.045C691.605 187.455 694.241 189.409 697.56 189.409ZM697.969 187C695.832 187 694.287 186.045 694.287 184.182C694.287 182.136 696.151 181.5 698.241 181.227C699.378 181.091 702.423 180.773 702.878 180.227V182.682C702.878 184.864 701.151 187 697.969 187ZM724.102 171.545H721.193L716.375 185.455H716.193L711.375 171.545H708.466L714.92 189H717.648L724.102 171.545ZM734.335 189.364C737.881 189.364 740.472 187.591 741.29 184.955L738.699 184.227C738.017 186.045 736.438 186.955 734.335 186.955C731.188 186.955 729.017 184.92 728.892 181.182H741.562V180.045C741.562 173.545 737.699 171.318 734.062 171.318C729.335 171.318 726.199 175.045 726.199 180.409C726.199 185.773 729.29 189.364 734.335 189.364ZM728.892 178.864C729.074 176.148 730.994 173.727 734.062 173.727C736.972 173.727 738.835 175.909 738.835 178.864H728.892ZM755.006 189H757.597V186.318H757.915C758.506 187.273 759.642 189.364 763.006 189.364C767.369 189.364 770.415 185.864 770.415 180.318C770.415 174.818 767.369 171.318 762.96 171.318C759.551 171.318 758.506 173.409 757.915 174.318H757.688V165.727H755.006V189ZM757.642 180.273C757.642 176.364 759.369 173.727 762.642 173.727C766.051 173.727 767.733 176.591 767.733 180.273C767.733 184 766.006 186.955 762.642 186.955C759.415 186.955 757.642 184.227 757.642 180.273ZM785.517 181.864C785.517 185.136 783.017 186.636 781.017 186.636C778.79 186.636 777.199 185 777.199 182.455V171.545H774.517V182.636C774.517 187.091 776.881 189.227 780.153 189.227C782.79 189.227 784.517 187.818 785.335 186.045H785.517V189H788.199V171.545H785.517V181.864ZM805.474 175.455C804.634 172.977 802.747 171.318 799.293 171.318C795.611 171.318 792.884 173.409 792.884 176.364C792.884 178.773 794.315 180.386 797.52 181.136L800.429 181.818C802.19 182.227 803.02 183.068 803.02 184.273C803.02 185.773 801.429 187 798.929 187C796.736 187 795.361 186.057 794.884 184.182L792.338 184.818C792.963 187.784 795.406 189.364 798.974 189.364C803.031 189.364 805.793 187.148 805.793 184.136C805.793 181.705 804.27 180.17 801.156 179.409L798.565 178.773C796.497 178.261 795.565 177.568 795.565 176.227C795.565 174.727 797.156 173.636 799.293 173.636C801.634 173.636 802.599 174.932 803.065 176.136L805.474 175.455ZM811.557 195.545C813.977 195.545 815.682 194.261 816.693 191.545L824.125 171.591L821.193 171.545L816.375 185.455H816.193L811.375 171.545H808.466L814.92 189.091L814.42 190.455C813.443 193.114 812.239 193.364 810.284 192.864L809.602 195.227C809.875 195.364 810.648 195.545 811.557 195.545ZM849.037 175.455C848.196 172.977 846.31 171.318 842.855 171.318C839.173 171.318 836.446 173.409 836.446 176.364C836.446 178.773 837.878 180.386 841.082 181.136L843.991 181.818C845.753 182.227 846.582 183.068 846.582 184.273C846.582 185.773 844.991 187 842.491 187C840.298 187 838.923 186.057 838.446 184.182L835.901 184.818C836.526 187.784 838.969 189.364 842.537 189.364C846.594 189.364 849.355 187.148 849.355 184.136C849.355 181.705 847.832 180.17 844.719 179.409L842.128 178.773C840.06 178.261 839.128 177.568 839.128 176.227C839.128 174.727 840.719 173.636 842.855 173.636C845.196 173.636 846.162 174.932 846.628 176.136L849.037 175.455ZM860.483 189.364C864.347 189.364 866.892 187 867.347 183.909H864.665C864.165 185.818 862.574 186.955 860.483 186.955C857.301 186.955 855.256 184.318 855.256 180.273C855.256 176.318 857.347 173.727 860.483 173.727C862.847 173.727 864.256 175.182 864.665 176.773H867.347C866.892 173.5 864.119 171.318 860.438 171.318C855.71 171.318 852.574 175.045 852.574 180.364C852.574 185.591 855.574 189.364 860.483 189.364ZM873.949 178.5C873.949 175.455 875.892 173.727 878.54 173.727C881.062 173.727 882.585 175.318 882.585 178.091V189H885.267V177.909C885.267 173.42 882.881 171.318 879.312 171.318C876.562 171.318 874.994 172.466 874.176 174.273H873.949V165.727H871.267V189H873.949V178.5ZM897.491 189.364C901.037 189.364 903.628 187.591 904.446 184.955L901.855 184.227C901.173 186.045 899.594 186.955 897.491 186.955C894.344 186.955 892.173 184.92 892.048 181.182H904.719V180.045C904.719 173.545 900.855 171.318 897.219 171.318C892.491 171.318 889.355 175.045 889.355 180.409C889.355 185.773 892.446 189.364 897.491 189.364ZM892.048 178.864C892.23 176.148 894.151 173.727 897.219 173.727C900.128 173.727 901.991 175.909 901.991 178.864H892.048ZM915.389 189.364C918.753 189.364 919.889 187.273 920.48 186.318H920.798V189H923.389V165.727H920.707V174.318H920.48C919.889 173.409 918.844 171.318 915.435 171.318C911.026 171.318 907.98 174.818 907.98 180.318C907.98 185.864 911.026 189.364 915.389 189.364ZM915.753 186.955C912.389 186.955 910.662 184 910.662 180.273C910.662 176.591 912.344 173.727 915.753 173.727C919.026 173.727 920.753 176.364 920.753 180.273C920.753 184.227 918.98 186.955 915.753 186.955ZM939.673 181.864C939.673 185.136 937.173 186.636 935.173 186.636C932.946 186.636 931.355 185 931.355 182.455V171.545H928.673V182.636C928.673 187.091 931.037 189.227 934.31 189.227C936.946 189.227 938.673 187.818 939.491 186.045H939.673V189H942.355V171.545H939.673V181.864ZM949.949 165.727H947.267V189H949.949V165.727ZM962.179 189.364C965.724 189.364 968.315 187.591 969.134 184.955L966.543 184.227C965.861 186.045 964.281 186.955 962.179 186.955C959.031 186.955 956.861 184.92 956.736 181.182H969.406V180.045C969.406 173.545 965.543 171.318 961.906 171.318C957.179 171.318 954.043 175.045 954.043 180.409C954.043 185.773 957.134 189.364 962.179 189.364ZM956.736 178.864C956.918 176.148 958.838 173.727 961.906 173.727C964.815 173.727 966.679 175.909 966.679 178.864H956.736ZM985.849 175.455C985.009 172.977 983.122 171.318 979.668 171.318C975.986 171.318 973.259 173.409 973.259 176.364C973.259 178.773 974.69 180.386 977.895 181.136L980.804 181.818C982.565 182.227 983.395 183.068 983.395 184.273C983.395 185.773 981.804 187 979.304 187C977.111 187 975.736 186.057 975.259 184.182L972.713 184.818C973.338 187.784 975.781 189.364 979.349 189.364C983.406 189.364 986.168 187.148 986.168 184.136C986.168 181.705 984.645 180.17 981.531 179.409L978.94 178.773C976.872 178.261 975.94 177.568 975.94 176.227C975.94 174.727 977.531 173.636 979.668 173.636C982.009 173.636 982.974 174.932 983.44 176.136L985.849 175.455ZM1006.8 171.545H1003.07V167.364H1000.39V171.545H997.75V173.818H1000.39V184.727C1000.39 187.773 1002.84 189.227 1005.11 189.227C1006.11 189.227 1006.75 189.045 1007.11 188.909L1006.57 186.5C1006.34 186.545 1005.98 186.636 1005.39 186.636C1004.2 186.636 1003.07 186.273 1003.07 184V173.818H1006.8V171.545ZM1013.89 178.5C1013.89 175.455 1015.83 173.727 1018.48 173.727C1021 173.727 1022.52 175.318 1022.52 178.091V189H1025.2V177.909C1025.2 173.42 1022.82 171.318 1019.25 171.318C1016.5 171.318 1014.93 172.466 1014.11 174.273H1013.89V165.727H1011.2V189H1013.89V178.5ZM1035.25 189.409C1038.29 189.409 1039.88 187.773 1040.43 186.636H1040.57V189H1043.25V177.5C1043.25 171.955 1039.02 171.318 1036.79 171.318C1034.16 171.318 1031.16 172.227 1029.79 175.409L1032.34 176.318C1032.93 175.045 1034.33 173.682 1036.88 173.682C1039.35 173.682 1040.57 174.989 1040.57 177.227V177.318C1040.57 178.614 1039.25 178.5 1036.07 178.909C1032.83 179.33 1029.29 180.045 1029.29 184.045C1029.29 187.455 1031.93 189.409 1035.25 189.409ZM1035.66 187C1033.52 187 1031.97 186.045 1031.97 184.182C1031.97 182.136 1033.84 181.5 1035.93 181.227C1037.07 181.091 1040.11 180.773 1040.57 180.227V182.682C1040.57 184.864 1038.84 187 1035.66 187ZM1055.73 171.545H1052.01V167.364H1049.32V171.545H1046.69V173.818H1049.32V184.727C1049.32 187.773 1051.78 189.227 1054.05 189.227C1055.05 189.227 1055.69 189.045 1056.05 188.909L1055.51 186.5C1055.28 186.545 1054.91 186.636 1054.32 186.636C1053.14 186.636 1052.01 186.273 1052.01 184V173.818H1055.73V171.545ZM58.5909 228.409C61.6364 228.409 63.2273 226.773 63.7727 225.636H63.9091V228H66.5909V216.5C66.5909 210.955 62.3636 210.318 60.1364 210.318C57.5 210.318 54.5 211.227 53.1364 214.409L55.6818 215.318C56.2727 214.045 57.6705 212.682 60.2273 212.682C62.6932 212.682 63.9091 213.989 63.9091 216.227V216.318C63.9091 217.614 62.5909 217.5 59.4091 217.909C56.1705 218.33 52.6364 219.045 52.6364 223.045C52.6364 226.455 55.2727 228.409 58.5909 228.409ZM59 226C56.8636 226 55.3182 225.045 55.3182 223.182C55.3182 221.136 57.1818 220.5 59.2727 220.227C60.4091 220.091 63.4545 219.773 63.9091 219.227V221.682C63.9091 223.864 62.1818 226 59 226ZM71.4858 228H74.1676V216.955C74.1676 214.591 76.0312 212.864 78.5767 212.864C79.2926 212.864 80.0312 213 80.2131 213.045V210.318C79.9062 210.295 79.2017 210.273 78.804 210.273C76.7131 210.273 74.8949 211.455 74.2585 213.182H74.0767V210.545H71.4858V228ZM90.179 228.364C93.7244 228.364 96.3153 226.591 97.1335 223.955L94.5426 223.227C93.8608 225.045 92.2812 225.955 90.179 225.955C87.0312 225.955 84.8608 223.92 84.7358 220.182H97.4062V219.045C97.4062 212.545 93.5426 210.318 89.9062 210.318C85.179 210.318 82.0426 214.045 82.0426 219.409C82.0426 224.773 85.1335 228.364 90.179 228.364ZM84.7358 217.864C84.9176 215.148 86.8381 212.727 89.9062 212.727C92.8153 212.727 94.679 214.909 94.679 217.864H84.7358ZM117.077 228.364C120.44 228.364 121.577 226.273 122.168 225.318H122.486V228H125.077V204.727H122.395V213.318H122.168C121.577 212.409 120.531 210.318 117.122 210.318C112.713 210.318 109.668 213.818 109.668 219.318C109.668 224.864 112.713 228.364 117.077 228.364ZM117.44 225.955C114.077 225.955 112.349 223 112.349 219.273C112.349 215.591 114.031 212.727 117.44 212.727C120.713 212.727 122.44 215.364 122.44 219.273C122.44 223.227 120.668 225.955 117.44 225.955ZM130.361 228H133.043V210.545H130.361V228ZM131.724 207.636C132.77 207.636 133.634 206.818 133.634 205.818C133.634 204.818 132.77 204 131.724 204C130.679 204 129.815 204.818 129.815 205.818C129.815 206.818 130.679 207.636 131.724 207.636ZM145.727 210.545H141.818V208.773C141.818 207.045 142.545 206.136 144.318 206.136C145.091 206.136 145.545 206.318 145.818 206.409L146.591 204.091C146.182 203.909 145.364 203.636 144.045 203.636C141.545 203.636 139.136 205.136 139.136 208.136V210.545H136.318V212.818H139.136V228H141.818V212.818H145.727V210.545ZM157.259 210.545H153.349V208.773C153.349 207.045 154.077 206.136 155.849 206.136C156.622 206.136 157.077 206.318 157.349 206.409L158.122 204.091C157.713 203.909 156.895 203.636 155.577 203.636C153.077 203.636 150.668 205.136 150.668 208.136V210.545H147.849V212.818H150.668V228H153.349V212.818H157.259V210.545ZM161.017 228H163.699V210.545H161.017V228ZM162.381 207.636C163.426 207.636 164.29 206.818 164.29 205.818C164.29 204.818 163.426 204 162.381 204C161.335 204 160.472 204.818 160.472 205.818C160.472 206.818 161.335 207.636 162.381 207.636ZM175.702 228.364C179.565 228.364 182.111 226 182.565 222.909H179.884C179.384 224.818 177.793 225.955 175.702 225.955C172.52 225.955 170.474 223.318 170.474 219.273C170.474 215.318 172.565 212.727 175.702 212.727C178.065 212.727 179.474 214.182 179.884 215.773H182.565C182.111 212.5 179.338 210.318 175.656 210.318C170.929 210.318 167.793 214.045 167.793 219.364C167.793 224.591 170.793 228.364 175.702 228.364ZM197.486 220.864C197.486 224.136 194.986 225.636 192.986 225.636C190.759 225.636 189.168 224 189.168 221.455V210.545H186.486V221.636C186.486 226.091 188.849 228.227 192.122 228.227C194.759 228.227 196.486 226.818 197.304 225.045H197.486V228H200.168V210.545H197.486V220.864ZM207.761 204.727H205.08V228H207.761V204.727ZM220.264 210.545H216.537V206.364H213.855V210.545H211.219V212.818H213.855V223.727C213.855 226.773 216.31 228.227 218.582 228.227C219.582 228.227 220.219 228.045 220.582 227.909L220.037 225.5C219.81 225.545 219.446 225.636 218.855 225.636C217.673 225.636 216.537 225.273 216.537 223V212.818H220.264V210.545ZM240.889 210.545H237.162V206.364H234.48V210.545H231.844V212.818H234.48V223.727C234.48 226.773 236.935 228.227 239.207 228.227C240.207 228.227 240.844 228.045 241.207 227.909L240.662 225.5C240.435 225.545 240.071 225.636 239.48 225.636C238.298 225.636 237.162 225.273 237.162 223V212.818H240.889V210.545ZM251.827 228.364C256.554 228.364 259.736 224.773 259.736 219.364C259.736 213.909 256.554 210.318 251.827 210.318C247.099 210.318 243.918 213.909 243.918 219.364C243.918 224.773 247.099 228.364 251.827 228.364ZM251.827 225.955C248.236 225.955 246.599 222.864 246.599 219.364C246.599 215.864 248.236 212.727 251.827 212.727C255.418 212.727 257.054 215.864 257.054 219.364C257.054 222.864 255.418 225.955 251.827 225.955ZM285.193 214.455C284.352 211.977 282.466 210.318 279.011 210.318C275.33 210.318 272.602 212.409 272.602 215.364C272.602 217.773 274.034 219.386 277.239 220.136L280.148 220.818C281.909 221.227 282.739 222.068 282.739 223.273C282.739 224.773 281.148 226 278.648 226C276.455 226 275.08 225.057 274.602 223.182L272.057 223.818C272.682 226.784 275.125 228.364 278.693 228.364C282.75 228.364 285.511 226.148 285.511 223.136C285.511 220.705 283.989 219.17 280.875 218.409L278.284 217.773C276.216 217.261 275.284 216.568 275.284 215.227C275.284 213.727 276.875 212.636 279.011 212.636C281.352 212.636 282.318 213.932 282.784 215.136L285.193 214.455ZM296.639 228.364C300.503 228.364 303.048 226 303.503 222.909H300.821C300.321 224.818 298.73 225.955 296.639 225.955C293.457 225.955 291.412 223.318 291.412 219.273C291.412 215.318 293.503 212.727 296.639 212.727C299.003 212.727 300.412 214.182 300.821 215.773H303.503C303.048 212.5 300.276 210.318 296.594 210.318C291.866 210.318 288.73 214.045 288.73 219.364C288.73 224.591 291.73 228.364 296.639 228.364ZM310.105 217.5C310.105 214.455 312.048 212.727 314.696 212.727C317.219 212.727 318.741 214.318 318.741 217.091V228H321.423V216.909C321.423 212.42 319.037 210.318 315.469 210.318C312.719 210.318 311.151 211.466 310.332 213.273H310.105V204.727H307.423V228H310.105V217.5ZM333.648 228.364C337.193 228.364 339.784 226.591 340.602 223.955L338.011 223.227C337.33 225.045 335.75 225.955 333.648 225.955C330.5 225.955 328.33 223.92 328.205 220.182H340.875V219.045C340.875 212.545 337.011 210.318 333.375 210.318C328.648 210.318 325.511 214.045 325.511 219.409C325.511 224.773 328.602 228.364 333.648 228.364ZM328.205 217.864C328.386 215.148 330.307 212.727 333.375 212.727C336.284 212.727 338.148 214.909 338.148 217.864H328.205ZM351.545 228.364C354.909 228.364 356.045 226.273 356.636 225.318H356.955V228H359.545V204.727H356.864V213.318H356.636C356.045 212.409 355 210.318 351.591 210.318C347.182 210.318 344.136 213.818 344.136 219.318C344.136 224.864 347.182 228.364 351.545 228.364ZM351.909 225.955C348.545 225.955 346.818 223 346.818 219.273C346.818 215.591 348.5 212.727 351.909 212.727C355.182 212.727 356.909 215.364 356.909 219.273C356.909 223.227 355.136 225.955 351.909 225.955ZM375.83 220.864C375.83 224.136 373.33 225.636 371.33 225.636C369.102 225.636 367.511 224 367.511 221.455V210.545H364.83V221.636C364.83 226.091 367.193 228.227 370.466 228.227C373.102 228.227 374.83 226.818 375.648 225.045H375.83V228H378.511V210.545H375.83V220.864ZM386.105 204.727H383.423V228H386.105V204.727ZM398.335 228.364C401.881 228.364 404.472 226.591 405.29 223.955L402.699 223.227C402.017 225.045 400.438 225.955 398.335 225.955C395.188 225.955 393.017 223.92 392.892 220.182H405.562V219.045C405.562 212.545 401.699 210.318 398.062 210.318C393.335 210.318 390.199 214.045 390.199 219.409C390.199 224.773 393.29 228.364 398.335 228.364ZM392.892 217.864C393.074 215.148 394.994 212.727 398.062 212.727C400.972 212.727 402.835 214.909 402.835 217.864H392.892ZM432.915 210.545H430.006L425.188 224.455H425.006L420.188 210.545H417.278L423.733 228H426.46L432.915 210.545ZM442.92 228.364C447.648 228.364 450.83 224.773 450.83 219.364C450.83 213.909 447.648 210.318 442.92 210.318C438.193 210.318 435.011 213.909 435.011 219.364C435.011 224.773 438.193 228.364 442.92 228.364ZM442.92 225.955C439.33 225.955 437.693 222.864 437.693 219.364C437.693 215.864 439.33 212.727 442.92 212.727C446.511 212.727 448.148 215.864 448.148 219.364C448.148 222.864 446.511 225.955 442.92 225.955ZM457.605 204.727H454.923V228H457.605V204.727ZM473.517 220.864C473.517 224.136 471.017 225.636 469.017 225.636C466.79 225.636 465.199 224 465.199 221.455V210.545H462.517V221.636C462.517 226.091 464.881 228.227 468.153 228.227C470.79 228.227 472.517 226.818 473.335 225.045H473.517V228H476.199V210.545H473.517V220.864ZM483.793 217.5C483.793 214.455 485.679 212.727 488.247 212.727C490.736 212.727 492.247 214.352 492.247 217.091V228H494.929V216.909C494.929 212.455 492.554 210.318 489.02 210.318C486.384 210.318 484.747 211.5 483.929 213.273H483.702V210.545H481.111V228H483.793V217.5ZM507.42 210.545H503.693V206.364H501.011V210.545H498.375V212.818H501.011V223.727C501.011 226.773 503.466 228.227 505.739 228.227C506.739 228.227 507.375 228.045 507.739 227.909L507.193 225.5C506.966 225.545 506.602 225.636 506.011 225.636C504.83 225.636 503.693 225.273 503.693 223V212.818H507.42V210.545ZM518.585 228.364C522.131 228.364 524.722 226.591 525.54 223.955L522.949 223.227C522.267 225.045 520.688 225.955 518.585 225.955C515.438 225.955 513.267 223.92 513.142 220.182H525.812V219.045C525.812 212.545 521.949 210.318 518.312 210.318C513.585 210.318 510.449 214.045 510.449 219.409C510.449 224.773 513.54 228.364 518.585 228.364ZM513.142 217.864C513.324 215.148 515.244 212.727 518.312 212.727C521.222 212.727 523.085 214.909 523.085 217.864H513.142ZM537.21 228.364C540.756 228.364 543.347 226.591 544.165 223.955L541.574 223.227C540.892 225.045 539.312 225.955 537.21 225.955C534.062 225.955 531.892 223.92 531.767 220.182H544.438V219.045C544.438 212.545 540.574 210.318 536.938 210.318C532.21 210.318 529.074 214.045 529.074 219.409C529.074 224.773 532.165 228.364 537.21 228.364ZM531.767 217.864C531.949 215.148 533.869 212.727 536.938 212.727C539.847 212.727 541.71 214.909 541.71 217.864H531.767ZM548.517 228H551.199V216.955C551.199 214.591 553.062 212.864 555.608 212.864C556.324 212.864 557.062 213 557.244 213.045V210.318C556.938 210.295 556.233 210.273 555.835 210.273C553.744 210.273 551.926 211.455 551.29 213.182H551.108V210.545H548.517V228ZM560.423 228H563.105V210.545H560.423V228ZM561.787 207.636C562.832 207.636 563.696 206.818 563.696 205.818C563.696 204.818 562.832 204 561.787 204C560.741 204 559.878 204.818 559.878 205.818C559.878 206.818 560.741 207.636 561.787 207.636ZM570.699 217.5C570.699 214.455 572.585 212.727 575.153 212.727C577.642 212.727 579.153 214.352 579.153 217.091V228H581.835V216.909C581.835 212.455 579.46 210.318 575.926 210.318C573.29 210.318 571.653 211.5 570.835 213.273H570.608V210.545H568.017V228H570.699V217.5ZM593.781 234.909C597.963 234.909 601.327 233 601.327 228.5V210.545H598.736V213.318H598.463C597.872 212.409 596.781 210.318 593.372 210.318C588.963 210.318 585.918 213.818 585.918 219.182C585.918 224.636 589.099 227.727 593.327 227.727C596.736 227.727 597.827 225.727 598.418 224.773H598.645V228.318C598.645 231.227 596.599 232.545 593.781 232.545C590.611 232.545 589.497 230.875 588.781 229.909L586.645 231.409C587.736 233.239 589.884 234.909 593.781 234.909ZM593.69 225.318C590.327 225.318 588.599 222.773 588.599 219.136C588.599 215.591 590.281 212.727 593.69 212.727C596.963 212.727 598.69 215.364 598.69 219.136C598.69 223 596.918 225.318 593.69 225.318ZM627.599 214.455C626.759 211.977 624.872 210.318 621.418 210.318C617.736 210.318 615.009 212.409 615.009 215.364C615.009 217.773 616.44 219.386 619.645 220.136L622.554 220.818C624.315 221.227 625.145 222.068 625.145 223.273C625.145 224.773 623.554 226 621.054 226C618.861 226 617.486 225.057 617.009 223.182L614.463 223.818C615.088 226.784 617.531 228.364 621.099 228.364C625.156 228.364 627.918 226.148 627.918 223.136C627.918 220.705 626.395 219.17 623.281 218.409L620.69 217.773C618.622 217.261 617.69 216.568 617.69 215.227C617.69 213.727 619.281 212.636 621.418 212.636C623.759 212.636 624.724 213.932 625.19 215.136L627.599 214.455ZM634.636 217.5C634.636 214.455 636.58 212.727 639.227 212.727C641.75 212.727 643.273 214.318 643.273 217.091V228H645.955V216.909C645.955 212.42 643.568 210.318 640 210.318C637.25 210.318 635.682 211.466 634.864 213.273H634.636V204.727H631.955V228H634.636V217.5ZM650.861 228H653.543V210.545H650.861V228ZM652.224 207.636C653.27 207.636 654.134 206.818 654.134 205.818C654.134 204.818 653.27 204 652.224 204C651.179 204 650.315 204.818 650.315 205.818C650.315 206.818 651.179 207.636 652.224 207.636ZM666.227 210.545H662.318V208.773C662.318 207.045 663.045 206.136 664.818 206.136C665.591 206.136 666.045 206.318 666.318 206.409L667.091 204.091C666.682 203.909 665.864 203.636 664.545 203.636C662.045 203.636 659.636 205.136 659.636 208.136V210.545H656.818V212.818H659.636V228H662.318V212.818H666.227V210.545ZM677.577 210.545H673.849V206.364H671.168V210.545H668.531V212.818H671.168V223.727C671.168 226.773 673.622 228.227 675.895 228.227C676.895 228.227 677.531 228.045 677.895 227.909L677.349 225.5C677.122 225.545 676.759 225.636 676.168 225.636C674.986 225.636 673.849 225.273 673.849 223V212.818H677.577V210.545ZM693.662 214.455C692.821 211.977 690.935 210.318 687.48 210.318C683.798 210.318 681.071 212.409 681.071 215.364C681.071 217.773 682.503 219.386 685.707 220.136L688.616 220.818C690.378 221.227 691.207 222.068 691.207 223.273C691.207 224.773 689.616 226 687.116 226C684.923 226 683.548 225.057 683.071 223.182L680.526 223.818C681.151 226.784 683.594 228.364 687.162 228.364C691.219 228.364 693.98 226.148 693.98 223.136C693.98 220.705 692.457 219.17 689.344 218.409L686.753 217.773C684.685 217.261 683.753 216.568 683.753 215.227C683.753 213.727 685.344 212.636 687.48 212.636C689.821 212.636 690.787 213.932 691.253 215.136L693.662 214.455ZM707.017 228H709.699V210.545H707.017V228ZM708.381 207.636C709.426 207.636 710.29 206.818 710.29 205.818C710.29 204.818 709.426 204 708.381 204C707.335 204 706.472 204.818 706.472 205.818C706.472 206.818 707.335 207.636 708.381 207.636ZM717.293 217.5C717.293 214.455 719.179 212.727 721.747 212.727C724.236 212.727 725.747 214.352 725.747 217.091V228H728.429V216.909C728.429 212.455 726.054 210.318 722.52 210.318C719.884 210.318 718.247 211.5 717.429 213.273H717.202V210.545H714.611V228H717.293V217.5ZM740.92 210.545H737.193V206.364H734.511V210.545H731.875V212.818H734.511V223.727C734.511 226.773 736.966 228.227 739.239 228.227C740.239 228.227 740.875 228.045 741.239 227.909L740.693 225.5C740.466 225.545 740.102 225.636 739.511 225.636C738.33 225.636 737.193 225.273 737.193 223V212.818H740.92V210.545ZM751.858 228.364C756.585 228.364 759.767 224.773 759.767 219.364C759.767 213.909 756.585 210.318 751.858 210.318C747.131 210.318 743.949 213.909 743.949 219.364C743.949 224.773 747.131 228.364 751.858 228.364ZM751.858 225.955C748.267 225.955 746.631 222.864 746.631 219.364C746.631 215.864 748.267 212.727 751.858 212.727C755.449 212.727 757.085 215.864 757.085 219.364C757.085 222.864 755.449 225.955 751.858 225.955ZM765.815 228.182C766.94 228.182 767.861 227.261 767.861 226.136C767.861 225.011 766.94 224.091 765.815 224.091C764.69 224.091 763.77 225.011 763.77 226.136C763.77 227.261 764.69 228.182 765.815 228.182Z" fill="black"/>
</svg>
