<svg width="256" height="256" viewBox="0 0 256 256" fill="none" xmlns="http://www.w3.org/2000/svg">
<g clip-path="url(#clip0_302_2200)">
<path d="M4.82309e-05 0H71.2356C104.907 3.02222 135.378 26.4356 146.987 58.1689C158.862 50.8444 172.836 47.84 186.667 47.7689C209.778 47.6978 232.889 47.7689 256 47.7511V69.8844C254.116 88.9956 244.676 107.378 229.707 119.502C217.191 129.902 201.067 135.893 184.782 135.982C173.885 136.071 162.987 135.947 152.089 136.018C152.036 138.951 152 141.884 151.965 144.836C161.796 155.236 174.045 164.196 179.253 178.062C188.693 199.431 183.005 226.347 165.351 241.76C156.605 249.671 145.298 254.364 133.689 256H122.756C105.102 253.92 88.32 243.609 79.6089 227.947C68.64 209.582 70.0089 185.12 82.2756 167.751C88.1956 158.844 97.6712 152.924 103.804 144.373C104.16 125.6 103.84 106.809 103.947 88.0178C84.8178 87.2178 64.8178 90.6311 46.5956 83.1822C19.5912 73.1733 -0.0355073 45.9733 4.82309e-05 16.9956V0ZM16.3556 15.7511C15.0223 42.2222 36.1778 66.88 62.08 71.0933C76.7823 73.0489 91.6978 71.2 106.471 72.1956C114.311 73.3689 120.48 80.96 119.982 88.9067C120.018 109.902 120.018 130.916 119.982 151.929C111.591 159.627 103.556 167.716 95.9645 176.196C91.0756 183.484 87.8401 192.124 88.1423 200.996C88.2489 215.698 97.4578 229.742 110.72 235.964C118.471 240.071 127.609 240.373 136.124 239.147C150.684 236.178 163.147 224.462 166.667 209.956C169.867 198.4 166.791 185.884 160.036 176.16C152.427 167.751 144.516 159.573 136.036 152C135.982 141.316 136 130.631 136.018 119.947C153.458 119.84 170.916 120.16 188.356 119.787C216.498 118.169 241.102 92.1778 239.662 63.7333C220.267 63.9822 200.836 63.2889 181.458 64.1067C163.04 64.64 145.582 75.4844 136.213 91.2356C136.747 70.6311 128.693 49.92 113.547 35.8044C101.209 24.0533 84.64 16.7644 67.5556 16.1422C50.5067 15.2711 33.4223 15.9822 16.3556 15.7511V15.7511Z" fill="black"/>
<path d="M16.3555 15.7513C33.4222 15.9824 50.5066 15.2713 67.5555 16.1424C84.64 16.7646 101.209 24.0535 113.547 35.8046C128.693 49.9201 136.747 70.6313 136.213 91.2357C145.582 75.4846 163.04 64.6401 181.458 64.1068C200.836 63.289 220.267 63.9824 239.662 63.7335C241.102 92.1779 216.498 118.169 188.356 119.787C170.916 120.16 153.458 119.84 136.018 119.947C136 130.631 135.982 141.316 136.036 152C136.053 167.858 135.769 183.716 136.231 199.573C135.627 203.787 132.978 208.48 128 207.787C123.022 208.462 120.427 203.751 119.787 199.556C120.213 183.68 119.929 167.805 119.982 151.929C120.018 130.916 120.018 109.902 119.982 88.9068C120.48 80.9601 114.311 73.369 106.471 72.1957C91.6978 71.2001 76.7822 73.049 62.08 71.0935C36.1778 66.8801 15.0222 42.2224 16.3555 15.7513V15.7513ZM45.0133 32.6757C37.7422 34.649 38.6666 47.0401 46.3111 47.5379C60.9422 47.8401 75.6622 48.0001 90.2933 47.449C98.1333 45.9024 97.28 32.3201 89.0311 32.3735C74.4 31.7157 59.5555 30.9868 45.0133 32.6757V32.6757ZM164.124 81.0135C159.698 83.3424 158.684 90.169 162.382 93.5646C165.333 96.7113 170.151 96.0535 174.062 96.1068C185.938 95.3246 197.92 96.7468 209.742 95.6801C216.693 94.8268 218.293 84.4801 212.284 81.1379C205.191 78.6135 197.529 80.5335 190.204 79.9468C181.529 80.0179 172.604 78.8268 164.124 81.0135V81.0135Z" fill="#BAD80A"/>
<path d="M45.0133 32.6754C59.5555 30.9865 74.4 31.7154 89.0311 32.3732C97.28 32.3198 98.1333 45.902 90.2933 47.4487C75.6622 47.9998 60.9422 47.8398 46.3111 47.5376C38.6666 47.0398 37.7422 34.6487 45.0133 32.6754Z" fill="#73AA24"/>
<path d="M164.124 81.0134C172.604 78.8267 181.529 80.0178 190.204 79.9467C197.529 80.5334 205.191 78.6134 212.284 81.1378C218.293 84.48 216.693 94.8267 209.742 95.68C197.92 96.7467 185.938 95.3245 174.062 96.1067C170.151 96.0534 165.333 96.7112 162.382 93.5645C158.684 90.1689 159.698 83.3423 164.124 81.0134V81.0134Z" fill="#73AA24"/>
<path d="M95.9645 176.195C103.556 167.715 111.591 159.626 119.982 151.929C119.929 167.804 120.213 183.68 119.787 199.555C111.644 191.964 104.16 183.715 95.9645 176.195Z" fill="#CA5010"/>
<path d="M136.036 152C144.516 159.573 152.427 167.751 160.036 176.16C151.876 183.733 144.356 191.964 136.231 199.573C135.769 183.716 136.053 167.858 136.036 152Z" fill="#CA5010"/>
<path d="M88.1422 200.996C87.84 192.125 91.0755 183.485 95.9644 176.196C104.16 183.716 111.644 191.965 119.787 199.556C120.427 203.751 123.022 208.462 128 207.787C132.978 208.48 135.627 203.787 136.231 199.574C144.356 191.965 151.876 183.733 160.036 176.16C166.791 185.885 169.867 198.4 166.667 209.956C163.147 224.462 150.684 236.178 136.124 239.147C127.609 240.374 118.471 240.071 110.72 235.965C97.4577 229.742 88.2489 215.698 88.1422 200.996V200.996Z" fill="#F7894A"/>
</g>
<defs>
<clipPath id="clip0_302_2200">
<rect width="256" height="256" fill="white"/>
</clipPath>
</defs>
</svg>
